<?xml version="1.0" encoding="utf-8" standalone="no"?>
<!DOCTYPE svg PUBLIC "-//W3C//DTD SVG 1.1//EN"
  "http://www.w3.org/Graphics/SVG/1.1/DTD/svg11.dtd">
<!-- Created with matplotlib (https://matplotlib.org/) -->
<svg height="180pt" version="1.1" viewBox="0 0 504 180" width="504pt" xmlns="http://www.w3.org/2000/svg" xmlns:xlink="http://www.w3.org/1999/xlink">
 <defs>
  <style type="text/css">
*{stroke-linecap:butt;stroke-linejoin:round;}
  </style>
 </defs>
 <g id="figure_1">
  <g id="patch_1">
   <path d="M 0 180 
L 504 180 
L 504 0 
L 0 0 
z
" style="fill:#ffffff;"/>
  </g>
  <g id="axes_1">
   <g id="patch_2">
    <path d="M 36.682813 139.55625 
L 491.827891 139.55625 
L 491.827891 10.8 
L 36.682813 10.8 
z
" style="fill:#ffffff;"/>
   </g>
   <g id="matplotlib.axis_1">
    <g id="xtick_1">
     <g id="line2d_1">
      <defs>
       <path d="M 0 0 
L 0 3.5 
" id="m220b95c1c8" style="stroke:#000000;stroke-width:0.8;"/>
      </defs>
      <g>
       <use style="stroke:#000000;stroke-width:0.8;" x="36.682813" xlink:href="#m220b95c1c8" y="139.55625"/>
      </g>
     </g>
     <g id="text_1">
      <!-- 0 -->
      <defs>
       <path d="M 51.703125 34.421875 
Q 51.703125 24.515625 49.828125 17.75 
Q 47.953125 10.984375 44.703125 6.8125 
Q 41.453125 2.640625 37.0625 0.828125 
Q 32.671875 -0.984375 27.6875 -0.984375 
Q 22.65625 -0.984375 18.3125 0.828125 
Q 13.96875 2.640625 10.765625 6.78125 
Q 7.5625 10.9375 5.734375 17.703125 
Q 3.90625 24.46875 3.90625 34.421875 
Q 3.90625 44.828125 5.734375 51.640625 
Q 7.5625 58.453125 10.78125 62.5 
Q 14.015625 66.546875 18.40625 68.1875 
Q 22.796875 69.828125 27.984375 69.828125 
Q 32.90625 69.828125 37.21875 68.1875 
Q 41.546875 66.546875 44.765625 62.5 
Q 48 58.453125 49.84375 51.640625 
Q 51.703125 44.828125 51.703125 34.421875 
z
M 42.78125 34.421875 
Q 42.78125 42.625 41.796875 48.0625 
Q 40.828125 53.515625 38.921875 56.765625 
Q 37.015625 60.015625 34.25 61.359375 
Q 31.5 62.703125 27.984375 62.703125 
Q 24.265625 62.703125 21.4375 61.328125 
Q 18.609375 59.96875 16.671875 56.71875 
Q 14.75 53.46875 13.765625 48.015625 
Q 12.796875 42.578125 12.796875 34.421875 
Q 12.796875 26.515625 13.796875 21.09375 
Q 14.796875 15.671875 16.71875 12.375 
Q 18.65625 9.078125 21.4375 7.640625 
Q 24.21875 6.203125 27.78125 6.203125 
Q 31.25 6.203125 34.03125 7.640625 
Q 36.8125 9.078125 38.734375 12.375 
Q 40.671875 15.671875 41.71875 21.09375 
Q 42.78125 26.515625 42.78125 34.421875 
z
" id="LiberationSans-48"/>
      </defs>
      <g transform="translate(33.902344 153.803125)scale(0.1 -0.1)">
       <use xlink:href="#LiberationSans-48"/>
      </g>
     </g>
    </g>
    <g id="xtick_2">
     <g id="line2d_2">
      <g>
       <use style="stroke:#000000;stroke-width:0.8;" x="125.439653" xlink:href="#m220b95c1c8" y="139.55625"/>
      </g>
     </g>
     <g id="text_2">
      <!-- 500 -->
      <defs>
       <path d="M 51.421875 22.40625 
Q 51.421875 17.234375 49.859375 12.9375 
Q 48.296875 8.640625 45.21875 5.53125 
Q 42.140625 2.4375 37.578125 0.71875 
Q 33.015625 -0.984375 27 -0.984375 
Q 21.578125 -0.984375 17.546875 0.28125 
Q 13.53125 1.5625 10.734375 3.78125 
Q 7.953125 6 6.3125 8.984375 
Q 4.6875 11.96875 4 15.375 
L 12.890625 16.40625 
Q 13.421875 14.453125 14.390625 12.625 
Q 15.375 10.796875 17.0625 9.34375 
Q 18.75 7.90625 21.21875 7.046875 
Q 23.6875 6.203125 27.203125 6.203125 
Q 30.609375 6.203125 33.390625 7.25 
Q 36.1875 8.296875 38.15625 10.34375 
Q 40.140625 12.40625 41.203125 15.375 
Q 42.28125 18.359375 42.28125 22.21875 
Q 42.28125 25.390625 41.25 28.046875 
Q 40.234375 30.71875 38.328125 32.640625 
Q 36.421875 34.578125 33.65625 35.640625 
Q 30.90625 36.71875 27.390625 36.71875 
Q 25.203125 36.71875 23.34375 36.328125 
Q 21.484375 35.9375 19.890625 35.25 
Q 18.3125 34.578125 17.015625 33.671875 
Q 15.71875 32.765625 14.59375 31.78125 
L 6 31.78125 
L 8.296875 68.796875 
L 47.40625 68.796875 
L 47.40625 61.328125 
L 16.3125 61.328125 
L 14.984375 39.5 
Q 17.328125 41.3125 20.84375 42.59375 
Q 24.359375 43.890625 29.203125 43.890625 
Q 34.328125 43.890625 38.421875 42.328125 
Q 42.53125 40.765625 45.40625 37.90625 
Q 48.296875 35.0625 49.859375 31.109375 
Q 51.421875 27.15625 51.421875 22.40625 
z
" id="LiberationSans-53"/>
      </defs>
      <g transform="translate(117.098247 153.803125)scale(0.1 -0.1)">
       <use xlink:href="#LiberationSans-53"/>
       <use x="55.615234" xlink:href="#LiberationSans-48"/>
       <use x="111.230469" xlink:href="#LiberationSans-48"/>
      </g>
     </g>
    </g>
    <g id="xtick_3">
     <g id="line2d_3">
      <g>
       <use style="stroke:#000000;stroke-width:0.8;" x="214.196494" xlink:href="#m220b95c1c8" y="139.55625"/>
      </g>
     </g>
     <g id="text_3">
      <!-- 1000 -->
      <defs>
       <path d="M 7.625 0 
L 7.625 7.46875 
L 25.140625 7.46875 
L 25.140625 60.40625 
L 9.625 49.3125 
L 9.625 57.625 
L 25.875 68.796875 
L 33.984375 68.796875 
L 33.984375 7.46875 
L 50.734375 7.46875 
L 50.734375 0 
z
" id="LiberationSans-49"/>
      </defs>
      <g transform="translate(203.074619 153.803125)scale(0.1 -0.1)">
       <use xlink:href="#LiberationSans-49"/>
       <use x="55.615234" xlink:href="#LiberationSans-48"/>
       <use x="111.230469" xlink:href="#LiberationSans-48"/>
       <use x="166.845703" xlink:href="#LiberationSans-48"/>
      </g>
     </g>
    </g>
    <g id="xtick_4">
     <g id="line2d_4">
      <g>
       <use style="stroke:#000000;stroke-width:0.8;" x="302.953334" xlink:href="#m220b95c1c8" y="139.55625"/>
      </g>
     </g>
     <g id="text_4">
      <!-- 1500 -->
      <g transform="translate(291.831459 153.803125)scale(0.1 -0.1)">
       <use xlink:href="#LiberationSans-49"/>
       <use x="55.615234" xlink:href="#LiberationSans-53"/>
       <use x="111.230469" xlink:href="#LiberationSans-48"/>
       <use x="166.845703" xlink:href="#LiberationSans-48"/>
      </g>
     </g>
    </g>
    <g id="xtick_5">
     <g id="line2d_5">
      <g>
       <use style="stroke:#000000;stroke-width:0.8;" x="391.710175" xlink:href="#m220b95c1c8" y="139.55625"/>
      </g>
     </g>
     <g id="text_5">
      <!-- 2000 -->
      <defs>
       <path d="M 5.03125 0 
L 5.03125 6.203125 
Q 7.515625 11.921875 11.109375 16.28125 
Q 14.703125 20.65625 18.65625 24.1875 
Q 22.609375 27.734375 26.484375 30.765625 
Q 30.375 33.796875 33.5 36.8125 
Q 36.625 39.84375 38.546875 43.15625 
Q 40.484375 46.484375 40.484375 50.6875 
Q 40.484375 53.609375 39.59375 55.828125 
Q 38.71875 58.0625 37.0625 59.5625 
Q 35.40625 61.078125 33.078125 61.828125 
Q 30.765625 62.59375 27.9375 62.59375 
Q 25.296875 62.59375 22.96875 61.859375 
Q 20.65625 61.140625 18.84375 59.671875 
Q 17.046875 58.203125 15.890625 56.03125 
Q 14.75 53.859375 14.40625 50.984375 
L 5.421875 51.8125 
Q 5.859375 55.515625 7.46875 58.78125 
Q 9.078125 62.0625 11.90625 64.53125 
Q 14.75 67 18.71875 68.40625 
Q 22.703125 69.828125 27.9375 69.828125 
Q 33.0625 69.828125 37.0625 68.609375 
Q 41.0625 67.390625 43.8125 64.984375 
Q 46.578125 62.59375 48.046875 59.078125 
Q 49.515625 55.5625 49.515625 50.984375 
Q 49.515625 47.515625 48.265625 44.390625 
Q 47.015625 41.265625 44.9375 38.421875 
Q 42.875 35.59375 40.140625 32.953125 
Q 37.40625 30.328125 34.421875 27.8125 
Q 31.453125 25.296875 28.421875 22.828125 
Q 25.390625 20.359375 22.71875 17.859375 
Q 20.0625 15.375 17.96875 12.8125 
Q 15.875 10.25 14.703125 7.46875 
L 50.59375 7.46875 
L 50.59375 0 
z
" id="LiberationSans-50"/>
      </defs>
      <g transform="translate(380.5883 153.803125)scale(0.1 -0.1)">
       <use xlink:href="#LiberationSans-50"/>
       <use x="55.615234" xlink:href="#LiberationSans-48"/>
       <use x="111.230469" xlink:href="#LiberationSans-48"/>
       <use x="166.845703" xlink:href="#LiberationSans-48"/>
      </g>
     </g>
    </g>
    <g id="xtick_6">
     <g id="line2d_6">
      <g>
       <use style="stroke:#000000;stroke-width:0.8;" x="480.467015" xlink:href="#m220b95c1c8" y="139.55625"/>
      </g>
     </g>
     <g id="text_6">
      <!-- 2500 -->
      <g transform="translate(469.34514 153.803125)scale(0.1 -0.1)">
       <use xlink:href="#LiberationSans-50"/>
       <use x="55.615234" xlink:href="#LiberationSans-53"/>
       <use x="111.230469" xlink:href="#LiberationSans-48"/>
       <use x="166.845703" xlink:href="#LiberationSans-48"/>
      </g>
     </g>
    </g>
    <g id="text_7">
     <!-- Samples of Acetone -->
     <defs>
      <path d="M 62.109375 19 
Q 62.109375 14.65625 60.421875 10.984375 
Q 58.734375 7.328125 55.21875 4.65625 
Q 51.703125 2 46.359375 0.5 
Q 41.015625 -0.984375 33.6875 -0.984375 
Q 20.84375 -0.984375 13.671875 3.515625 
Q 6.5 8.015625 4.546875 16.5 
L 13.578125 18.3125 
Q 14.265625 15.625 15.671875 13.421875 
Q 17.09375 11.234375 19.5 9.640625 
Q 21.921875 8.0625 25.484375 7.171875 
Q 29.046875 6.296875 34.03125 6.296875 
Q 38.1875 6.296875 41.65625 7 
Q 45.125 7.71875 47.609375 9.171875 
Q 50.09375 10.640625 51.484375 12.953125 
Q 52.875 15.28125 52.875 18.5 
Q 52.875 21.875 51.34375 23.96875 
Q 49.8125 26.078125 47.015625 27.4375 
Q 44.234375 28.8125 40.375 29.734375 
Q 36.53125 30.671875 31.84375 31.734375 
Q 28.953125 32.375 26.046875 33.125 
Q 23.140625 33.890625 20.484375 34.9375 
Q 17.828125 35.984375 15.484375 37.390625 
Q 13.140625 38.8125 11.421875 40.796875 
Q 9.71875 42.78125 8.734375 45.390625 
Q 7.765625 48 7.765625 51.421875 
Q 7.765625 56.296875 9.734375 59.78125 
Q 11.71875 63.28125 15.234375 65.53125 
Q 18.75 67.78125 23.53125 68.796875 
Q 28.328125 69.828125 33.890625 69.828125 
Q 40.28125 69.828125 44.8125 68.828125 
Q 49.359375 67.828125 52.484375 65.8125 
Q 55.609375 63.8125 57.484375 60.859375 
Q 59.375 57.90625 60.5 54 
L 51.3125 52.390625 
Q 50.640625 54.890625 49.34375 56.84375 
Q 48.046875 58.796875 45.9375 60.109375 
Q 43.84375 61.421875 40.84375 62.109375 
Q 37.84375 62.796875 33.796875 62.796875 
Q 29 62.796875 25.75 61.9375 
Q 22.515625 61.078125 20.53125 59.609375 
Q 18.5625 58.15625 17.703125 56.171875 
Q 16.84375 54.203125 16.84375 51.90625 
Q 16.84375 48.828125 18.375 46.84375 
Q 19.921875 44.875 22.5625 43.546875 
Q 25.203125 42.234375 28.65625 41.359375 
Q 32.125 40.484375 36.03125 39.59375 
Q 39.203125 38.875 42.359375 38.109375 
Q 45.515625 37.359375 48.390625 36.296875 
Q 51.265625 35.25 53.78125 33.828125 
Q 56.296875 32.421875 58.15625 30.375 
Q 60.015625 28.328125 61.0625 25.53125 
Q 62.109375 22.75 62.109375 19 
z
" id="LiberationSans-83"/>
      <path d="M 20.21875 -0.984375 
Q 12.25 -0.984375 8.25 3.21875 
Q 4.25 7.421875 4.25 14.75 
Q 4.25 19.96875 6.21875 23.3125 
Q 8.203125 26.65625 11.390625 28.5625 
Q 14.59375 30.46875 18.6875 31.203125 
Q 22.796875 31.9375 27.046875 32.03125 
L 38.921875 32.234375 
L 38.921875 35.109375 
Q 38.921875 38.375 38.234375 40.671875 
Q 37.546875 42.96875 36.125 44.375 
Q 34.71875 45.796875 32.59375 46.453125 
Q 30.46875 47.125 27.59375 47.125 
Q 25.046875 47.125 23 46.75 
Q 20.953125 46.390625 19.4375 45.4375 
Q 17.921875 44.484375 16.984375 42.84375 
Q 16.0625 41.21875 15.765625 38.71875 
L 6.59375 39.546875 
Q 7.078125 42.671875 8.4375 45.28125 
Q 9.8125 47.90625 12.328125 49.796875 
Q 14.84375 51.703125 18.625 52.75 
Q 22.40625 53.8125 27.78125 53.8125 
Q 37.75 53.8125 42.765625 49.234375 
Q 47.796875 44.671875 47.796875 36.03125 
L 47.796875 13.28125 
Q 47.796875 9.375 48.828125 7.390625 
Q 49.859375 5.421875 52.734375 5.421875 
Q 53.46875 5.421875 54.203125 5.515625 
Q 54.9375 5.609375 55.609375 5.765625 
L 55.609375 0.296875 
Q 53.953125 -0.09375 52.3125 -0.28125 
Q 50.6875 -0.484375 48.828125 -0.484375 
Q 46.34375 -0.484375 44.5625 0.171875 
Q 42.78125 0.828125 41.65625 2.171875 
Q 40.53125 3.515625 39.9375 5.484375 
Q 39.359375 7.46875 39.203125 10.109375 
L 38.921875 10.109375 
Q 37.5 7.5625 35.8125 5.515625 
Q 34.125 3.46875 31.875 2.03125 
Q 29.640625 0.59375 26.78125 -0.1875 
Q 23.921875 -0.984375 20.21875 -0.984375 
z
M 22.21875 5.609375 
Q 26.421875 5.609375 29.5625 7.140625 
Q 32.71875 8.6875 34.78125 11.078125 
Q 36.859375 13.484375 37.890625 16.3125 
Q 38.921875 19.140625 38.921875 21.734375 
L 38.921875 26.078125 
L 29.296875 25.875 
Q 26.078125 25.828125 23.171875 25.40625 
Q 20.265625 25 18.0625 23.78125 
Q 15.875 22.5625 14.578125 20.359375 
Q 13.28125 18.171875 13.28125 14.59375 
Q 13.28125 10.296875 15.59375 7.953125 
Q 17.921875 5.609375 22.21875 5.609375 
z
" id="LiberationSans-97"/>
      <path d="M 37.5 0 
L 37.5 33.5 
Q 37.5 37.359375 37.015625 39.9375 
Q 36.53125 42.53125 35.375 44.109375 
Q 34.234375 45.703125 32.375 46.359375 
Q 30.515625 47.015625 27.828125 47.015625 
Q 25.046875 47.015625 22.796875 45.921875 
Q 20.5625 44.828125 18.96875 42.75 
Q 17.390625 40.671875 16.53125 37.625 
Q 15.671875 34.578125 15.671875 30.609375 
L 15.671875 0 
L 6.9375 0 
L 6.9375 41.546875 
Q 6.9375 43.21875 6.90625 45.046875 
Q 6.890625 46.875 6.828125 48.5 
Q 6.78125 50.140625 6.734375 51.3125 
Q 6.6875 52.484375 6.640625 52.828125 
L 14.9375 52.828125 
Q 14.984375 52.59375 15.03125 51.515625 
Q 15.09375 50.4375 15.15625 49.046875 
Q 15.234375 47.65625 15.28125 46.21875 
Q 15.328125 44.78125 15.328125 43.796875 
L 15.484375 43.796875 
Q 16.65625 46.09375 18.015625 47.953125 
Q 19.390625 49.8125 21.21875 51.09375 
Q 23.046875 52.390625 25.40625 53.09375 
Q 27.78125 53.8125 30.90625 53.8125 
Q 36.921875 53.8125 40.40625 51.421875 
Q 43.890625 49.03125 45.265625 43.796875 
L 45.40625 43.796875 
Q 46.578125 46.09375 48.046875 47.953125 
Q 49.515625 49.8125 51.46875 51.09375 
Q 53.421875 52.390625 55.859375 53.09375 
Q 58.296875 53.8125 61.421875 53.8125 
Q 65.4375 53.8125 68.328125 52.734375 
Q 71.234375 51.65625 73.09375 49.40625 
Q 74.953125 47.171875 75.828125 43.625 
Q 76.703125 40.09375 76.703125 35.203125 
L 76.703125 0 
L 68.015625 0 
L 68.015625 33.5 
Q 68.015625 37.359375 67.53125 39.9375 
Q 67.046875 42.53125 65.890625 44.109375 
Q 64.75 45.703125 62.890625 46.359375 
Q 61.03125 47.015625 58.34375 47.015625 
Q 55.5625 47.015625 53.3125 45.96875 
Q 51.078125 44.921875 49.484375 42.875 
Q 47.90625 40.828125 47.046875 37.75 
Q 46.1875 34.671875 46.1875 30.609375 
L 46.1875 0 
z
" id="LiberationSans-109"/>
      <path d="M 51.421875 26.65625 
Q 51.421875 20.65625 50.4375 15.578125 
Q 49.46875 10.5 47.1875 6.828125 
Q 44.921875 3.171875 41.1875 1.09375 
Q 37.453125 -0.984375 31.984375 -0.984375 
Q 26.3125 -0.984375 22.0625 1.171875 
Q 17.828125 3.328125 15.578125 8.203125 
L 15.328125 8.203125 
Q 15.375 8.109375 15.40625 7.328125 
Q 15.4375 6.546875 15.453125 5.375 
Q 15.484375 4.203125 15.5 2.75 
Q 15.53125 1.3125 15.53125 -0.09375 
L 15.53125 -20.75 
L 6.734375 -20.75 
L 6.734375 42.046875 
Q 6.734375 43.953125 6.703125 45.703125 
Q 6.6875 47.46875 6.640625 48.90625 
Q 6.59375 50.34375 6.546875 51.359375 
Q 6.5 52.390625 6.453125 52.828125 
L 14.9375 52.828125 
Q 14.984375 52.6875 15.0625 51.796875 
Q 15.140625 50.921875 15.203125 49.671875 
Q 15.28125 48.4375 15.359375 47.015625 
Q 15.4375 45.609375 15.4375 44.34375 
L 15.625 44.34375 
Q 16.84375 46.875 18.40625 48.65625 
Q 19.96875 50.4375 21.96875 51.578125 
Q 23.96875 52.734375 26.4375 53.25 
Q 28.90625 53.765625 31.984375 53.765625 
Q 37.453125 53.765625 41.1875 51.8125 
Q 44.921875 49.859375 47.1875 46.3125 
Q 49.46875 42.78125 50.4375 37.765625 
Q 51.421875 32.765625 51.421875 26.65625 
z
M 42.1875 26.46875 
Q 42.1875 31.34375 41.59375 35.15625 
Q 41.015625 38.96875 39.578125 41.59375 
Q 38.140625 44.234375 35.734375 45.59375 
Q 33.34375 46.96875 29.734375 46.96875 
Q 26.8125 46.96875 24.21875 46.140625 
Q 21.625 45.3125 19.703125 42.96875 
Q 17.78125 40.625 16.65625 36.5 
Q 15.53125 32.375 15.53125 25.78125 
Q 15.53125 20.171875 16.453125 16.28125 
Q 17.390625 12.40625 19.171875 10.015625 
Q 20.953125 7.625 23.578125 6.5625 
Q 26.21875 5.515625 29.640625 5.515625 
Q 33.296875 5.515625 35.71875 6.921875 
Q 38.140625 8.34375 39.578125 11.03125 
Q 41.015625 13.71875 41.59375 17.59375 
Q 42.1875 21.484375 42.1875 26.46875 
z
" id="LiberationSans-112"/>
      <path d="M 6.734375 0 
L 6.734375 72.46875 
L 15.53125 72.46875 
L 15.53125 0 
z
" id="LiberationSans-108"/>
      <path d="M 13.484375 24.5625 
Q 13.484375 20.40625 14.328125 16.90625 
Q 15.1875 13.421875 16.96875 10.90625 
Q 18.75 8.40625 21.53125 7 
Q 24.3125 5.609375 28.21875 5.609375 
Q 33.9375 5.609375 37.375 7.90625 
Q 40.828125 10.203125 42.046875 13.71875 
L 49.75 11.53125 
Q 48.921875 9.328125 47.4375 7.109375 
Q 45.953125 4.890625 43.453125 3.09375 
Q 40.96875 1.3125 37.234375 0.15625 
Q 33.5 -0.984375 28.21875 -0.984375 
Q 16.5 -0.984375 10.375 6 
Q 4.25 12.984375 4.25 26.765625 
Q 4.25 34.1875 6.09375 39.328125 
Q 7.953125 44.484375 11.171875 47.703125 
Q 14.40625 50.921875 18.703125 52.359375 
Q 23 53.8125 27.875 53.8125 
Q 34.515625 53.8125 38.984375 51.65625 
Q 43.453125 49.515625 46.15625 45.71875 
Q 48.875 41.9375 50.015625 36.8125 
Q 51.171875 31.6875 51.171875 25.734375 
L 51.171875 24.5625 
z
M 42.09375 31.296875 
Q 41.359375 39.65625 37.84375 43.484375 
Q 34.328125 47.3125 27.734375 47.3125 
Q 25.53125 47.3125 23.109375 46.609375 
Q 20.703125 45.90625 18.65625 44.09375 
Q 16.609375 42.28125 15.1875 39.171875 
Q 13.765625 36.078125 13.578125 31.296875 
z
" id="LiberationSans-101"/>
      <path d="M 46.390625 14.59375 
Q 46.390625 10.890625 44.9375 7.984375 
Q 43.5 5.078125 40.765625 3.09375 
Q 38.03125 1.125 34.046875 0.0625 
Q 30.078125 -0.984375 24.953125 -0.984375 
Q 20.359375 -0.984375 16.671875 -0.265625 
Q 12.984375 0.4375 10.203125 2 
Q 7.421875 3.5625 5.53125 6.125 
Q 3.65625 8.6875 2.78125 12.40625 
L 10.546875 13.921875 
Q 11.671875 9.671875 15.1875 7.6875 
Q 18.703125 5.71875 24.953125 5.71875 
Q 27.78125 5.71875 30.140625 6.109375 
Q 32.515625 6.5 34.21875 7.453125 
Q 35.9375 8.40625 36.890625 9.984375 
Q 37.84375 11.578125 37.84375 13.921875 
Q 37.84375 16.3125 36.71875 17.84375 
Q 35.59375 19.390625 33.59375 20.40625 
Q 31.59375 21.4375 28.734375 22.1875 
Q 25.875 22.953125 22.46875 23.875 
Q 19.28125 24.703125 16.15625 25.734375 
Q 13.03125 26.765625 10.515625 28.4375 
Q 8.015625 30.125 6.453125 32.609375 
Q 4.890625 35.109375 4.890625 38.875 
Q 4.890625 46.09375 10.03125 49.875 
Q 15.1875 53.65625 25.046875 53.65625 
Q 33.796875 53.65625 38.9375 50.578125 
Q 44.09375 47.515625 45.453125 40.71875 
L 37.546875 39.75 
Q 37.109375 41.796875 35.9375 43.1875 
Q 34.765625 44.578125 33.109375 45.4375 
Q 31.453125 46.296875 29.375 46.65625 
Q 27.296875 47.015625 25.046875 47.015625 
Q 19.09375 47.015625 16.25 45.203125 
Q 13.421875 43.40625 13.421875 39.75 
Q 13.421875 37.59375 14.46875 36.203125 
Q 15.53125 34.8125 17.40625 33.859375 
Q 19.28125 32.90625 21.921875 32.203125 
Q 24.5625 31.5 27.734375 30.71875 
Q 29.828125 30.171875 32.03125 29.5625 
Q 34.234375 28.953125 36.296875 28.09375 
Q 38.375 27.25 40.203125 26.09375 
Q 42.046875 24.953125 43.40625 23.34375 
Q 44.78125 21.734375 45.578125 19.578125 
Q 46.390625 17.4375 46.390625 14.59375 
z
" id="LiberationSans-115"/>
      <path id="LiberationSans-32"/>
      <path d="M 51.421875 26.46875 
Q 51.421875 12.59375 45.3125 5.796875 
Q 39.203125 -0.984375 27.59375 -0.984375 
Q 22.078125 -0.984375 17.71875 0.671875 
Q 13.375 2.34375 10.375 5.765625 
Q 7.375 9.1875 5.78125 14.328125 
Q 4.203125 19.484375 4.203125 26.46875 
Q 4.203125 53.8125 27.875 53.8125 
Q 34.03125 53.8125 38.5 52.09375 
Q 42.96875 50.390625 45.828125 46.96875 
Q 48.6875 43.5625 50.046875 38.421875 
Q 51.421875 33.296875 51.421875 26.46875 
z
M 42.1875 26.46875 
Q 42.1875 32.625 41.234375 36.625 
Q 40.28125 40.625 38.453125 43.015625 
Q 36.625 45.40625 33.984375 46.359375 
Q 31.34375 47.3125 28.03125 47.3125 
Q 24.65625 47.3125 21.9375 46.3125 
Q 19.234375 45.3125 17.328125 42.890625 
Q 15.4375 40.484375 14.421875 36.46875 
Q 13.421875 32.46875 13.421875 26.46875 
Q 13.421875 20.3125 14.5 16.28125 
Q 15.578125 12.25 17.453125 9.859375 
Q 19.34375 7.46875 21.90625 6.484375 
Q 24.46875 5.515625 27.484375 5.515625 
Q 30.859375 5.515625 33.59375 6.46875 
Q 36.328125 7.421875 38.234375 9.8125 
Q 40.140625 12.203125 41.15625 16.25 
Q 42.1875 20.3125 42.1875 26.46875 
z
" id="LiberationSans-111"/>
      <path d="M 17.625 46.4375 
L 17.625 0 
L 8.84375 0 
L 8.84375 46.4375 
L 1.421875 46.4375 
L 1.421875 52.828125 
L 8.84375 52.828125 
L 8.84375 58.796875 
Q 8.84375 61.671875 9.375 64.140625 
Q 9.90625 66.609375 11.34375 68.4375 
Q 12.796875 70.265625 15.28125 71.3125 
Q 17.78125 72.359375 21.734375 72.359375 
Q 23.296875 72.359375 24.96875 72.21875 
Q 26.65625 72.078125 27.9375 71.78125 
L 27.9375 65.09375 
Q 27.09375 65.234375 26 65.359375 
Q 24.90625 65.484375 24.03125 65.484375 
Q 22.078125 65.484375 20.828125 64.9375 
Q 19.578125 64.40625 18.875 63.40625 
Q 18.171875 62.40625 17.890625 60.9375 
Q 17.625 59.46875 17.625 57.5625 
L 17.625 52.828125 
L 27.9375 52.828125 
L 27.9375 46.4375 
z
" id="LiberationSans-102"/>
      <path d="M 56.984375 0 
L 49.125 20.125 
L 17.78125 20.125 
L 9.859375 0 
L 0.203125 0 
L 28.265625 68.796875 
L 38.875 68.796875 
L 66.5 0 
z
M 37.5 50.09375 
Q 36.71875 52.046875 36 54.046875 
Q 35.296875 56.0625 34.765625 57.6875 
Q 34.234375 59.328125 33.859375 60.421875 
Q 33.5 61.53125 33.453125 61.765625 
Q 33.34375 61.53125 33 60.40625 
Q 32.671875 59.28125 32.109375 57.609375 
Q 31.546875 55.953125 30.828125 53.953125 
Q 30.125 51.953125 29.390625 50 
L 20.609375 27.390625 
L 46.34375 27.390625 
z
" id="LiberationSans-65"/>
      <path d="M 13.421875 26.65625 
Q 13.421875 22.125 14.078125 18.3125 
Q 14.75 14.5 16.3125 11.734375 
Q 17.875 8.984375 20.4375 7.46875 
Q 23 5.953125 26.765625 5.953125 
Q 31.453125 5.953125 34.59375 8.484375 
Q 37.75 11.03125 38.484375 16.3125 
L 47.359375 15.71875 
Q 46.921875 12.453125 45.453125 9.421875 
Q 44 6.390625 41.484375 4.09375 
Q 38.96875 1.8125 35.34375 0.40625 
Q 31.734375 -0.984375 27 -0.984375 
Q 20.796875 -0.984375 16.453125 1.109375 
Q 12.109375 3.21875 9.390625 6.90625 
Q 6.6875 10.59375 5.46875 15.59375 
Q 4.25 20.609375 4.25 26.46875 
Q 4.25 31.78125 5.125 35.859375 
Q 6 39.9375 7.59375 42.984375 
Q 9.1875 46.046875 11.328125 48.125 
Q 13.484375 50.203125 15.984375 51.4375 
Q 18.5 52.6875 21.28125 53.25 
Q 24.078125 53.8125 26.90625 53.8125 
Q 31.34375 53.8125 34.8125 52.59375 
Q 38.28125 51.375 40.796875 49.25 
Q 43.3125 47.125 44.875 44.234375 
Q 46.4375 41.359375 47.078125 38.03125 
L 38.03125 37.359375 
Q 37.359375 41.75 34.5625 44.328125 
Q 31.78125 46.921875 26.65625 46.921875 
Q 22.90625 46.921875 20.390625 45.671875 
Q 17.875 44.4375 16.3125 41.921875 
Q 14.75 39.40625 14.078125 35.59375 
Q 13.421875 31.78125 13.421875 26.65625 
z
" id="LiberationSans-99"/>
      <path d="M 27.046875 0.390625 
Q 25.046875 -0.140625 22.96875 -0.453125 
Q 20.90625 -0.78125 18.171875 -0.78125 
Q 7.625 -0.78125 7.625 11.1875 
L 7.625 46.4375 
L 1.515625 46.4375 
L 1.515625 52.828125 
L 7.953125 52.828125 
L 10.546875 64.65625 
L 16.40625 64.65625 
L 16.40625 52.828125 
L 26.171875 52.828125 
L 26.171875 46.4375 
L 16.40625 46.4375 
L 16.40625 13.09375 
Q 16.40625 9.28125 17.640625 7.734375 
Q 18.890625 6.203125 21.96875 6.203125 
Q 23.25 6.203125 24.4375 6.390625 
Q 25.640625 6.59375 27.046875 6.890625 
z
" id="LiberationSans-116"/>
      <path d="M 40.28125 0 
L 40.28125 33.5 
Q 40.28125 37.359375 39.71875 39.9375 
Q 39.15625 42.53125 37.890625 44.109375 
Q 36.625 45.703125 34.546875 46.359375 
Q 32.46875 47.015625 29.390625 47.015625 
Q 26.265625 47.015625 23.75 45.921875 
Q 21.234375 44.828125 19.453125 42.75 
Q 17.671875 40.671875 16.6875 37.625 
Q 15.71875 34.578125 15.71875 30.609375 
L 15.71875 0 
L 6.9375 0 
L 6.9375 41.546875 
Q 6.9375 43.21875 6.90625 45.046875 
Q 6.890625 46.875 6.828125 48.5 
Q 6.78125 50.140625 6.734375 51.3125 
Q 6.6875 52.484375 6.640625 52.828125 
L 14.9375 52.828125 
Q 14.984375 52.59375 15.03125 51.515625 
Q 15.09375 50.4375 15.15625 49.046875 
Q 15.234375 47.65625 15.28125 46.21875 
Q 15.328125 44.78125 15.328125 43.796875 
L 15.484375 43.796875 
Q 16.75 46.09375 18.265625 47.953125 
Q 19.78125 49.8125 21.78125 51.09375 
Q 23.78125 52.390625 26.359375 53.09375 
Q 28.953125 53.8125 32.375 53.8125 
Q 36.765625 53.8125 39.9375 52.734375 
Q 43.109375 51.65625 45.15625 49.40625 
Q 47.21875 47.171875 48.171875 43.625 
Q 49.125 40.09375 49.125 35.203125 
L 49.125 0 
z
" id="LiberationSans-110"/>
     </defs>
     <g transform="translate(219.784258 167.125)scale(0.1 -0.1)">
      <use xlink:href="#LiberationSans-83"/>
      <use x="66.699219" xlink:href="#LiberationSans-97"/>
      <use x="122.314453" xlink:href="#LiberationSans-109"/>
      <use x="205.615234" xlink:href="#LiberationSans-112"/>
      <use x="261.230469" xlink:href="#LiberationSans-108"/>
      <use x="283.447266" xlink:href="#LiberationSans-101"/>
      <use x="339.0625" xlink:href="#LiberationSans-115"/>
      <use x="389.0625" xlink:href="#LiberationSans-32"/>
      <use x="416.845703" xlink:href="#LiberationSans-111"/>
      <use x="472.460938" xlink:href="#LiberationSans-102"/>
      <use x="500.244141" xlink:href="#LiberationSans-32"/>
      <use x="522.527344" xlink:href="#LiberationSans-65"/>
      <use x="589.226562" xlink:href="#LiberationSans-99"/>
      <use x="639.226562" xlink:href="#LiberationSans-101"/>
      <use x="694.841797" xlink:href="#LiberationSans-116"/>
      <use x="722.625" xlink:href="#LiberationSans-111"/>
      <use x="778.240234" xlink:href="#LiberationSans-110"/>
      <use x="833.855469" xlink:href="#LiberationSans-101"/>
     </g>
    </g>
   </g>
   <g id="matplotlib.axis_2">
    <g id="ytick_1">
     <g id="line2d_7">
      <defs>
       <path d="M 0 0 
L -3.5 0 
" id="m3e795b9287" style="stroke:#000000;stroke-width:0.8;"/>
      </defs>
      <g>
       <use style="stroke:#000000;stroke-width:0.8;" x="36.682813" xlink:href="#m3e795b9287" y="106.699274"/>
      </g>
     </g>
     <g id="text_8">
      <!-- 0 -->
      <g transform="translate(24.121875 110.322712)scale(0.1 -0.1)">
       <use xlink:href="#LiberationSans-48"/>
      </g>
     </g>
    </g>
    <g id="ytick_2">
     <g id="line2d_8">
      <g>
       <use style="stroke:#000000;stroke-width:0.8;" x="36.682813" xlink:href="#m3e795b9287" y="71.939428"/>
      </g>
     </g>
     <g id="text_9">
      <!-- 1 -->
      <g transform="translate(24.121875 75.562866)scale(0.1 -0.1)">
       <use xlink:href="#LiberationSans-49"/>
      </g>
     </g>
    </g>
    <g id="ytick_3">
     <g id="line2d_9">
      <g>
       <use style="stroke:#000000;stroke-width:0.8;" x="36.682813" xlink:href="#m3e795b9287" y="37.179582"/>
      </g>
     </g>
     <g id="text_10">
      <!-- 2 -->
      <g transform="translate(24.121875 40.80302)scale(0.1 -0.1)">
       <use xlink:href="#LiberationSans-50"/>
      </g>
     </g>
    </g>
    <g id="text_11">
     <!-- Feature 1 Z-score -->
     <defs>
      <path d="M 17.53125 61.1875 
L 17.53125 35.59375 
L 55.90625 35.59375 
L 55.90625 27.875 
L 17.53125 27.875 
L 17.53125 0 
L 8.203125 0 
L 8.203125 68.796875 
L 57.078125 68.796875 
L 57.078125 61.1875 
z
" id="LiberationSans-70"/>
      <path d="M 15.328125 52.828125 
L 15.328125 19.34375 
Q 15.328125 15.484375 15.890625 12.890625 
Q 16.453125 10.296875 17.71875 8.703125 
Q 19 7.125 21.0625 6.46875 
Q 23.140625 5.8125 26.21875 5.8125 
Q 29.34375 5.8125 31.859375 6.90625 
Q 34.375 8.015625 36.15625 10.078125 
Q 37.9375 12.15625 38.90625 15.203125 
Q 39.890625 18.265625 39.890625 22.21875 
L 39.890625 52.828125 
L 48.6875 52.828125 
L 48.6875 11.28125 
Q 48.6875 9.625 48.703125 7.78125 
Q 48.734375 5.953125 48.78125 4.3125 
Q 48.828125 2.6875 48.875 1.515625 
Q 48.921875 0.34375 48.96875 0 
L 40.671875 0 
Q 40.625 0.25 40.578125 1.3125 
Q 40.53125 2.390625 40.453125 3.78125 
Q 40.375 5.171875 40.328125 6.609375 
Q 40.28125 8.0625 40.28125 9.03125 
L 40.140625 9.03125 
Q 38.875 6.734375 37.359375 4.875 
Q 35.84375 3.03125 33.84375 1.734375 
Q 31.84375 0.4375 29.25 -0.265625 
Q 26.65625 -0.984375 23.25 -0.984375 
Q 18.84375 -0.984375 15.671875 0.09375 
Q 12.5 1.171875 10.453125 3.421875 
Q 8.40625 5.671875 7.453125 9.1875 
Q 6.5 12.703125 6.5 17.625 
L 6.5 52.828125 
z
" id="LiberationSans-117"/>
      <path d="M 6.9375 0 
L 6.9375 40.53125 
Q 6.9375 42.1875 6.90625 43.921875 
Q 6.890625 45.65625 6.828125 47.265625 
Q 6.78125 48.875 6.734375 50.28125 
Q 6.6875 51.703125 6.640625 52.828125 
L 14.9375 52.828125 
Q 14.984375 51.703125 15.0625 50.265625 
Q 15.140625 48.828125 15.203125 47.3125 
Q 15.28125 45.796875 15.296875 44.40625 
Q 15.328125 43.015625 15.328125 42.046875 
L 15.53125 42.046875 
Q 16.453125 45.0625 17.5 47.28125 
Q 18.5625 49.515625 19.96875 50.953125 
Q 21.390625 52.390625 23.34375 53.09375 
Q 25.296875 53.8125 28.078125 53.8125 
Q 29.15625 53.8125 30.125 53.640625 
Q 31.109375 53.46875 31.640625 53.328125 
L 31.640625 45.265625 
Q 30.765625 45.515625 29.59375 45.625 
Q 28.421875 45.75 26.953125 45.75 
Q 23.921875 45.75 21.796875 44.375 
Q 19.671875 43.015625 18.328125 40.59375 
Q 17 38.1875 16.359375 34.84375 
Q 15.71875 31.5 15.71875 27.546875 
L 15.71875 0 
z
" id="LiberationSans-114"/>
      <path d="M 57.953125 0 
L 3.171875 0 
L 3.171875 6.984375 
L 45.0625 61.1875 
L 6.734375 61.1875 
L 6.734375 68.796875 
L 55.671875 68.796875 
L 55.671875 62.015625 
L 13.765625 7.625 
L 57.953125 7.625 
z
" id="LiberationSans-90"/>
      <path d="M 4.4375 22.65625 
L 4.4375 30.46875 
L 28.859375 30.46875 
L 28.859375 22.65625 
z
" id="LiberationSans-45"/>
     </defs>
     <g transform="translate(18.046875 114.910938)rotate(-90)scale(0.1 -0.1)">
      <use xlink:href="#LiberationSans-70"/>
      <use x="61.083984" xlink:href="#LiberationSans-101"/>
      <use x="116.699219" xlink:href="#LiberationSans-97"/>
      <use x="172.314453" xlink:href="#LiberationSans-116"/>
      <use x="200.097656" xlink:href="#LiberationSans-117"/>
      <use x="255.712891" xlink:href="#LiberationSans-114"/>
      <use x="289.013672" xlink:href="#LiberationSans-101"/>
      <use x="344.628906" xlink:href="#LiberationSans-32"/>
      <use x="372.412109" xlink:href="#LiberationSans-49"/>
      <use x="428.027344" xlink:href="#LiberationSans-32"/>
      <use x="455.810547" xlink:href="#LiberationSans-90"/>
      <use x="516.894531" xlink:href="#LiberationSans-45"/>
      <use x="550.195312" xlink:href="#LiberationSans-115"/>
      <use x="600.195312" xlink:href="#LiberationSans-99"/>
      <use x="650.195312" xlink:href="#LiberationSans-111"/>
      <use x="705.810547" xlink:href="#LiberationSans-114"/>
      <use x="739.111328" xlink:href="#LiberationSans-101"/>
     </g>
    </g>
   </g>
   <g id="line2d_10">
    <path clip-path="url(#p3384a1d511)" d="M 36.682813 124.03827 
L 37.392867 102.859039 
L 37.747895 84.528889 
L 38.635463 55.544337 
L 38.99049 46.683195 
L 39.168004 122.596913 
L 39.700545 105.38251 
L 39.878059 101.17063 
L 40.4106 77.495679 
L 41.120655 56.184472 
L 41.475682 46.762369 
L 41.653196 123.088977 
L 42.185737 105.685414 
L 42.36325 101.39442 
L 42.895791 77.450355 
L 43.605846 54.993303 
L 43.960873 45.813977 
L 44.138387 122.819603 
L 44.493414 109.852634 
L 44.670928 108.520538 
L 45.73601 65.697215 
L 46.446065 48.031555 
L 46.623579 121.625883 
L 47.15612 104.112656 
L 47.333633 100.356874 
L 47.866174 76.516674 
L 48.576229 55.004861 
L 48.931256 46.524484 
L 49.10877 122.236744 
L 49.641311 104.718613 
L 49.818825 100.515189 
L 50.351366 77.892016 
L 51.238934 52.769498 
L 51.416448 48.549509 
L 51.593962 78.846341 
L 51.771475 52.689919 
L 51.948989 95.604951 
L 52.126503 37.207632 
L 52.304016 35.314529 
L 52.48153 129.535477 
L 52.836557 109.78225 
L 53.014071 97.572897 
L 53.191585 97.642418 
L 53.369099 93.762351 
L 53.724126 74.491434 
L 54.434181 46.984565 
L 54.966722 31.084285 
L 55.144235 120.485889 
L 55.676776 97.089122 
L 55.85429 92.774561 
L 56.386831 65.703517 
L 57.096886 39.492512 
L 57.451913 29.367169 
L 57.629427 120.32601 
L 58.161968 96.319692 
L 58.339482 92.668645 
L 58.694509 73.015799 
L 59.404564 45.033786 
L 59.937105 29.136068 
L 60.114618 119.530856 
L 60.647159 96.648513 
L 60.824673 92.419563 
L 61.357214 64.616565 
L 62.067269 39.257965 
L 62.422296 29.124501 
L 62.59981 119.805174 
L 63.132351 97.040364 
L 63.309865 92.530645 
L 63.842406 64.415214 
L 64.55246 39.253399 
L 64.907488 28.745545 
L 65.085001 129.334572 
L 65.262515 131.929621 
L 65.440029 125.213671 
L 65.617543 124.854508 
L 65.795056 119.522345 
L 66.150084 133.703693 
L 66.327597 131.317044 
L 66.505111 131.944025 
L 66.682625 132.057946 
L 66.860138 131.707716 
L 67.392679 131.995047 
L 67.570193 131.759953 
L 67.747707 131.836128 
L 67.92522 116.444734 
L 68.102734 116.163753 
L 68.635275 92.85638 
L 68.812789 86.714898 
L 69.34533 53.810701 
L 70.055385 23.116158 
L 70.232898 16.652557 
L 70.410412 116.555675 
L 70.942953 92.316684 
L 71.120467 86.212973 
L 71.653008 53.648005 
L 72.540576 16.773558 
L 72.71809 116.408208 
L 73.250631 92.377272 
L 73.428144 86.516737 
L 73.960686 54.561223 
L 74.67074 24.927415 
L 74.848254 18.505118 
L 75.025768 116.48737 
L 75.558309 93.160687 
L 75.735822 87.245734 
L 76.268363 55.331147 
L 76.978418 25.3225 
L 77.155932 19.345991 
L 77.333445 116.680285 
L 77.865987 92.742603 
L 78.0435 86.710397 
L 78.576041 54.870506 
L 79.286096 24.515787 
L 79.46361 18.087219 
L 79.641123 47.271933 
L 79.818637 44.260991 
L 79.996151 77.766962 
L 80.173664 68.216402 
L 80.351178 69.425242 
L 80.528692 72.227302 
L 80.706205 84.733323 
L 80.883719 83.008208 
L 81.061233 98.037612 
L 81.238746 97.717624 
L 81.41626 50.161045 
L 81.593774 60.916949 
L 81.771288 60.965373 
L 81.948801 60.210791 
L 82.303829 66.595206 
L 82.658856 65.763403 
L 82.83637 66.063556 
L 83.013883 65.796966 
L 83.191397 65.873435 
L 83.368911 66.251668 
L 83.723938 65.71301 
L 83.901452 66.510771 
L 84.078965 65.928055 
L 84.256479 65.787034 
L 84.433993 66.192215 
L 84.611506 65.82041 
L 84.78902 65.707633 
L 84.966534 66.317731 
L 85.144047 65.776648 
L 85.321561 65.683612 
L 85.499075 66.383837 
L 85.676588 65.803914 
L 85.854102 65.787108 
L 86.031616 73.650096 
L 86.20913 72.960268 
L 86.386643 71.707353 
L 86.564157 75.054091 
L 86.919184 74.622019 
L 87.274212 74.420945 
L 87.629239 74.464392 
L 87.806753 74.546449 
L 87.984266 74.247781 
L 88.16178 74.647405 
L 88.339294 74.292092 
L 88.516807 74.600941 
L 88.694321 74.38309 
L 88.871835 74.512443 
L 89.049348 74.421051 
L 89.404376 74.549105 
L 89.581889 74.427404 
L 89.759403 74.608708 
L 89.936917 74.370348 
L 90.114431 74.799811 
L 90.291944 83.292275 
L 90.646972 80.458257 
L 90.824485 83.259916 
L 91.179513 82.560813 
L 91.357026 82.804031 
L 91.53454 82.67761 
L 91.889567 82.937291 
L 92.067081 82.723858 
L 92.244595 82.747883 
L 92.422108 82.979074 
L 92.777136 82.85576 
L 92.954649 82.872802 
L 93.132163 82.756731 
L 93.48719 82.742111 
L 94.019732 82.675579 
L 94.374759 82.857229 
L 94.552273 92.924219 
L 94.9073 91.110278 
L 95.084814 93.110153 
L 95.439841 92.932212 
L 95.794868 92.750751 
L 96.327409 92.818135 
L 96.682437 92.887033 
L 96.85995 92.891705 
L 97.037464 92.740189 
L 97.392491 92.897736 
L 97.747519 92.930126 
L 98.102546 92.727942 
L 98.28006 92.87465 
L 98.457574 92.822561 
L 98.635087 92.906305 
L 98.812601 105.027072 
L 98.990115 105.093002 
L 99.167628 104.156515 
L 99.345142 105.590469 
L 99.522656 105.625309 
L 99.877683 105.49365 
L 101.297792 105.374287 
L 101.65282 105.497901 
L 102.540388 105.392704 
L 102.717902 105.481187 
L 102.895416 105.430644 
L 103.072929 95.463741 
L 103.250443 96.953311 
L 103.427957 95.764396 
L 103.60547 97.413476 
L 103.782984 97.457312 
L 104.493039 97.057807 
L 104.848066 97.218645 
L 105.203093 97.214856 
L 105.558121 97.207857 
L 105.735634 97.218873 
L 105.913148 97.351837 
L 106.97823 97.179018 
L 107.155744 97.291934 
L 107.333258 86.957728 
L 107.510771 84.056057 
L 107.688285 83.538275 
L 107.865799 85.988676 
L 108.220826 85.786336 
L 108.39834 85.404118 
L 108.575853 85.760806 
L 109.108394 85.529237 
L 109.285908 85.679339 
L 109.463422 85.61689 
L 109.995963 85.776592 
L 110.528504 85.650284 
L 110.883531 85.720546 
L 111.061045 85.745552 
L 111.238559 85.599508 
L 111.416072 85.711697 
L 111.593586 75.362394 
L 111.948613 74.06416 
L 112.126127 77.132442 
L 112.658668 76.545053 
L 113.013695 76.636313 
L 113.191209 76.637503 
L 113.368723 76.932621 
L 114.611319 77.349158 
L 114.788832 77.171458 
L 114.966346 77.165648 
L 115.498887 77.360016 
L 115.676401 77.283905 
L 115.853914 69.000875 
L 116.031428 68.768603 
L 116.208942 68.009893 
L 116.386455 71.408819 
L 116.563969 71.032807 
L 116.741483 70.976521 
L 117.09651 70.528381 
L 117.274024 70.5601 
L 117.451537 70.40015 
L 117.806565 70.608616 
L 117.984078 70.502601 
L 118.161592 70.696871 
L 118.339106 70.468702 
L 119.049161 70.54974 
L 119.226674 70.393181 
L 119.404188 70.550381 
L 119.581702 70.449468 
L 119.936729 70.50352 
L 120.114243 115.409209 
L 120.291756 114.622111 
L 120.46927 112.961407 
L 120.646784 113.913432 
L 121.001811 114.143273 
L 121.711866 114.069887 
L 122.599434 114.171322 
L 122.954462 114.048194 
L 124.197057 114.08799 
L 124.374571 115.356512 
L 124.729598 111.329248 
L 125.084626 112.557345 
L 125.79468 112.502641 
L 125.972194 112.42081 
L 126.682249 112.599249 
L 127.21479 112.35484 
L 128.102358 112.394127 
L 128.457386 112.444232 
L 128.634899 63.782377 
L 128.812413 63.394876 
L 128.989927 62.64842 
L 129.16744 66.065448 
L 129.877495 65.242116 
L 130.232522 65.502073 
L 130.410036 65.091354 
L 130.765064 65.249633 
L 130.942577 65.032344 
L 131.120091 65.038367 
L 131.297605 65.247735 
L 131.475118 65.116404 
L 131.652632 65.297259 
L 131.830146 65.15918 
L 132.007659 65.22585 
L 132.185173 65.037045 
L 132.5402 65.149068 
L 132.717714 65.10509 
L 132.895228 71.10774 
L 133.250255 70.039952 
L 133.427769 73.067699 
L 133.605282 73.077821 
L 133.782796 72.923982 
L 133.96031 72.505202 
L 134.315337 72.246209 
L 134.492851 72.02563 
L 134.847878 72.361882 
L 135.557933 72.340315 
L 135.735447 72.440768 
L 135.91296 72.385858 
L 136.090474 72.562687 
L 136.267988 72.529735 
L 136.445501 72.336304 
L 136.623015 72.515919 
L 136.800529 72.381286 
L 136.978042 72.524997 
L 137.155556 79.849106 
L 137.33307 78.409809 
L 137.510583 78.312538 
L 137.688097 80.971524 
L 137.865611 80.893789 
L 138.043124 80.51366 
L 138.930693 80.300359 
L 139.28572 80.413884 
L 139.995775 80.263069 
L 140.173289 80.338508 
L 140.350802 80.258045 
L 140.528316 80.40707 
L 140.70583 80.170946 
L 141.060857 80.470426 
L 141.238371 80.262125 
L 141.415884 89.970084 
L 141.593398 89.5998 
L 141.770912 89.498849 
L 141.948425 91.47146 
L 142.125939 91.563201 
L 142.303453 91.197165 
L 142.480966 91.394808 
L 142.835994 91.211613 
L 143.546049 91.164794 
L 143.723562 91.265622 
L 143.901076 91.158003 
L 144.611131 91.247378 
L 145.143672 91.084026 
L 145.498699 91.157581 
L 145.676213 131.801928 
L 146.386267 131.798505 
L 146.563781 92.14951 
L 146.741295 92.896702 
L 146.918808 92.629073 
L 147.096322 92.869158 
L 147.273836 92.796495 
L 147.45135 92.961366 
L 147.628863 92.952986 
L 147.806377 93.083863 
L 147.983891 130.50179 
L 148.161404 129.65931 
L 148.338918 129.55599 
L 148.516432 129.625928 
L 148.693945 129.460633 
L 148.871459 130.426129 
L 149.048973 129.584136 
L 149.404 129.649201 
L 149.581514 129.530253 
L 149.759027 130.965652 
L 149.936541 130.30023 
L 150.646596 130.094882 
L 151.001623 128.773808 
L 151.179137 128.987933 
L 151.356651 129.02598 
L 151.534164 129.696921 
L 151.711678 128.782169 
L 151.889192 128.746186 
L 152.066705 128.544843 
L 152.244219 128.699154 
L 152.421733 129.106311 
L 152.599246 128.106496 
L 152.77676 128.215964 
L 152.954274 128.100488 
L 153.131787 128.218768 
L 153.309301 67.477507 
L 153.664328 68.34622 
L 153.841842 70.144461 
L 154.019356 69.124683 
L 154.374383 69.924903 
L 154.551897 70.040197 
L 154.72941 70.335625 
L 154.906924 75.339359 
L 155.084438 69.094953 
L 155.261952 71.578642 
L 155.616979 73.145592 
L 155.794493 70.83979 
L 156.14952 74.803982 
L 156.327034 75.952963 
L 156.504547 75.965776 
L 156.682061 76.354517 
L 156.859575 71.306465 
L 157.214602 75.507915 
L 157.569629 76.128151 
L 157.747143 76.729442 
L 157.924657 92.906196 
L 158.279684 93.539622 
L 158.812225 94.802189 
L 158.989739 92.922498 
L 159.167252 92.958241 
L 159.699794 94.524478 
L 159.877307 94.82499 
L 160.054821 70.894584 
L 160.409848 75.447105 
L 160.764876 76.922577 
L 160.942389 77.162594 
L 161.119903 70.868558 
L 161.297417 71.695138 
L 161.47493 70.715953 
L 161.829958 71.576855 
L 162.007471 70.966795 
L 162.362499 71.894295 
L 162.540012 71.486107 
L 162.717526 71.706351 
L 162.89504 92.391402 
L 163.250067 94.41403 
L 163.427581 94.313575 
L 163.960122 93.614562 
L 164.315149 93.48823 
L 164.492663 94.337712 
L 165.025204 93.116012 
L 165.202718 93.230471 
L 165.380231 93.069769 
L 165.735259 93.158217 
L 165.912772 93.043611 
L 166.2678 93.023815 
L 166.622827 92.91082 
L 166.800341 92.741192 
L 167.155368 93.030984 
L 167.332882 92.978911 
L 167.510396 93.284014 
L 167.865423 93.46748 
L 168.042937 92.50655 
L 168.22045 92.319762 
L 168.575478 92.494879 
L 168.752991 92.404216 
L 168.930505 92.609386 
L 169.108019 92.543637 
L 169.463046 92.699559 
L 169.64056 93.069745 
L 169.818073 94.912588 
L 169.995587 92.747675 
L 170.173101 92.670832 
L 170.350614 92.866345 
L 170.528128 92.771929 
L 170.705642 93.01206 
L 170.883155 92.773781 
L 171.060669 92.965069 
L 171.238183 92.843388 
L 171.59321 93.135071 
L 171.770724 92.466408 
L 171.948238 104.994089 
L 172.125751 107.518775 
L 172.480779 109.42722 
L 172.658292 109.492507 
L 172.835806 109.685031 
L 173.190833 109.319679 
L 173.368347 109.25187 
L 173.545861 109.435746 
L 173.900888 109.138172 
L 174.078402 109.216463 
L 174.255915 109.147916 
L 174.610943 109.451293 
L 174.788456 109.318436 
L 175.143484 109.709037 
L 175.498511 109.580345 
L 175.853539 109.615099 
L 176.563593 109.760452 
L 176.741107 109.777605 
L 176.918621 109.663964 
L 177.096134 109.884176 
L 177.273648 109.834384 
L 177.628675 109.996627 
L 177.983703 109.874453 
L 178.161216 110.117503 
L 178.33873 109.998189 
L 178.516244 110.087271 
L 178.693757 110.037356 
L 178.871271 110.151097 
L 179.048785 110.106267 
L 179.403812 110.202238 
L 179.581326 109.959914 
L 179.936353 110.19155 
L 180.113867 110.034567 
L 180.646408 110.264479 
L 181.533976 110.297839 
L 181.71149 110.544415 
L 182.066517 110.301001 
L 182.776572 110.386732 
L 183.66414 110.72359 
L 184.196682 109.590263 
L 184.374195 109.438054 
L 184.729223 109.531322 
L 184.906736 109.309617 
L 185.08425 109.319313 
L 185.261764 109.442151 
L 185.439277 109.373915 
L 185.794305 109.470564 
L 185.971818 109.345148 
L 186.326846 109.419372 
L 186.681873 108.953147 
L 187.746955 109.092629 
L 187.924469 108.93909 
L 188.101983 109.012286 
L 188.279496 109.236526 
L 188.45701 109.254995 
L 188.989551 109.027382 
L 189.167065 109.042192 
L 189.344578 108.9082 
L 189.699606 109.012275 
L 189.877119 108.862828 
L 190.054633 107.777537 
L 190.232147 108.967632 
L 190.40966 109.124209 
L 190.764688 109.052617 
L 193.604907 108.986209 
L 193.78242 109.23939 
L 194.137448 108.944865 
L 194.492475 109.114793 
L 194.847502 108.929443 
L 195.20253 108.95171 
L 195.380043 109.021948 
L 195.557557 109.37321 
L 195.735071 108.999065 
L 196.267612 108.950293 
L 196.445126 109.098416 
L 196.622639 108.994944 
L 196.977667 109.101389 
L 197.15518 108.944531 
L 197.510208 108.930557 
L 198.752803 108.928989 
L 199.107831 108.727641 
L 199.285344 108.88235 
L 200.172913 108.752201 
L 200.350427 108.928641 
L 200.882968 108.974942 
L 201.060481 108.811726 
L 201.415509 108.922793 
L 201.593022 108.818328 
L 202.303077 108.935228 
L 202.480591 108.762888 
L 203.013132 108.962731 
L 203.368159 108.923618 
L 203.545673 108.92104 
L 203.723186 109.411932 
L 203.9007 109.06508 
L 204.610755 108.887774 
L 204.788269 109.241086 
L 204.965782 109.188205 
L 205.143296 109.360611 
L 205.675837 109.282783 
L 205.853351 108.992465 
L 206.208378 108.976031 
L 206.385892 108.817538 
L 206.563405 108.881729 
L 206.918433 108.760563 
L 207.095946 108.722926 
L 207.450974 109.028705 
L 207.628487 108.790846 
L 208.161028 109.031072 
L 208.516056 97.902751 
L 209.048597 86.904108 
L 209.581138 78.535506 
L 209.758652 110.352151 
L 209.936165 73.742979 
L 210.113679 91.968864 
L 210.468706 79.469112 
L 210.64622 105.557172 
L 210.823734 99.539714 
L 211.001247 79.015231 
L 211.178761 88.023379 
L 211.356275 105.281616 
L 211.533788 99.934443 
L 211.711302 79.36155 
L 211.888816 88.902803 
L 212.066329 112.91454 
L 212.243843 78.115739 
L 212.421357 95.249427 
L 212.776384 80.932469 
L 212.953898 106.700634 
L 213.131412 101.01705 
L 213.308925 81.611279 
L 213.486439 89.579282 
L 213.663953 113.603368 
L 213.841466 80.768703 
L 214.01898 96.995896 
L 214.374007 81.717345 
L 214.551521 110.425502 
L 215.084062 92.854271 
L 215.616603 82.993626 
L 215.97163 78.841561 
L 216.149144 87.084141 
L 216.504172 79.563935 
L 216.681685 76.717812 
L 216.859199 110.43891 
L 217.39174 93.115139 
L 217.569254 88.848769 
L 217.746767 105.395511 
L 217.924281 104.999915 
L 218.101795 106.194418 
L 218.279308 106.113096 
L 218.456822 107.388947 
L 218.634336 107.64899 
L 218.989363 107.384206 
L 219.166877 107.424673 
L 219.521904 107.26565 
L 219.699418 107.54214 
L 220.409472 107.404474 
L 220.586986 107.617812 
L 221.474555 107.318005 
L 221.652068 107.440726 
L 221.829582 107.23495 
L 222.184609 107.352611 
L 222.71715 107.262147 
L 223.249691 107.244007 
L 223.427205 107.14565 
L 223.604719 107.198863 
L 223.782232 107.025039 
L 224.669801 107.123507 
L 224.847315 106.94639 
L 225.024828 106.97497 
L 225.202342 107.166663 
L 225.557369 107.038043 
L 225.734883 107.126513 
L 226.08991 107.018659 
L 226.267424 107.0985 
L 226.444938 107.016874 
L 226.622451 108.529706 
L 226.799965 106.929792 
L 227.332506 107.149066 
L 227.51002 107.461913 
L 227.687533 107.016005 
L 227.865047 107.153936 
L 228.042561 106.972315 
L 228.397588 106.995984 
L 228.575102 106.839418 
L 229.107643 106.865616 
L 229.46267 106.743963 
L 229.817698 106.879334 
L 229.995211 106.455631 
L 230.172725 106.861012 
L 230.350239 106.816268 
L 230.527752 107.037252 
L 231.060293 106.780578 
L 231.947862 106.757875 
L 232.83543 106.851176 
L 233.367971 106.656324 
L 233.545485 106.597949 
L 233.722999 107.391103 
L 233.900512 106.709867 
L 234.078026 106.521675 
L 234.610567 106.767714 
L 235.143108 106.595852 
L 235.498135 106.684177 
L 235.675649 107.097464 
L 235.853163 107.163295 
L 236.030676 106.659916 
L 236.20819 116.727419 
L 236.385704 96.009343 
L 236.563217 123.68893 
L 236.740731 95.990696 
L 236.918245 124.176346 
L 237.095759 95.597484 
L 237.273272 124.07709 
L 237.450786 94.918488 
L 237.6283 123.844323 
L 237.805813 94.744564 
L 237.983327 123.80114 
L 238.160841 94.647493 
L 238.338354 123.759026 
L 238.515868 94.693612 
L 238.693382 123.740891 
L 238.870895 94.683712 
L 239.048409 123.728072 
L 239.225923 94.379748 
L 239.403436 123.720117 
L 239.58095 94.458046 
L 239.758464 123.686503 
L 239.935977 94.166982 
L 240.113491 123.635041 
L 240.291005 94.277853 
L 240.468518 123.425998 
L 240.646032 94.240008 
L 240.823546 123.570716 
L 241.00106 94.446335 
L 241.178573 123.643923 
L 241.356087 94.769459 
L 241.533601 123.624535 
L 241.711114 94.646993 
L 241.888628 123.6198 
L 242.066142 94.674118 
L 242.243655 123.606744 
L 242.421169 94.791754 
L 242.598683 123.669504 
L 242.776196 102.326439 
L 242.95371 123.673056 
L 243.131224 94.64756 
L 243.308737 123.547784 
L 243.486251 94.514172 
L 243.663765 123.46569 
L 243.841278 94.393754 
L 244.018792 123.582108 
L 244.196306 94.500187 
L 244.373819 123.532229 
L 244.551333 94.395988 
L 244.728847 124.262854 
L 244.90636 94.480479 
L 245.083874 123.553486 
L 245.261388 94.269134 
L 245.438902 123.608909 
L 245.616415 94.251033 
L 245.793929 123.496727 
L 245.971443 94.535081 
L 246.148956 123.528143 
L 246.32647 94.104529 
L 246.503984 123.485341 
L 246.681497 94.113633 
L 246.859011 124.5528 
L 247.036525 107.28493 
L 247.214038 126.386736 
L 247.391552 115.400456 
L 247.569066 126.853711 
L 247.746579 116.299619 
L 247.924093 127.117215 
L 248.101607 116.945544 
L 248.27912 127.291754 
L 248.456634 117.418492 
L 248.634148 127.586252 
L 248.811661 119.326594 
L 248.989175 128.849819 
L 249.166689 94.800007 
L 249.344203 123.558415 
L 249.521716 94.203678 
L 249.69923 123.555524 
L 249.876744 94.613284 
L 250.054257 123.59807 
L 250.231771 95.050668 
L 250.409285 123.692975 
L 250.586798 94.080721 
L 250.764312 122.571268 
L 250.941826 101.234 
L 251.119339 124.074201 
L 251.296853 94.348972 
L 251.474367 123.494797 
L 251.65188 94.187366 
L 251.829394 123.489814 
L 252.006908 94.057595 
L 252.184421 123.470998 
L 252.361935 94.318449 
L 252.539449 124.004804 
L 252.716962 94.248079 
L 252.894476 123.468506 
L 253.07199 94.280641 
L 253.249504 123.661038 
L 253.427017 94.438105 
L 253.604531 123.425064 
L 253.782045 94.168849 
L 253.959558 123.474633 
L 254.137072 95.389516 
L 254.314586 123.232886 
L 254.492099 77.0117 
L 254.669613 116.165554 
L 254.847127 83.221463 
L 255.02464 107.132153 
L 255.202154 91.410267 
L 255.379668 102.461419 
L 255.557181 73.270892 
L 255.734695 78.565577 
L 255.912209 104.758581 
L 256.267236 118.790427 
L 256.44475 119.067796 
L 256.622263 114.003438 
L 256.799777 124.286977 
L 256.977291 108.161168 
L 257.154804 123.030844 
L 257.332318 110.261673 
L 257.509832 118.827898 
L 257.687346 120.611309 
L 257.864859 120.947157 
L 258.042373 119.934183 
L 258.219887 115.568988 
L 258.3974 115.818102 
L 258.574914 119.657309 
L 258.752428 128.370367 
L 258.929941 117.19818 
L 259.107455 127.106673 
L 259.284969 120.113164 
L 259.462482 125.199397 
L 259.639996 115.624391 
L 259.81751 120.019066 
L 259.995023 113.476526 
L 260.172537 115.330432 
L 260.350051 114.75463 
L 260.527564 119.584647 
L 260.705078 120.832736 
L 261.060105 115.823991 
L 261.237619 123.881459 
L 261.415133 117.745925 
L 261.592647 126.18775 
L 261.77016 116.979007 
L 261.947674 121.557477 
L 262.125188 120.628283 
L 262.302701 125.828226 
L 262.835242 121.484461 
L 263.012756 123.399312 
L 263.19027 129.42591 
L 263.367783 121.26626 
L 263.545297 128.739925 
L 263.722811 124.211868 
L 263.900324 127.741471 
L 264.077838 125.632957 
L 264.432865 73.547546 
L 264.610379 79.381644 
L 264.787893 76.142745 
L 264.965406 110.620248 
L 265.14292 115.424733 
L 265.497948 107.066662 
L 265.675461 119.297681 
L 265.852975 110.326749 
L 266.030489 123.437085 
L 266.208002 110.301247 
L 266.385516 116.554488 
L 266.56303 114.347757 
L 266.740543 122.363757 
L 267.095571 116.786562 
L 267.273084 116.887145 
L 267.450598 121.131812 
L 267.628112 128.92296 
L 267.805625 80.302423 
L 267.983139 119.218689 
L 268.160653 85.960784 
L 268.338166 107.722669 
L 268.51568 81.433868 
L 268.693194 100.436098 
L 268.870707 73.340501 
L 269.048221 79.139141 
L 269.225735 75.832481 
L 269.403248 92.42275 
L 269.580762 97.334495 
L 269.758276 83.680212 
L 270.113303 120.107417 
L 270.290817 112.532426 
L 270.468331 126.034014 
L 270.645844 117.327398 
L 270.823358 121.875531 
L 271.000872 120.851214 
L 271.178385 126.826141 
L 271.355899 123.205223 
L 271.533413 115.632113 
L 271.710926 121.259374 
L 271.88844 114.459823 
L 272.065954 129.782152 
L 272.243467 79.864047 
L 272.420981 119.388379 
L 272.598495 94.879982 
L 272.776008 108.347155 
L 272.953522 81.790551 
L 273.131036 100.896084 
L 273.308549 73.563502 
L 273.486063 80.231121 
L 273.663577 78.475011 
L 273.841091 92.66023 
L 274.018604 97.249082 
L 274.373632 74.766434 
L 274.551145 106.01569 
L 274.728659 81.149555 
L 274.906173 114.837541 
L 275.083686 77.364413 
L 275.2612 94.345916 
L 275.438714 89.674463 
L 275.616227 110.959574 
L 276.148768 85.584509 
L 276.326282 95.464683 
L 276.503796 123.890595 
L 276.681309 79.050379 
L 276.858823 117.550147 
L 277.036337 85.796784 
L 277.21385 107.776173 
L 277.391364 81.476047 
L 277.568878 100.362035 
L 277.746392 73.555977 
L 277.923905 79.167848 
L 278.101419 77.499841 
L 278.456446 106.267513 
L 278.63396 96.243796 
L 278.811474 93.406291 
L 278.988987 110.508472 
L 279.166501 96.690914 
L 279.344015 118.951017 
L 279.521528 95.479283 
L 279.699042 107.031026 
L 279.876556 103.655206 
L 280.054069 116.894684 
L 280.231583 112.347969 
L 280.409097 104.621545 
L 280.58661 104.029824 
L 280.764124 112.335904 
L 280.941638 126.420778 
L 281.119151 104.090831 
L 281.296665 123.38241 
L 281.474179 108.246937 
L 281.651692 118.499922 
L 281.829206 106.632602 
L 282.00672 115.146621 
L 282.184234 103.293063 
L 282.361747 106.308173 
L 282.539261 104.807086 
L 282.716775 112.235852 
L 282.894288 114.4002 
L 283.249316 105.051716 
L 283.426829 118.380778 
L 283.604343 107.778395 
L 283.781857 122.343499 
L 283.95937 106.427017 
L 284.136884 113.814525 
L 284.314398 111.771162 
L 284.491911 120.861825 
L 284.669425 117.181817 
L 284.846939 111.188822 
L 285.024452 110.511571 
L 285.201966 114.004718 
L 285.37948 126.7727 
L 285.556993 107.483027 
L 285.734507 124.3817 
L 285.912021 110.471364 
L 286.089535 119.635199 
L 286.267048 108.739741 
L 286.444562 116.661141 
L 286.622076 106.185061 
L 286.799589 108.751343 
L 286.977103 107.098615 
L 287.154617 114.018221 
L 287.33213 115.760973 
L 287.687158 108.506554 
L 287.864671 120.245071 
L 288.042185 111.644452 
L 288.219699 123.9422 
L 288.574726 102.032595 
L 288.75224 101.589391 
L 288.929753 113.628118 
L 289.462294 89.79344 
L 289.639808 97.85139 
L 289.817322 124.121816 
L 289.994836 84.143405 
L 290.172349 119.348056 
L 290.349863 89.761341 
L 290.527377 113.663233 
L 290.70489 114.558749 
L 290.882404 122.00188 
L 291.059918 97.757662 
L 291.237431 105.576786 
L 291.414945 94.2277 
L 291.592459 105.019533 
L 291.769972 106.963852 
L 291.947486 100.150484 
L 292.125 127.490495 
L 292.302513 130.550144 
L 292.657541 106.17971 
L 292.835054 114.927497 
L 293.012568 115.373324 
L 293.190082 123.904481 
L 293.545109 88.783864 
L 293.722623 85.6992 
L 293.900136 95.212087 
L 294.07765 123.882677 
L 294.255164 79.173028 
L 294.432678 119.82813 
L 294.610191 85.622657 
L 294.787705 107.949679 
L 294.965219 81.530929 
L 295.142732 100.47779 
L 295.320246 73.630222 
L 295.49776 79.667729 
L 295.675273 76.051304 
L 295.852787 92.502557 
L 296.030301 97.355802 
L 296.385328 74.564699 
L 296.562842 105.763691 
L 296.740355 81.065202 
L 296.917869 114.596424 
L 297.095383 76.999286 
L 297.272896 94.342786 
L 297.45041 89.723322 
L 297.627924 110.971726 
L 298.160465 85.461182 
L 298.337979 95.312045 
L 298.515492 123.735256 
L 298.693006 79.353596 
L 298.87052 118.902497 
L 299.048033 86.148427 
L 299.225547 107.846941 
L 299.403061 81.584979 
L 299.580574 100.516892 
L 299.758088 73.914535 
L 299.935602 79.60004 
L 300.113115 101.33984 
L 300.290629 93.038585 
L 300.468143 97.891621 
L 300.82317 75.903227 
L 301.000684 107.4288 
L 301.178197 83.262606 
L 301.355711 115.367558 
L 301.533225 77.707813 
L 301.710738 94.827375 
L 301.888252 90.167793 
L 302.065766 111.312268 
L 302.598307 85.936148 
L 302.775821 95.654523 
L 302.953334 125.347434 
L 303.130848 79.090559 
L 303.308362 118.85548 
L 303.485875 85.908501 
L 303.663389 107.77412 
L 303.840903 81.540199 
L 304.018416 100.360449 
L 304.19593 73.689849 
L 304.373444 79.426019 
L 304.550957 75.881433 
L 304.728471 92.413469 
L 304.905985 97.34241 
L 305.083498 83.620719 
L 305.261012 78.696997 
L 305.438526 109.407002 
L 305.616039 81.846428 
L 305.793553 114.942553 
L 305.971067 80.442531 
L 306.14858 94.372321 
L 306.326094 90.242684 
L 306.503608 110.936366 
L 307.036149 84.230959 
L 307.213663 121.018642 
L 307.391176 128.712468 
L 307.56869 114.324379 
L 307.746204 126.537753 
L 307.923717 117.034421 
L 308.101231 122.81572 
L 308.278745 115.133171 
L 308.456258 119.89474 
L 308.633772 111.947448 
L 308.811286 112.681621 
L 308.988799 112.633448 
L 309.343827 119.963306 
L 309.698854 111.98298 
L 309.876368 121.394035 
L 310.053881 114.159145 
L 310.231395 124.767555 
L 310.408909 112.757891 
L 310.586423 117.378914 
L 310.763936 117.291841 
L 310.94145 123.419164 
L 311.118964 121.421534 
L 311.473991 114.287511 
L 311.651505 119.013543 
L 311.829018 128.069473 
L 312.006532 113.229825 
L 312.184046 126.13671 
L 312.361559 116.003004 
L 312.539073 122.279006 
L 312.716587 114.377877 
L 312.8941 119.412919 
L 313.071614 111.273429 
L 313.249128 112.123765 
L 313.426641 112.14342 
L 313.781669 119.660342 
L 313.959182 113.735641 
L 314.136696 111.652582 
L 314.31421 121.316802 
L 314.491724 113.88984 
L 314.669237 124.669794 
L 314.846751 112.565663 
L 315.024265 117.220802 
L 315.201778 117.207511 
L 315.379292 123.351952 
L 315.556806 121.398893 
L 315.911833 114.247361 
L 316.089347 118.97177 
L 316.26686 128.053257 
L 316.444374 113.09024 
L 316.621888 126.112159 
L 316.799401 115.929318 
L 316.976915 122.2522 
L 317.154429 114.349968 
L 317.331942 119.441398 
L 317.509456 111.148429 
L 317.68697 112.038427 
L 317.864483 112.096334 
L 318.219511 119.788695 
L 318.574538 111.591881 
L 318.752052 121.259383 
L 318.929566 113.950033 
L 319.107079 124.715141 
L 319.284593 112.703337 
L 319.462107 117.326243 
L 319.63962 117.461529 
L 319.817134 123.47699 
L 319.994648 121.635223 
L 320.349675 114.506043 
L 320.527189 119.489494 
L 320.704702 128.190498 
L 320.882216 114.788425 
L 321.05973 126.978389 
L 321.237243 119.681278 
L 321.414757 124.338629 
L 321.592271 118.611155 
L 321.769784 122.146781 
L 321.947298 116.172955 
L 322.124812 116.378255 
L 322.302325 116.85741 
L 322.657353 123.13606 
L 322.834867 117.683456 
L 323.01238 116.89941 
L 323.189894 123.885327 
L 323.367408 118.479902 
L 323.544921 126.471429 
L 323.722435 117.494696 
L 323.899949 120.558876 
L 324.077462 121.116917 
L 324.254976 125.541264 
L 324.43249 124.755939 
L 324.787517 119.121415 
L 325.142544 129.23776 
L 325.320058 119.059731 
L 325.497572 128.08969 
L 325.675085 120.783159 
L 325.852599 125.156387 
L 326.030113 119.768613 
L 326.207626 123.208508 
L 326.38514 117.668345 
L 326.562654 117.779045 
L 326.740168 118.751775 
L 327.095195 123.943831 
L 327.272709 119.016084 
L 327.450222 118.307347 
L 327.627736 124.941782 
L 327.80525 120.420932 
L 327.982763 127.230382 
L 328.160277 119.489945 
L 328.692818 126.613491 
L 328.870332 125.443668 
L 329.225359 120.228723 
L 329.580386 129.564353 
L 329.7579 120.437166 
L 329.935414 128.293923 
L 330.112927 122.222158 
L 330.290441 126.160217 
L 330.467955 121.060365 
L 330.645468 124.002925 
L 330.822982 119.54387 
L 331.17801 119.874103 
L 331.533037 123.801361 
L 331.888064 117.491839 
L 332.065578 125.468617 
L 332.243092 119.654393 
L 332.420605 127.044971 
L 332.598119 119.64965 
L 332.775633 121.801939 
L 332.953146 122.598555 
L 333.13066 126.492995 
L 333.308174 125.597152 
L 333.663201 120.141324 
L 333.840715 123.137567 
L 334.018228 129.312444 
L 334.195742 119.00875 
L 334.373256 127.972442 
L 334.550769 121.247301 
L 334.728283 125.303034 
L 334.905797 119.557218 
L 335.083311 122.955845 
L 335.260824 118.445671 
L 335.438338 118.066913 
L 335.970879 125.107376 
L 336.148393 120.82597 
L 336.325906 120.24625 
L 336.50342 125.752471 
L 336.680934 121.599473 
L 336.858447 127.584851 
L 337.035961 120.592048 
L 337.213475 122.6541 
L 337.390988 123.236097 
L 337.568502 126.814821 
L 337.746016 126.352646 
L 338.101043 121.811384 
L 338.45607 129.724273 
L 338.633584 120.960387 
L 338.811098 128.753588 
L 338.988612 122.768517 
L 339.166125 126.605641 
L 339.343639 120.344613 
L 339.521153 123.459416 
L 339.698666 117.905934 
L 339.87618 117.521428 
L 340.053694 117.601848 
L 340.408721 123.34919 
L 340.586235 119.363594 
L 340.763748 119.761547 
L 340.941262 125.583645 
L 341.118776 121.962777 
L 341.296289 127.727492 
L 341.473803 120.049001 
L 342.006344 127.21545 
L 342.183858 126.500016 
L 342.538885 121.236174 
L 342.893912 129.796095 
L 343.071426 121.788859 
L 343.24894 128.72354 
L 343.426454 123.050093 
L 343.603967 126.213389 
L 343.781481 120.907381 
L 343.958995 123.863146 
L 344.136508 120.241113 
L 344.314022 120.133931 
L 344.846563 126.255599 
L 345.20159 120.056 
L 345.379104 125.270023 
L 345.556618 122.07147 
L 345.734131 127.662874 
L 345.911645 119.902942 
L 346.444186 126.964741 
L 346.6217 127.025053 
L 346.976727 122.351167 
L 347.331755 130.073978 
L 347.509268 121.581153 
L 347.686782 129.060226 
L 347.864296 124.35041 
L 348.041809 127.848677 
L 348.219323 122.811295 
L 348.396837 125.609001 
L 348.57435 122.704205 
L 348.751864 121.999066 
L 348.929378 122.234227 
L 349.284405 126.648983 
L 349.461919 122.370885 
L 349.639432 123.182131 
L 349.816946 126.340419 
L 349.99446 122.265471 
L 350.171973 128.08793 
L 350.349487 123.762167 
L 350.704514 125.583108 
L 350.882028 127.716539 
L 351.059542 127.649651 
L 351.414569 122.941039 
L 351.769597 130.16141 
L 351.94711 121.684037 
L 352.124624 128.899285 
L 352.302138 124.126223 
L 352.479651 127.993619 
L 352.657165 123.552474 
L 352.834679 125.311672 
L 353.012192 122.448009 
L 353.36722 121.927358 
L 353.722247 126.6513 
L 353.899761 123.102868 
L 354.077274 123.490188 
L 354.254788 127.45635 
L 354.432302 125.702344 
L 354.609815 129.192474 
L 354.787329 125.689496 
L 355.142356 127.814822 
L 355.31987 129.458045 
L 355.497384 129.588318 
L 355.852411 126.108868 
L 356.207439 130.794765 
L 356.384952 126.107436 
L 356.562466 129.9602 
L 356.73998 127.334412 
L 356.917493 128.607757 
L 357.095007 126.898649 
L 357.272521 127.406634 
L 357.450034 123.403763 
L 357.627548 122.450186 
L 358.160089 127.814761 
L 358.337603 124.461819 
L 358.515116 124.369255 
L 358.69263 127.845137 
L 358.870144 126.367508 
L 359.047657 129.535337 
L 359.225171 125.280837 
L 359.402685 126.446139 
L 359.580199 126.782798 
L 359.757712 129.148743 
L 359.935226 129.070927 
L 360.290253 125.057232 
L 360.467767 130.673627 
L 361.177822 130.508969 
L 361.355335 130.478618 
L 361.710363 130.254266 
L 362.06539 130.257655 
L 362.242904 130.387619 
L 363.130472 130.36645 
L 363.307986 130.430188 
L 363.663013 130.321535 
L 364.373068 130.511517 
L 364.550582 130.709555 
L 364.728095 130.667426 
L 364.905609 130.366376 
L 365.615664 130.261948 
L 365.793177 130.382941 
L 365.970691 130.298434 
L 366.148205 130.612474 
L 366.325718 130.450608 
L 366.503232 130.694785 
L 367.035773 130.678307 
L 367.3908 130.640858 
L 367.923342 130.74709 
L 368.100855 130.762133 
L 368.455883 130.918791 
L 368.81091 130.921131 
L 368.988424 130.906033 
L 369.165937 131.021619 
L 369.343451 129.214787 
L 369.520965 129.810829 
L 369.698478 129.630081 
L 369.875992 129.247667 
L 370.053506 129.171067 
L 370.231019 130.089468 
L 370.408533 129.450676 
L 370.586047 129.581967 
L 370.76356 129.506661 
L 370.941074 128.843985 
L 371.118588 129.607718 
L 371.296101 129.27938 
L 371.473615 129.814576 
L 371.651129 129.878672 
L 371.828643 128.744842 
L 372.006156 129.294731 
L 372.18367 130.368954 
L 372.361184 130.19479 
L 372.716211 127.752597 
L 372.893725 127.984916 
L 373.071238 127.709851 
L 373.248752 128.12355 
L 373.426266 130.139416 
L 373.603779 129.755924 
L 373.781293 130.538635 
L 373.958807 130.36033 
L 374.13632 130.339714 
L 374.313834 129.981392 
L 374.491348 130.265827 
L 374.668861 123.481356 
L 374.846375 122.52178 
L 375.023889 122.495202 
L 375.201402 122.803719 
L 375.378916 121.951125 
L 375.55643 122.522832 
L 375.733944 122.48767 
L 375.911457 122.807079 
L 376.088971 122.32919 
L 376.266485 122.963796 
L 376.443998 122.168635 
L 376.621512 122.886423 
L 376.799026 122.298964 
L 377.154053 122.044642 
L 377.50908 122.11871 
L 378.396649 122.20962 
L 378.92919 122.270255 
L 379.461731 122.336409 
L 379.639244 122.431465 
L 381.414381 122.202299 
L 383.544545 122.154482 
L 384.077087 122.153027 
L 385.319682 122.166343 
L 385.497196 129.567941 
L 385.67471 89.159303 
L 386.029737 115.789937 
L 386.384764 93.94062 
L 386.562278 99.666158 
L 386.739792 115.80962 
L 387.094819 94.895553 
L 387.272333 129.83304 
L 387.449846 88.683911 
L 387.62736 116.068212 
L 387.982388 93.568011 
L 388.159901 129.66419 
L 388.337415 88.946615 
L 388.514929 99.553142 
L 388.692442 129.695441 
L 389.224983 94.136935 
L 389.402497 89.828171 
L 389.580011 99.98429 
L 389.757524 94.562966 
L 389.935038 129.694191 
L 390.112552 90.280878 
L 390.467579 116.013385 
L 390.645093 106.697186 
L 390.822606 115.653319 
L 391.177634 95.041646 
L 391.355147 129.638461 
L 391.532661 89.465149 
L 391.710175 100.505434 
L 391.887688 100.000606 
L 392.065202 115.87701 
L 392.42023 94.560368 
L 392.597743 129.614114 
L 392.775257 90.362538 
L 392.952771 90.793429 
L 393.130284 100.875477 
L 393.307798 129.796732 
L 393.840339 95.264451 
L 394.017853 129.683644 
L 394.195366 91.558414 
L 394.550394 115.528633 
L 394.905421 93.293588 
L 395.082935 115.195665 
L 395.437962 92.014331 
L 395.615476 129.696837 
L 395.792989 87.769945 
L 395.970503 99.054877 
L 396.148017 129.813543 
L 396.325531 88.482228 
L 396.680558 115.431906 
L 397.035585 93.603392 
L 397.213099 99.527815 
L 397.390613 115.44866 
L 397.74564 94.120666 
L 397.923154 129.758063 
L 398.100667 86.46674 
L 398.278181 115.48187 
L 398.633208 91.620028 
L 398.810722 129.656016 
L 398.988236 87.673911 
L 399.165749 98.789631 
L 399.343263 129.708818 
L 399.875804 92.202529 
L 400.053318 87.530676 
L 400.230832 98.764446 
L 400.408345 92.612488 
L 400.585859 129.700969 
L 400.763373 88.507199 
L 400.940886 98.717627 
L 401.1184 115.381904 
L 401.295914 106.108678 
L 401.473427 115.484838 
L 401.828455 94.870666 
L 402.005968 129.705497 
L 402.183482 90.576393 
L 402.360996 100.368981 
L 402.538509 100.392404 
L 402.716023 116.009694 
L 403.07105 95.38339 
L 403.248564 129.776961 
L 403.426078 92.138971 
L 403.603591 91.249847 
L 403.781105 101.475157 
L 403.958619 129.914959 
L 404.313646 108.401233 
L 404.49116 98.126527 
L 404.668674 129.827368 
L 404.846187 95.891496 
L 405.201215 117.942061 
L 405.556242 102.993432 
L 405.733756 119.075035 
L 406.088783 105.865281 
L 406.266297 129.733595 
L 406.44381 87.828127 
L 406.621324 98.498955 
L 406.798838 130.748055 
L 406.976351 90.469033 
L 407.153865 100.055692 
L 407.331379 115.930514 
L 407.686406 93.26312 
L 407.86392 100.12877 
L 408.041433 116.438781 
L 408.396461 94.310078 
L 408.573975 130.749931 
L 408.751488 91.563523 
L 408.929002 117.649172 
L 409.284029 95.296187 
L 409.461543 130.426013 
L 409.639057 91.214859 
L 409.81657 101.519677 
L 409.994084 130.319707 
L 410.526625 96.205312 
L 410.704139 89.111229 
L 410.881652 100.072528 
L 411.059166 95.711751 
L 411.23668 130.101798 
L 411.414193 93.040402 
L 411.591707 100.551184 
L 411.769221 116.326136 
L 411.946734 106.825719 
L 412.124248 116.135677 
L 412.479276 93.965583 
L 412.656789 129.953912 
L 412.834303 90.020011 
L 413.011817 100.407743 
L 413.18933 100.144325 
L 413.366844 116.311356 
L 413.721871 94.771411 
L 413.899385 129.947801 
L 414.076899 89.785944 
L 414.254412 90.148593 
L 414.431926 101.049531 
L 414.60944 130.052341 
L 415.141981 94.688588 
L 415.319494 129.888505 
L 415.497008 90.347512 
L 415.852035 116.37352 
L 416.207063 96.541983 
L 416.384576 116.288507 
L 416.739604 94.285803 
L 416.917118 129.973589 
L 417.094631 90.088666 
L 417.272145 100.697273 
L 417.449659 130.038698 
L 417.627172 90.041052 
L 417.9822 116.088164 
L 418.337227 93.086486 
L 418.514741 99.08672 
L 418.692254 115.53234 
L 419.047282 93.360779 
L 419.224795 129.837305 
L 419.402309 89.661696 
L 419.579823 116.124474 
L 419.93485 97.107878 
L 420.112364 130.058408 
L 420.289877 87.870987 
L 420.467391 98.834589 
L 420.644905 129.89247 
L 421.177446 92.488694 
L 421.35496 88.266346 
L 421.532473 99.052539 
L 421.709987 93.005101 
L 421.887501 129.841358 
L 422.065014 88.953244 
L 422.420042 115.913032 
L 422.597555 106.700296 
L 422.775069 115.438967 
L 423.130096 92.766003 
L 423.30761 129.82717 
L 423.485124 88.297612 
L 423.662637 99.304126 
L 423.840151 98.529839 
L 424.017665 115.403926 
L 424.372692 91.699104 
L 424.550206 129.821482 
L 424.72772 87.344478 
L 424.905233 87.564194 
L 425.082747 98.940336 
L 425.260261 129.938958 
L 425.792802 92.38118 
L 425.970315 129.773302 
L 426.147829 87.715878 
L 426.502856 115.201062 
L 426.857884 92.099864 
L 427.035397 115.371481 
L 427.390425 92.67954 
L 427.567938 129.790989 
L 427.745452 88.170732 
L 427.922966 99.773214 
L 428.100479 127.622709 
L 428.277993 88.382951 
L 428.455507 98.348751 
L 428.63302 116.868116 
L 428.988048 89.539595 
L 429.165562 96.332532 
L 429.343075 115.518078 
L 429.698103 88.407773 
L 429.875616 127.937057 
L 430.05313 83.246451 
L 430.230644 116.069799 
L 430.585671 89.045258 
L 430.763185 128.021315 
L 430.940698 82.349208 
L 431.118212 96.582071 
L 431.295726 128.204465 
L 432.00578 80.802199 
L 432.183294 96.141965 
L 432.360808 88.235574 
L 432.538321 128.297644 
L 432.715835 82.304237 
L 433.070863 115.632153 
L 433.248376 104.496399 
L 433.42589 115.310889 
L 433.780917 88.130574 
L 433.958431 128.142626 
L 434.135945 82.558296 
L 434.313458 95.477214 
L 434.490972 95.967969 
L 434.668486 115.741086 
L 435.023513 87.782573 
L 435.201027 128.251514 
L 435.37854 82.350066 
L 435.556054 81.672358 
L 435.733568 95.834177 
L 435.911081 128.409049 
L 436.443622 87.229365 
L 436.621136 128.237059 
L 436.79865 81.904531 
L 437.153677 115.706103 
L 437.508705 87.363343 
L 437.686218 115.290339 
L 438.041246 87.602459 
L 438.218759 128.314214 
L 438.396273 83.305024 
L 438.573787 96.31157 
L 438.7513 127.782324 
L 438.928814 85.516976 
L 439.283841 117.578432 
L 439.638869 92.026743 
L 439.816382 98.182532 
L 439.993896 117.530355 
L 440.348923 91.006429 
L 440.526437 128.594482 
L 440.703951 85.124554 
L 440.881464 116.598799 
L 441.236492 90.614788 
L 441.414006 128.573565 
L 441.591519 84.57229 
L 441.769033 97.202962 
L 441.946547 128.893458 
L 442.656601 82.924359 
L 442.834115 96.601669 
L 443.011629 89.950642 
L 443.189142 128.71996 
L 443.366656 84.923596 
L 443.54417 97.026793 
L 443.721683 116.707959 
L 443.899197 105.619883 
L 444.076711 116.571711 
L 444.431738 89.377432 
L 444.609252 128.657391 
L 444.786765 84.765053 
L 444.964279 96.899832 
L 445.141793 97.347232 
L 445.319307 116.697831 
L 445.674334 90.026004 
L 445.851848 128.837738 
L 446.029361 84.585222 
L 446.206875 82.867151 
L 446.384389 96.762833 
L 446.561902 129.083343 
L 447.094443 88.881059 
L 447.271957 128.717533 
L 447.449471 83.610249 
L 447.626984 96.030094 
L 447.804498 116.382229 
L 448.159525 89.682266 
L 448.337039 116.024656 
L 448.692066 89.79288 
L 448.86958 128.821805 
L 449.047094 85.300383 
L 449.224608 96.400007 
L 449.402121 129.114915 
L 449.579635 84.624759 
L 449.757149 96.524892 
L 449.934662 116.527587 
L 450.28969 88.968845 
L 450.467203 96.281306 
L 450.644717 116.529833 
L 450.999744 89.574503 
L 451.177258 128.883793 
L 451.354772 84.54403 
L 451.532285 116.400113 
L 451.887313 89.106015 
L 452.064826 128.859377 
L 452.24234 84.158982 
L 452.419854 96.561434 
L 452.597367 129.194255 
L 453.307422 83.884317 
L 453.484936 97.116846 
L 453.66245 90.918899 
L 453.839963 128.905677 
L 454.017477 87.303689 
L 454.194991 97.5276 
L 454.372504 116.759917 
L 454.550018 106.092147 
L 454.727532 116.487226 
L 455.082559 90.613329 
L 455.260073 128.864683 
L 455.437586 87.595844 
L 455.6151 98.026084 
L 455.792614 98.490221 
L 455.970127 116.993496 
L 456.325155 91.980068 
L 456.502668 128.995978 
L 456.680182 88.249875 
L 456.857696 87.315692 
L 457.035209 99.194726 
L 457.212723 129.241998 
L 457.745264 93.710194 
L 457.922778 128.939936 
L 458.100292 89.849697 
L 458.277805 100.466593 
L 458.455319 117.733282 
L 458.810346 94.58104 
L 458.98786 117.281902 
L 459.342887 94.651882 
L 459.520401 128.924779 
L 459.697915 90.733461 
L 459.875428 100.943021 
L 460.052942 128.823927 
L 460.230456 93.737603 
L 460.585483 119.327 
L 460.94051 98.340386 
L 461.118024 103.348272 
L 461.295538 119.125515 
L 461.650565 98.448975 
L 461.828079 129.148307 
L 462.005593 94.549355 
L 462.183106 118.547916 
L 462.538134 98.416534 
L 462.715647 129.061712 
L 462.893161 95.016916 
L 463.070675 103.924962 
L 463.248188 129.381911 
L 463.780729 99.422399 
L 463.958243 95.229169 
L 464.135757 104.570441 
L 464.31327 99.906497 
L 464.490784 129.179819 
L 464.668298 96.507146 
L 465.023325 119.047062 
L 465.200839 108.524625 
L 465.378352 118.553145 
L 465.73338 94.342764 
L 465.910894 129.203985 
L 466.088407 89.463378 
L 466.265921 100.483195 
L 466.443435 100.872672 
L 466.620948 118.534418 
L 466.975976 93.595648 
L 467.153489 129.255363 
L 467.331003 88.496781 
L 467.508517 88.162752 
L 467.68603 99.819551 
L 467.863544 129.606473 
L 468.396085 93.268752 
L 468.573599 129.220151 
L 468.751112 88.225442 
L 469.10614 118.419515 
L 469.461167 93.305066 
L 469.638681 117.652189 
L 469.993708 93.471034 
L 470.171222 129.310734 
L 470.348736 88.511043 
L 470.526249 99.920663 
L 470.703763 129.605614 
L 470.881277 89.098518 
L 471.05879 99.959198 
L 471.236304 118.441673 
L 471.591331 93.916354 
L 471.768845 99.933645 
L 471.946359 118.364356 
L 472.301386 93.74439 
L 472.4789 129.309764 
L 472.656413 88.919205 
L 472.833927 117.983975 
L 473.188954 94.085923 
L 473.366468 129.391097 
L 473.543982 89.492943 
L 473.721496 100.417861 
L 473.899009 129.619829 
L 474.609064 89.677378 
L 474.786578 101.090671 
L 474.964091 95.501362 
L 475.141605 129.367367 
L 475.319119 91.410379 
L 475.496632 101.845032 
L 475.674146 118.868621 
L 475.85166 108.892629 
L 476.029173 118.690282 
L 476.384201 96.689932 
L 476.561714 129.387486 
L 476.739228 93.564924 
L 476.916742 103.361392 
L 477.094255 104.073259 
L 477.271769 119.479987 
L 477.626796 99.898621 
L 477.80431 129.354195 
L 477.981824 96.796974 
L 478.159338 96.755766 
L 478.336851 106.577947 
L 478.514365 129.566523 
L 479.046906 94.485954 
L 479.22442 130.051544 
L 479.401933 90.788503 
L 479.579447 101.1682 
L 479.756961 119.014709 
L 480.111988 93.272659 
L 480.289502 117.970549 
L 480.644529 93.258604 
L 480.822043 129.423239 
L 480.999556 88.546092 
L 481.17707 100.19419 
L 481.354584 127.823903 
L 481.532097 81.664818 
L 481.887125 115.739929 
L 482.242152 88.826525 
L 482.419666 96.178161 
L 482.59718 116.389256 
L 482.952207 89.627115 
L 483.129721 128.374037 
L 483.307234 84.846616 
L 483.484748 116.423166 
L 483.839775 89.598076 
L 484.017289 128.361271 
L 484.194803 84.195329 
L 484.372316 97.813627 
L 484.54983 128.613508 
L 485.259885 83.344666 
L 485.437398 97.931898 
L 485.614912 90.786281 
L 485.792426 128.495245 
L 485.96994 85.433355 
L 486.324967 116.733586 
L 486.502481 106.158408 
L 486.679994 116.628812 
L 487.035022 91.150943 
L 487.212535 128.475984 
L 487.390049 84.860489 
L 487.567563 97.961902 
L 487.745076 97.846463 
L 487.92259 116.840776 
L 488.277617 90.695418 
L 488.455131 128.550616 
L 488.632645 85.202746 
L 488.810158 84.716927 
L 488.987672 98.168183 
L 489.165186 128.799794 
L 489.697727 90.981503 
L 489.87524 128.58896 
L 490.052754 85.392321 
L 490.407782 116.993329 
L 490.762809 91.480686 
L 490.940323 116.912263 
L 491.29535 90.855985 
L 491.472864 128.658338 
L 491.650377 85.992017 
L 491.827891 97.991078 
L 491.827891 97.991078 
" style="fill:none;stroke:#000000;stroke-linecap:square;"/>
   </g>
   <g id="line2d_11">
    <path clip-path="url(#p3384a1d511)" d="M 52.659044 139.55625 
L 52.659044 10.8 
" style="fill:none;stroke:#1f77b4;stroke-dasharray:3.7,1.6;stroke-dashoffset:0;"/>
   </g>
   <g id="line2d_12">
    <path clip-path="url(#p3384a1d511)" d="M 81.771288 139.55625 
L 81.771288 10.8 
" style="fill:none;stroke:#1f77b4;stroke-dasharray:3.7,1.6;stroke-dashoffset:0;"/>
   </g>
   <g id="line2d_13">
    <path clip-path="url(#p3384a1d511)" d="M 146.563781 139.55625 
L 146.563781 10.8 
" style="fill:none;stroke:#1f77b4;stroke-dasharray:3.7,1.6;stroke-dashoffset:0;"/>
   </g>
   <g id="line2d_14">
    <path clip-path="url(#p3384a1d511)" d="M 157.924657 139.55625 
L 157.924657 10.8 
" style="fill:none;stroke:#1f77b4;stroke-dasharray:3.7,1.6;stroke-dashoffset:0;"/>
   </g>
   <g id="line2d_15">
    <path clip-path="url(#p3384a1d511)" d="M 162.89504 139.55625 
L 162.89504 10.8 
" style="fill:none;stroke:#1f77b4;stroke-dasharray:3.7,1.6;stroke-dashoffset:0;"/>
   </g>
   <g id="line2d_16">
    <path clip-path="url(#p3384a1d511)" d="M 254.137072 139.55625 
L 254.137072 10.8 
" style="fill:none;stroke:#1f77b4;stroke-dasharray:3.7,1.6;stroke-dashoffset:0;"/>
   </g>
   <g id="line2d_17">
    <path clip-path="url(#p3384a1d511)" d="M 369.343451 139.55625 
L 369.343451 10.8 
" style="fill:none;stroke:#1f77b4;stroke-dasharray:3.7,1.6;stroke-dashoffset:0;"/>
   </g>
   <g id="line2d_18">
    <path clip-path="url(#p3384a1d511)" d="M 374.668861 139.55625 
L 374.668861 10.8 
" style="fill:none;stroke:#1f77b4;stroke-dasharray:3.7,1.6;stroke-dashoffset:0;"/>
   </g>
   <g id="line2d_19">
    <path clip-path="url(#p3384a1d511)" d="M 385.497196 139.55625 
L 385.497196 10.8 
" style="fill:none;stroke:#1f77b4;stroke-dasharray:3.7,1.6;stroke-dashoffset:0;"/>
   </g>
   <g id="patch_3">
    <path d="M 36.682813 139.55625 
L 36.682813 10.8 
" style="fill:none;stroke:#000000;stroke-linecap:square;stroke-linejoin:miter;stroke-width:0.8;"/>
   </g>
   <g id="patch_4">
    <path d="M 36.682813 139.55625 
L 491.827891 139.55625 
" style="fill:none;stroke:#000000;stroke-linecap:square;stroke-linejoin:miter;stroke-width:0.8;"/>
   </g>
  </g>
 </g>
 <defs>
  <clipPath id="p3384a1d511">
   <rect height="128.75625" width="455.145078" x="36.682813" y="10.8"/>
  </clipPath>
 </defs>
</svg>
