<?xml version="1.0" encoding="utf-8" standalone="no"?>
<!DOCTYPE svg PUBLIC "-//W3C//DTD SVG 1.1//EN"
  "http://www.w3.org/Graphics/SVG/1.1/DTD/svg11.dtd">
<!-- Created with matplotlib (https://matplotlib.org/) -->
<svg height="216pt" version="1.1" viewBox="0 0 507.6 216" width="507.6pt" xmlns="http://www.w3.org/2000/svg" xmlns:xlink="http://www.w3.org/1999/xlink">
 <defs>
  <style type="text/css">
*{stroke-linecap:butt;stroke-linejoin:round;}
  </style>
 </defs>
 <g id="figure_1">
  <g id="patch_1">
   <path d="M 0 216 
L 507.6 216 
L 507.6 0 
L 0 0 
z
" style="fill:#ffffff;"/>
  </g>
  <g id="axes_1">
   <g id="patch_2">
    <path d="M 45.021875 175.55625 
L 259.590234 175.55625 
L 259.590234 14.423438 
L 45.021875 14.423438 
z
" style="fill:#ffffff;"/>
   </g>
   <g id="matplotlib.axis_1">
    <g id="xtick_1">
     <g id="line2d_1">
      <defs>
       <path d="M 0 0 
L 0 3.5 
" id="mf2cc218e35" style="stroke:#000000;stroke-width:0.8;"/>
      </defs>
      <g>
       <use style="stroke:#000000;stroke-width:0.8;" x="45.021875" xlink:href="#mf2cc218e35" y="175.55625"/>
      </g>
     </g>
     <g id="text_1">
      <!-- 1 -->
      <defs>
       <path d="M 7.625 0 
L 7.625 7.46875 
L 25.140625 7.46875 
L 25.140625 60.40625 
L 9.625 49.3125 
L 9.625 57.625 
L 25.875 68.796875 
L 33.984375 68.796875 
L 33.984375 7.46875 
L 50.734375 7.46875 
L 50.734375 0 
z
" id="LiberationSans-49"/>
      </defs>
      <g transform="translate(42.241406 189.803125)scale(0.1 -0.1)">
       <use xlink:href="#LiberationSans-49"/>
      </g>
     </g>
    </g>
    <g id="xtick_2">
     <g id="line2d_2">
      <g>
       <use style="stroke:#000000;stroke-width:0.8;" x="68.862804" xlink:href="#mf2cc218e35" y="175.55625"/>
      </g>
     </g>
     <g id="text_2">
      <!-- 2 -->
      <defs>
       <path d="M 5.03125 0 
L 5.03125 6.203125 
Q 7.515625 11.921875 11.109375 16.28125 
Q 14.703125 20.65625 18.65625 24.1875 
Q 22.609375 27.734375 26.484375 30.765625 
Q 30.375 33.796875 33.5 36.8125 
Q 36.625 39.84375 38.546875 43.15625 
Q 40.484375 46.484375 40.484375 50.6875 
Q 40.484375 53.609375 39.59375 55.828125 
Q 38.71875 58.0625 37.0625 59.5625 
Q 35.40625 61.078125 33.078125 61.828125 
Q 30.765625 62.59375 27.9375 62.59375 
Q 25.296875 62.59375 22.96875 61.859375 
Q 20.65625 61.140625 18.84375 59.671875 
Q 17.046875 58.203125 15.890625 56.03125 
Q 14.75 53.859375 14.40625 50.984375 
L 5.421875 51.8125 
Q 5.859375 55.515625 7.46875 58.78125 
Q 9.078125 62.0625 11.90625 64.53125 
Q 14.75 67 18.71875 68.40625 
Q 22.703125 69.828125 27.9375 69.828125 
Q 33.0625 69.828125 37.0625 68.609375 
Q 41.0625 67.390625 43.8125 64.984375 
Q 46.578125 62.59375 48.046875 59.078125 
Q 49.515625 55.5625 49.515625 50.984375 
Q 49.515625 47.515625 48.265625 44.390625 
Q 47.015625 41.265625 44.9375 38.421875 
Q 42.875 35.59375 40.140625 32.953125 
Q 37.40625 30.328125 34.421875 27.8125 
Q 31.453125 25.296875 28.421875 22.828125 
Q 25.390625 20.359375 22.71875 17.859375 
Q 20.0625 15.375 17.96875 12.8125 
Q 15.875 10.25 14.703125 7.46875 
L 50.59375 7.46875 
L 50.59375 0 
z
" id="LiberationSans-50"/>
      </defs>
      <g transform="translate(66.082335 189.803125)scale(0.1 -0.1)">
       <use xlink:href="#LiberationSans-50"/>
      </g>
     </g>
    </g>
    <g id="xtick_3">
     <g id="line2d_3">
      <g>
       <use style="stroke:#000000;stroke-width:0.8;" x="92.703733" xlink:href="#mf2cc218e35" y="175.55625"/>
      </g>
     </g>
     <g id="text_3">
      <!-- 3 -->
      <defs>
       <path d="M 51.21875 19 
Q 51.21875 14.265625 49.671875 10.546875 
Q 48.140625 6.84375 45.1875 4.265625 
Q 42.234375 1.703125 37.859375 0.359375 
Q 33.5 -0.984375 27.875 -0.984375 
Q 21.484375 -0.984375 17.109375 0.609375 
Q 12.75 2.203125 9.90625 4.8125 
Q 7.078125 7.421875 5.65625 10.765625 
Q 4.25 14.109375 3.8125 17.671875 
L 12.890625 18.5 
Q 13.28125 15.765625 14.328125 13.515625 
Q 15.375 11.28125 17.1875 9.671875 
Q 19 8.0625 21.625 7.171875 
Q 24.265625 6.296875 27.875 6.296875 
Q 34.515625 6.296875 38.296875 9.5625 
Q 42.09375 12.84375 42.09375 19.28125 
Q 42.09375 23.09375 40.40625 25.40625 
Q 38.71875 27.734375 36.203125 29.03125 
Q 33.6875 30.328125 30.734375 30.765625 
Q 27.78125 31.203125 25.296875 31.203125 
L 20.3125 31.203125 
L 20.3125 38.8125 
L 25.09375 38.8125 
Q 27.59375 38.8125 30.265625 39.328125 
Q 32.953125 39.84375 35.171875 41.1875 
Q 37.40625 42.53125 38.84375 44.828125 
Q 40.28125 47.125 40.28125 50.6875 
Q 40.28125 56.203125 37.03125 59.390625 
Q 33.796875 62.59375 27.390625 62.59375 
Q 21.578125 62.59375 17.984375 59.609375 
Q 14.40625 56.640625 13.8125 51.21875 
L 4.984375 51.90625 
Q 5.515625 56.453125 7.46875 59.8125 
Q 9.421875 63.1875 12.421875 65.40625 
Q 15.4375 67.625 19.28125 68.71875 
Q 23.140625 69.828125 27.484375 69.828125 
Q 33.25 69.828125 37.390625 68.375 
Q 41.546875 66.9375 44.1875 64.46875 
Q 46.828125 62.015625 48.0625 58.6875 
Q 49.3125 55.375 49.3125 51.609375 
Q 49.3125 48.578125 48.484375 45.9375 
Q 47.65625 43.3125 45.890625 41.203125 
Q 44.140625 39.109375 41.421875 37.59375 
Q 38.71875 36.078125 34.90625 35.296875 
L 34.90625 35.109375 
Q 39.0625 34.671875 42.140625 33.21875 
Q 45.21875 31.78125 47.21875 29.625 
Q 49.21875 27.484375 50.21875 24.75 
Q 51.21875 22.015625 51.21875 19 
z
" id="LiberationSans-51"/>
      </defs>
      <g transform="translate(89.923264 189.803125)scale(0.1 -0.1)">
       <use xlink:href="#LiberationSans-51"/>
      </g>
     </g>
    </g>
    <g id="xtick_4">
     <g id="line2d_4">
      <g>
       <use style="stroke:#000000;stroke-width:0.8;" x="116.544661" xlink:href="#mf2cc218e35" y="175.55625"/>
      </g>
     </g>
     <g id="text_4">
      <!-- 4 -->
      <defs>
       <path d="M 43.015625 15.578125 
L 43.015625 0 
L 34.71875 0 
L 34.71875 15.578125 
L 2.296875 15.578125 
L 2.296875 22.40625 
L 33.796875 68.796875 
L 43.015625 68.796875 
L 43.015625 22.515625 
L 52.6875 22.515625 
L 52.6875 15.578125 
z
M 34.71875 58.890625 
Q 34.625 58.640625 34.234375 57.9375 
Q 33.84375 57.234375 33.34375 56.34375 
Q 32.859375 55.46875 32.34375 54.5625 
Q 31.84375 53.65625 31.453125 53.078125 
L 13.8125 27.09375 
Q 13.578125 26.703125 13.109375 26.0625 
Q 12.640625 25.4375 12.15625 24.78125 
Q 11.671875 24.125 11.171875 23.484375 
Q 10.6875 22.859375 10.40625 22.515625 
L 34.71875 22.515625 
z
" id="LiberationSans-52"/>
      </defs>
      <g transform="translate(113.764193 189.803125)scale(0.1 -0.1)">
       <use xlink:href="#LiberationSans-52"/>
      </g>
     </g>
    </g>
    <g id="xtick_5">
     <g id="line2d_5">
      <g>
       <use style="stroke:#000000;stroke-width:0.8;" x="140.38559" xlink:href="#mf2cc218e35" y="175.55625"/>
      </g>
     </g>
     <g id="text_5">
      <!-- 5 -->
      <defs>
       <path d="M 51.421875 22.40625 
Q 51.421875 17.234375 49.859375 12.9375 
Q 48.296875 8.640625 45.21875 5.53125 
Q 42.140625 2.4375 37.578125 0.71875 
Q 33.015625 -0.984375 27 -0.984375 
Q 21.578125 -0.984375 17.546875 0.28125 
Q 13.53125 1.5625 10.734375 3.78125 
Q 7.953125 6 6.3125 8.984375 
Q 4.6875 11.96875 4 15.375 
L 12.890625 16.40625 
Q 13.421875 14.453125 14.390625 12.625 
Q 15.375 10.796875 17.0625 9.34375 
Q 18.75 7.90625 21.21875 7.046875 
Q 23.6875 6.203125 27.203125 6.203125 
Q 30.609375 6.203125 33.390625 7.25 
Q 36.1875 8.296875 38.15625 10.34375 
Q 40.140625 12.40625 41.203125 15.375 
Q 42.28125 18.359375 42.28125 22.21875 
Q 42.28125 25.390625 41.25 28.046875 
Q 40.234375 30.71875 38.328125 32.640625 
Q 36.421875 34.578125 33.65625 35.640625 
Q 30.90625 36.71875 27.390625 36.71875 
Q 25.203125 36.71875 23.34375 36.328125 
Q 21.484375 35.9375 19.890625 35.25 
Q 18.3125 34.578125 17.015625 33.671875 
Q 15.71875 32.765625 14.59375 31.78125 
L 6 31.78125 
L 8.296875 68.796875 
L 47.40625 68.796875 
L 47.40625 61.328125 
L 16.3125 61.328125 
L 14.984375 39.5 
Q 17.328125 41.3125 20.84375 42.59375 
Q 24.359375 43.890625 29.203125 43.890625 
Q 34.328125 43.890625 38.421875 42.328125 
Q 42.53125 40.765625 45.40625 37.90625 
Q 48.296875 35.0625 49.859375 31.109375 
Q 51.421875 27.15625 51.421875 22.40625 
z
" id="LiberationSans-53"/>
      </defs>
      <g transform="translate(137.605122 189.803125)scale(0.1 -0.1)">
       <use xlink:href="#LiberationSans-53"/>
      </g>
     </g>
    </g>
    <g id="xtick_6">
     <g id="line2d_6">
      <g>
       <use style="stroke:#000000;stroke-width:0.8;" x="164.226519" xlink:href="#mf2cc218e35" y="175.55625"/>
      </g>
     </g>
     <g id="text_6">
      <!-- 6 -->
      <defs>
       <path d="M 51.21875 22.515625 
Q 51.21875 17.328125 49.78125 13 
Q 48.34375 8.6875 45.53125 5.578125 
Q 42.71875 2.484375 38.5625 0.75 
Q 34.421875 -0.984375 29 -0.984375 
Q 23 -0.984375 18.5 1.3125 
Q 14.015625 3.609375 11.03125 7.921875 
Q 8.0625 12.25 6.5625 18.53125 
Q 5.078125 24.8125 5.078125 32.8125 
Q 5.078125 42 6.765625 48.921875 
Q 8.453125 55.859375 11.625 60.5 
Q 14.796875 65.140625 19.359375 67.484375 
Q 23.921875 69.828125 29.6875 69.828125 
Q 33.203125 69.828125 36.28125 69.09375 
Q 39.359375 68.359375 41.875 66.71875 
Q 44.390625 65.09375 46.28125 62.40625 
Q 48.1875 59.71875 49.3125 55.8125 
L 40.921875 54.296875 
Q 39.546875 58.734375 36.546875 60.71875 
Q 33.546875 62.703125 29.59375 62.703125 
Q 25.984375 62.703125 23.046875 60.984375 
Q 20.125 59.28125 18.0625 55.875 
Q 16.015625 52.484375 14.90625 47.359375 
Q 13.8125 42.234375 13.8125 35.40625 
Q 16.21875 39.84375 20.5625 42.15625 
Q 24.90625 44.484375 30.515625 44.484375 
Q 35.203125 44.484375 39.015625 42.96875 
Q 42.828125 41.453125 45.53125 38.59375 
Q 48.25 35.75 49.734375 31.671875 
Q 51.21875 27.59375 51.21875 22.515625 
z
M 42.28125 22.125 
Q 42.28125 25.6875 41.40625 28.5625 
Q 40.53125 31.453125 38.765625 33.46875 
Q 37.015625 35.5 34.421875 36.59375 
Q 31.84375 37.703125 28.421875 37.703125 
Q 26.03125 37.703125 23.578125 36.984375 
Q 21.140625 36.28125 19.15625 34.6875 
Q 17.1875 33.109375 15.9375 30.515625 
Q 14.703125 27.9375 14.703125 24.21875 
Q 14.703125 20.40625 15.671875 17.109375 
Q 16.65625 13.8125 18.484375 11.375 
Q 20.3125 8.9375 22.890625 7.515625 
Q 25.484375 6.109375 28.71875 6.109375 
Q 31.890625 6.109375 34.40625 7.203125 
Q 36.921875 8.296875 38.671875 10.375 
Q 40.4375 12.453125 41.359375 15.421875 
Q 42.28125 18.40625 42.28125 22.125 
z
" id="LiberationSans-54"/>
      </defs>
      <g transform="translate(161.44605 189.803125)scale(0.1 -0.1)">
       <use xlink:href="#LiberationSans-54"/>
      </g>
     </g>
    </g>
    <g id="xtick_7">
     <g id="line2d_7">
      <g>
       <use style="stroke:#000000;stroke-width:0.8;" x="188.067448" xlink:href="#mf2cc218e35" y="175.55625"/>
      </g>
     </g>
     <g id="text_7">
      <!-- 7 -->
      <defs>
       <path d="M 50.59375 61.671875 
Q 45.40625 53.765625 41.0625 46.453125 
Q 36.71875 39.15625 33.59375 31.75 
Q 30.46875 24.359375 28.734375 16.578125 
Q 27 8.796875 27 0 
L 17.828125 0 
Q 17.828125 8.25 19.78125 16.1875 
Q 21.734375 24.125 25.046875 31.765625 
Q 28.375 39.40625 32.765625 46.78125 
Q 37.15625 54.15625 42.09375 61.328125 
L 5.125 61.328125 
L 5.125 68.796875 
L 50.59375 68.796875 
z
" id="LiberationSans-55"/>
      </defs>
      <g transform="translate(185.286979 189.803125)scale(0.1 -0.1)">
       <use xlink:href="#LiberationSans-55"/>
      </g>
     </g>
    </g>
    <g id="xtick_8">
     <g id="line2d_8">
      <g>
       <use style="stroke:#000000;stroke-width:0.8;" x="211.908377" xlink:href="#mf2cc218e35" y="175.55625"/>
      </g>
     </g>
     <g id="text_8">
      <!-- 8 -->
      <defs>
       <path d="M 51.265625 19.1875 
Q 51.265625 14.796875 49.875 11.109375 
Q 48.484375 7.421875 45.625 4.734375 
Q 42.78125 2.046875 38.328125 0.53125 
Q 33.890625 -0.984375 27.828125 -0.984375 
Q 21.78125 -0.984375 17.359375 0.53125 
Q 12.9375 2.046875 10.03125 4.703125 
Q 7.125 7.375 5.734375 11.0625 
Q 4.34375 14.75 4.34375 19.09375 
Q 4.34375 22.859375 5.484375 25.78125 
Q 6.640625 28.71875 8.5625 30.828125 
Q 10.5 32.953125 12.96875 34.25 
Q 15.4375 35.546875 18.0625 35.984375 
L 18.0625 36.1875 
Q 15.1875 36.859375 12.90625 38.375 
Q 10.640625 39.890625 9.09375 42.015625 
Q 7.5625 44.140625 6.75 46.71875 
Q 5.953125 49.3125 5.953125 52.203125 
Q 5.953125 55.8125 7.34375 59 
Q 8.734375 62.203125 11.46875 64.625 
Q 14.203125 67.046875 18.25 68.4375 
Q 22.3125 69.828125 27.640625 69.828125 
Q 33.25 69.828125 37.375 68.40625 
Q 41.5 67 44.203125 64.578125 
Q 46.921875 62.15625 48.234375 58.9375 
Q 49.5625 55.71875 49.5625 52.09375 
Q 49.5625 49.265625 48.75 46.671875 
Q 47.953125 44.09375 46.40625 41.96875 
Q 44.875 39.84375 42.59375 38.34375 
Q 40.328125 36.859375 37.359375 36.28125 
L 37.359375 36.078125 
Q 40.328125 35.59375 42.859375 34.296875 
Q 45.40625 33.015625 47.265625 30.890625 
Q 49.125 28.765625 50.1875 25.828125 
Q 51.265625 22.90625 51.265625 19.1875 
z
M 40.4375 51.609375 
Q 40.4375 54.203125 39.765625 56.34375 
Q 39.109375 58.5 37.59375 60.03125 
Q 36.078125 61.578125 33.640625 62.421875 
Q 31.203125 63.28125 27.640625 63.28125 
Q 24.171875 63.28125 21.78125 62.421875 
Q 19.390625 61.578125 17.84375 60.03125 
Q 16.3125 58.5 15.625 56.34375 
Q 14.9375 54.203125 14.9375 51.609375 
Q 14.9375 49.5625 15.46875 47.40625 
Q 16.015625 45.265625 17.421875 43.5 
Q 18.84375 41.75 21.328125 40.625 
Q 23.828125 39.5 27.734375 39.5 
Q 31.890625 39.5 34.40625 40.625 
Q 36.921875 41.75 38.25 43.5 
Q 39.59375 45.265625 40.015625 47.40625 
Q 40.4375 49.5625 40.4375 51.609375 
z
M 42.140625 20.015625 
Q 42.140625 22.515625 41.453125 24.828125 
Q 40.765625 27.15625 39.109375 28.9375 
Q 37.453125 30.71875 34.640625 31.8125 
Q 31.84375 32.90625 27.640625 32.90625 
Q 23.78125 32.90625 21.0625 31.8125 
Q 18.359375 30.71875 16.671875 28.90625 
Q 14.984375 27.09375 14.203125 24.71875 
Q 13.421875 22.359375 13.421875 19.828125 
Q 13.421875 16.65625 14.203125 14.03125 
Q 14.984375 11.421875 16.6875 9.546875 
Q 18.40625 7.671875 21.1875 6.640625 
Q 23.96875 5.609375 27.9375 5.609375 
Q 31.9375 5.609375 34.671875 6.640625 
Q 37.40625 7.671875 39.0625 9.546875 
Q 40.71875 11.421875 41.421875 14.078125 
Q 42.140625 16.75 42.140625 20.015625 
z
" id="LiberationSans-56"/>
      </defs>
      <g transform="translate(209.127908 189.803125)scale(0.1 -0.1)">
       <use xlink:href="#LiberationSans-56"/>
      </g>
     </g>
    </g>
    <g id="xtick_9">
     <g id="line2d_9">
      <g>
       <use style="stroke:#000000;stroke-width:0.8;" x="235.749306" xlink:href="#mf2cc218e35" y="175.55625"/>
      </g>
     </g>
     <g id="text_9">
      <!-- 9 -->
      <defs>
       <path d="M 50.875 35.796875 
Q 50.875 26.609375 49.140625 19.703125 
Q 47.40625 12.796875 44.1875 8.203125 
Q 40.96875 3.609375 36.34375 1.3125 
Q 31.734375 -0.984375 25.984375 -0.984375 
Q 22.015625 -0.984375 18.84375 -0.171875 
Q 15.671875 0.640625 13.171875 2.34375 
Q 10.6875 4.046875 8.921875 6.78125 
Q 7.171875 9.515625 6.109375 13.375 
L 14.5 14.703125 
Q 15.875 10.25 18.78125 8.171875 
Q 21.6875 6.109375 26.125 6.109375 
Q 29.6875 6.109375 32.640625 7.78125 
Q 35.59375 9.46875 37.671875 12.84375 
Q 39.75 16.21875 40.921875 21.296875 
Q 42.09375 26.375 42.1875 33.203125 
Q 41.15625 30.90625 39.375 29.09375 
Q 37.59375 27.296875 35.328125 26.046875 
Q 33.0625 24.8125 30.421875 24.140625 
Q 27.78125 23.484375 25.09375 23.484375 
Q 20.40625 23.484375 16.625 25.171875 
Q 12.84375 26.859375 10.203125 29.875 
Q 7.5625 32.90625 6.125 37.171875 
Q 4.6875 41.453125 4.6875 46.6875 
Q 4.6875 52 6.21875 56.296875 
Q 7.765625 60.59375 10.6875 63.59375 
Q 13.625 66.609375 17.890625 68.21875 
Q 22.171875 69.828125 27.59375 69.828125 
Q 39.0625 69.828125 44.96875 61.328125 
Q 50.875 52.828125 50.875 35.796875 
z
M 41.3125 44.28125 
Q 41.3125 48.09375 40.40625 51.453125 
Q 39.5 54.828125 37.71875 57.3125 
Q 35.9375 59.8125 33.328125 61.25 
Q 30.71875 62.703125 27.296875 62.703125 
Q 24.125 62.703125 21.578125 61.578125 
Q 19.046875 60.453125 17.28125 58.375 
Q 15.53125 56.296875 14.578125 53.3125 
Q 13.625 50.34375 13.625 46.6875 
Q 13.625 43.21875 14.46875 40.234375 
Q 15.328125 37.25 17.03125 35.078125 
Q 18.75 32.90625 21.28125 31.65625 
Q 23.828125 30.421875 27.203125 30.421875 
Q 29.640625 30.421875 32.15625 31.25 
Q 34.671875 32.078125 36.6875 33.78125 
Q 38.71875 35.5 40.015625 38.109375 
Q 41.3125 40.71875 41.3125 44.28125 
z
" id="LiberationSans-57"/>
      </defs>
      <g transform="translate(232.968837 189.803125)scale(0.1 -0.1)">
       <use xlink:href="#LiberationSans-57"/>
      </g>
     </g>
    </g>
    <g id="xtick_10">
     <g id="line2d_10">
      <g>
       <use style="stroke:#000000;stroke-width:0.8;" x="259.590234" xlink:href="#mf2cc218e35" y="175.55625"/>
      </g>
     </g>
     <g id="text_10">
      <!-- 10 -->
      <defs>
       <path d="M 51.703125 34.421875 
Q 51.703125 24.515625 49.828125 17.75 
Q 47.953125 10.984375 44.703125 6.8125 
Q 41.453125 2.640625 37.0625 0.828125 
Q 32.671875 -0.984375 27.6875 -0.984375 
Q 22.65625 -0.984375 18.3125 0.828125 
Q 13.96875 2.640625 10.765625 6.78125 
Q 7.5625 10.9375 5.734375 17.703125 
Q 3.90625 24.46875 3.90625 34.421875 
Q 3.90625 44.828125 5.734375 51.640625 
Q 7.5625 58.453125 10.78125 62.5 
Q 14.015625 66.546875 18.40625 68.1875 
Q 22.796875 69.828125 27.984375 69.828125 
Q 32.90625 69.828125 37.21875 68.1875 
Q 41.546875 66.546875 44.765625 62.5 
Q 48 58.453125 49.84375 51.640625 
Q 51.703125 44.828125 51.703125 34.421875 
z
M 42.78125 34.421875 
Q 42.78125 42.625 41.796875 48.0625 
Q 40.828125 53.515625 38.921875 56.765625 
Q 37.015625 60.015625 34.25 61.359375 
Q 31.5 62.703125 27.984375 62.703125 
Q 24.265625 62.703125 21.4375 61.328125 
Q 18.609375 59.96875 16.671875 56.71875 
Q 14.75 53.46875 13.765625 48.015625 
Q 12.796875 42.578125 12.796875 34.421875 
Q 12.796875 26.515625 13.796875 21.09375 
Q 14.796875 15.671875 16.71875 12.375 
Q 18.65625 9.078125 21.4375 7.640625 
Q 24.21875 6.203125 27.78125 6.203125 
Q 31.25 6.203125 34.03125 7.640625 
Q 36.8125 9.078125 38.734375 12.375 
Q 40.671875 15.671875 41.71875 21.09375 
Q 42.78125 26.515625 42.78125 34.421875 
z
" id="LiberationSans-48"/>
      </defs>
      <g transform="translate(254.029297 189.803125)scale(0.1 -0.1)">
       <use xlink:href="#LiberationSans-49"/>
       <use x="55.615234" xlink:href="#LiberationSans-48"/>
      </g>
     </g>
    </g>
    <g id="text_11">
     <!-- Batch -->
     <defs>
      <path d="M 61.421875 19.390625 
Q 61.421875 14.15625 59.375 10.46875 
Q 57.328125 6.78125 53.859375 4.46875 
Q 50.390625 2.15625 45.796875 1.078125 
Q 41.21875 0 36.140625 0 
L 8.203125 0 
L 8.203125 68.796875 
L 33.203125 68.796875 
Q 38.921875 68.796875 43.40625 67.84375 
Q 47.90625 66.890625 51.03125 64.84375 
Q 54.15625 62.796875 55.78125 59.640625 
Q 57.421875 56.5 57.421875 52.09375 
Q 57.421875 49.21875 56.609375 46.671875 
Q 55.8125 44.140625 54.171875 42.0625 
Q 52.546875 39.984375 50.078125 38.5 
Q 47.609375 37.015625 44.34375 36.28125 
Q 48.484375 35.796875 51.6875 34.375 
Q 54.890625 32.953125 57.03125 30.75 
Q 59.1875 28.5625 60.296875 25.65625 
Q 61.421875 22.75 61.421875 19.390625 
z
M 48.046875 50.984375 
Q 48.046875 56.546875 44.234375 58.9375 
Q 40.4375 61.328125 33.203125 61.328125 
L 17.53125 61.328125 
L 17.53125 39.546875 
L 33.203125 39.546875 
Q 37.3125 39.546875 40.140625 40.34375 
Q 42.96875 41.15625 44.71875 42.640625 
Q 46.484375 44.140625 47.265625 46.234375 
Q 48.046875 48.34375 48.046875 50.984375 
z
M 52 20.125 
Q 52 23.390625 50.796875 25.6875 
Q 49.609375 27.984375 47.359375 29.4375 
Q 45.125 30.90625 41.96875 31.59375 
Q 38.8125 32.28125 34.90625 32.28125 
L 17.53125 32.28125 
L 17.53125 7.46875 
L 35.640625 7.46875 
Q 39.203125 7.46875 42.203125 8.046875 
Q 45.21875 8.640625 47.390625 10.109375 
Q 49.5625 11.578125 50.78125 14.015625 
Q 52 16.453125 52 20.125 
z
" id="LiberationSans-66"/>
      <path d="M 20.21875 -0.984375 
Q 12.25 -0.984375 8.25 3.21875 
Q 4.25 7.421875 4.25 14.75 
Q 4.25 19.96875 6.21875 23.3125 
Q 8.203125 26.65625 11.390625 28.5625 
Q 14.59375 30.46875 18.6875 31.203125 
Q 22.796875 31.9375 27.046875 32.03125 
L 38.921875 32.234375 
L 38.921875 35.109375 
Q 38.921875 38.375 38.234375 40.671875 
Q 37.546875 42.96875 36.125 44.375 
Q 34.71875 45.796875 32.59375 46.453125 
Q 30.46875 47.125 27.59375 47.125 
Q 25.046875 47.125 23 46.75 
Q 20.953125 46.390625 19.4375 45.4375 
Q 17.921875 44.484375 16.984375 42.84375 
Q 16.0625 41.21875 15.765625 38.71875 
L 6.59375 39.546875 
Q 7.078125 42.671875 8.4375 45.28125 
Q 9.8125 47.90625 12.328125 49.796875 
Q 14.84375 51.703125 18.625 52.75 
Q 22.40625 53.8125 27.78125 53.8125 
Q 37.75 53.8125 42.765625 49.234375 
Q 47.796875 44.671875 47.796875 36.03125 
L 47.796875 13.28125 
Q 47.796875 9.375 48.828125 7.390625 
Q 49.859375 5.421875 52.734375 5.421875 
Q 53.46875 5.421875 54.203125 5.515625 
Q 54.9375 5.609375 55.609375 5.765625 
L 55.609375 0.296875 
Q 53.953125 -0.09375 52.3125 -0.28125 
Q 50.6875 -0.484375 48.828125 -0.484375 
Q 46.34375 -0.484375 44.5625 0.171875 
Q 42.78125 0.828125 41.65625 2.171875 
Q 40.53125 3.515625 39.9375 5.484375 
Q 39.359375 7.46875 39.203125 10.109375 
L 38.921875 10.109375 
Q 37.5 7.5625 35.8125 5.515625 
Q 34.125 3.46875 31.875 2.03125 
Q 29.640625 0.59375 26.78125 -0.1875 
Q 23.921875 -0.984375 20.21875 -0.984375 
z
M 22.21875 5.609375 
Q 26.421875 5.609375 29.5625 7.140625 
Q 32.71875 8.6875 34.78125 11.078125 
Q 36.859375 13.484375 37.890625 16.3125 
Q 38.921875 19.140625 38.921875 21.734375 
L 38.921875 26.078125 
L 29.296875 25.875 
Q 26.078125 25.828125 23.171875 25.40625 
Q 20.265625 25 18.0625 23.78125 
Q 15.875 22.5625 14.578125 20.359375 
Q 13.28125 18.171875 13.28125 14.59375 
Q 13.28125 10.296875 15.59375 7.953125 
Q 17.921875 5.609375 22.21875 5.609375 
z
" id="LiberationSans-97"/>
      <path d="M 27.046875 0.390625 
Q 25.046875 -0.140625 22.96875 -0.453125 
Q 20.90625 -0.78125 18.171875 -0.78125 
Q 7.625 -0.78125 7.625 11.1875 
L 7.625 46.4375 
L 1.515625 46.4375 
L 1.515625 52.828125 
L 7.953125 52.828125 
L 10.546875 64.65625 
L 16.40625 64.65625 
L 16.40625 52.828125 
L 26.171875 52.828125 
L 26.171875 46.4375 
L 16.40625 46.4375 
L 16.40625 13.09375 
Q 16.40625 9.28125 17.640625 7.734375 
Q 18.890625 6.203125 21.96875 6.203125 
Q 23.25 6.203125 24.4375 6.390625 
Q 25.640625 6.59375 27.046875 6.890625 
z
" id="LiberationSans-116"/>
      <path d="M 13.421875 26.65625 
Q 13.421875 22.125 14.078125 18.3125 
Q 14.75 14.5 16.3125 11.734375 
Q 17.875 8.984375 20.4375 7.46875 
Q 23 5.953125 26.765625 5.953125 
Q 31.453125 5.953125 34.59375 8.484375 
Q 37.75 11.03125 38.484375 16.3125 
L 47.359375 15.71875 
Q 46.921875 12.453125 45.453125 9.421875 
Q 44 6.390625 41.484375 4.09375 
Q 38.96875 1.8125 35.34375 0.40625 
Q 31.734375 -0.984375 27 -0.984375 
Q 20.796875 -0.984375 16.453125 1.109375 
Q 12.109375 3.21875 9.390625 6.90625 
Q 6.6875 10.59375 5.46875 15.59375 
Q 4.25 20.609375 4.25 26.46875 
Q 4.25 31.78125 5.125 35.859375 
Q 6 39.9375 7.59375 42.984375 
Q 9.1875 46.046875 11.328125 48.125 
Q 13.484375 50.203125 15.984375 51.4375 
Q 18.5 52.6875 21.28125 53.25 
Q 24.078125 53.8125 26.90625 53.8125 
Q 31.34375 53.8125 34.8125 52.59375 
Q 38.28125 51.375 40.796875 49.25 
Q 43.3125 47.125 44.875 44.234375 
Q 46.4375 41.359375 47.078125 38.03125 
L 38.03125 37.359375 
Q 37.359375 41.75 34.5625 44.328125 
Q 31.78125 46.921875 26.65625 46.921875 
Q 22.90625 46.921875 20.390625 45.671875 
Q 17.875 44.4375 16.3125 41.921875 
Q 14.75 39.40625 14.078125 35.59375 
Q 13.421875 31.78125 13.421875 26.65625 
z
" id="LiberationSans-99"/>
      <path d="M 15.484375 43.796875 
Q 16.9375 46.484375 18.640625 48.359375 
Q 20.359375 50.25 22.40625 51.46875 
Q 24.46875 52.6875 26.90625 53.25 
Q 29.34375 53.8125 32.375 53.8125 
Q 37.453125 53.8125 40.703125 52.4375 
Q 43.953125 51.078125 45.828125 48.609375 
Q 47.703125 46.140625 48.40625 42.71875 
Q 49.125 39.3125 49.125 35.203125 
L 49.125 0 
L 40.28125 0 
L 40.28125 33.5 
Q 40.28125 36.859375 39.859375 39.390625 
Q 39.453125 41.9375 38.28125 43.625 
Q 37.109375 45.3125 34.953125 46.15625 
Q 32.8125 47.015625 29.390625 47.015625 
Q 26.265625 47.015625 23.75 45.890625 
Q 21.234375 44.78125 19.453125 42.71875 
Q 17.671875 40.671875 16.6875 37.734375 
Q 15.71875 34.8125 15.71875 31.15625 
L 15.71875 0 
L 6.9375 0 
L 6.9375 72.46875 
L 15.71875 72.46875 
L 15.71875 53.609375 
Q 15.71875 52 15.671875 50.390625 
Q 15.625 48.78125 15.546875 47.40625 
Q 15.484375 46.046875 15.421875 45.09375 
Q 15.375 44.140625 15.328125 43.796875 
z
" id="LiberationSans-104"/>
     </defs>
     <g transform="translate(139.520898 203.125)scale(0.1 -0.1)">
      <use xlink:href="#LiberationSans-66"/>
      <use x="66.699219" xlink:href="#LiberationSans-97"/>
      <use x="122.314453" xlink:href="#LiberationSans-116"/>
      <use x="150.097656" xlink:href="#LiberationSans-99"/>
      <use x="200.097656" xlink:href="#LiberationSans-104"/>
     </g>
    </g>
   </g>
   <g id="matplotlib.axis_2">
    <g id="ytick_1">
     <g id="line2d_11">
      <path clip-path="url(#pc7df85a8ee)" d="M 45.021875 175.55625 
L 259.590234 175.55625 
" style="fill:none;stroke:#bbbbbb;stroke-linecap:square;stroke-width:0.8;"/>
     </g>
     <g id="line2d_12">
      <defs>
       <path d="M 0 0 
L -3.5 0 
" id="mece7aa911a" style="stroke:#000000;stroke-width:0.8;"/>
      </defs>
      <g>
       <use style="stroke:#000000;stroke-width:0.8;" x="45.021875" xlink:href="#mece7aa911a" y="175.55625"/>
      </g>
     </g>
     <g id="text_12">
      <!-- 0.0 -->
      <defs>
       <path d="M 9.125 0 
L 9.125 10.6875 
L 18.65625 10.6875 
L 18.65625 0 
z
" id="LiberationSans-46"/>
      </defs>
      <g transform="translate(24.121875 179.179688)scale(0.1 -0.1)">
       <use xlink:href="#LiberationSans-48"/>
       <use x="55.615234" xlink:href="#LiberationSans-46"/>
       <use x="83.398438" xlink:href="#LiberationSans-48"/>
      </g>
     </g>
    </g>
    <g id="ytick_2">
     <g id="line2d_13">
      <path clip-path="url(#pc7df85a8ee)" d="M 45.021875 159.442969 
L 259.590234 159.442969 
" style="fill:none;stroke:#bbbbbb;stroke-linecap:square;stroke-width:0.8;"/>
     </g>
     <g id="line2d_14">
      <g>
       <use style="stroke:#000000;stroke-width:0.8;" x="45.021875" xlink:href="#mece7aa911a" y="159.442969"/>
      </g>
     </g>
     <g id="text_13">
      <!-- 0.1 -->
      <g transform="translate(24.121875 163.066406)scale(0.1 -0.1)">
       <use xlink:href="#LiberationSans-48"/>
       <use x="55.615234" xlink:href="#LiberationSans-46"/>
       <use x="83.398438" xlink:href="#LiberationSans-49"/>
      </g>
     </g>
    </g>
    <g id="ytick_3">
     <g id="line2d_15">
      <path clip-path="url(#pc7df85a8ee)" d="M 45.021875 143.329688 
L 259.590234 143.329688 
" style="fill:none;stroke:#bbbbbb;stroke-linecap:square;stroke-width:0.8;"/>
     </g>
     <g id="line2d_16">
      <g>
       <use style="stroke:#000000;stroke-width:0.8;" x="45.021875" xlink:href="#mece7aa911a" y="143.329688"/>
      </g>
     </g>
     <g id="text_14">
      <!-- 0.2 -->
      <g transform="translate(24.121875 146.953125)scale(0.1 -0.1)">
       <use xlink:href="#LiberationSans-48"/>
       <use x="55.615234" xlink:href="#LiberationSans-46"/>
       <use x="83.398438" xlink:href="#LiberationSans-50"/>
      </g>
     </g>
    </g>
    <g id="ytick_4">
     <g id="line2d_17">
      <path clip-path="url(#pc7df85a8ee)" d="M 45.021875 127.216406 
L 259.590234 127.216406 
" style="fill:none;stroke:#bbbbbb;stroke-linecap:square;stroke-width:0.8;"/>
     </g>
     <g id="line2d_18">
      <g>
       <use style="stroke:#000000;stroke-width:0.8;" x="45.021875" xlink:href="#mece7aa911a" y="127.216406"/>
      </g>
     </g>
     <g id="text_15">
      <!-- 0.3 -->
      <g transform="translate(24.121875 130.839844)scale(0.1 -0.1)">
       <use xlink:href="#LiberationSans-48"/>
       <use x="55.615234" xlink:href="#LiberationSans-46"/>
       <use x="83.398438" xlink:href="#LiberationSans-51"/>
      </g>
     </g>
    </g>
    <g id="ytick_5">
     <g id="line2d_19">
      <path clip-path="url(#pc7df85a8ee)" d="M 45.021875 111.103125 
L 259.590234 111.103125 
" style="fill:none;stroke:#bbbbbb;stroke-linecap:square;stroke-width:0.8;"/>
     </g>
     <g id="line2d_20">
      <g>
       <use style="stroke:#000000;stroke-width:0.8;" x="45.021875" xlink:href="#mece7aa911a" y="111.103125"/>
      </g>
     </g>
     <g id="text_16">
      <!-- 0.4 -->
      <g transform="translate(24.121875 114.726562)scale(0.1 -0.1)">
       <use xlink:href="#LiberationSans-48"/>
       <use x="55.615234" xlink:href="#LiberationSans-46"/>
       <use x="83.398438" xlink:href="#LiberationSans-52"/>
      </g>
     </g>
    </g>
    <g id="ytick_6">
     <g id="line2d_21">
      <path clip-path="url(#pc7df85a8ee)" d="M 45.021875 94.989844 
L 259.590234 94.989844 
" style="fill:none;stroke:#bbbbbb;stroke-linecap:square;stroke-width:0.8;"/>
     </g>
     <g id="line2d_22">
      <g>
       <use style="stroke:#000000;stroke-width:0.8;" x="45.021875" xlink:href="#mece7aa911a" y="94.989844"/>
      </g>
     </g>
     <g id="text_17">
      <!-- 0.5 -->
      <g transform="translate(24.121875 98.613281)scale(0.1 -0.1)">
       <use xlink:href="#LiberationSans-48"/>
       <use x="55.615234" xlink:href="#LiberationSans-46"/>
       <use x="83.398438" xlink:href="#LiberationSans-53"/>
      </g>
     </g>
    </g>
    <g id="ytick_7">
     <g id="line2d_23">
      <path clip-path="url(#pc7df85a8ee)" d="M 45.021875 78.876562 
L 259.590234 78.876562 
" style="fill:none;stroke:#bbbbbb;stroke-linecap:square;stroke-width:0.8;"/>
     </g>
     <g id="line2d_24">
      <g>
       <use style="stroke:#000000;stroke-width:0.8;" x="45.021875" xlink:href="#mece7aa911a" y="78.876562"/>
      </g>
     </g>
     <g id="text_18">
      <!-- 0.6 -->
      <g transform="translate(24.121875 82.5)scale(0.1 -0.1)">
       <use xlink:href="#LiberationSans-48"/>
       <use x="55.615234" xlink:href="#LiberationSans-46"/>
       <use x="83.398438" xlink:href="#LiberationSans-54"/>
      </g>
     </g>
    </g>
    <g id="ytick_8">
     <g id="line2d_25">
      <path clip-path="url(#pc7df85a8ee)" d="M 45.021875 62.763281 
L 259.590234 62.763281 
" style="fill:none;stroke:#bbbbbb;stroke-linecap:square;stroke-width:0.8;"/>
     </g>
     <g id="line2d_26">
      <g>
       <use style="stroke:#000000;stroke-width:0.8;" x="45.021875" xlink:href="#mece7aa911a" y="62.763281"/>
      </g>
     </g>
     <g id="text_19">
      <!-- 0.7 -->
      <g transform="translate(24.121875 66.386719)scale(0.1 -0.1)">
       <use xlink:href="#LiberationSans-48"/>
       <use x="55.615234" xlink:href="#LiberationSans-46"/>
       <use x="83.398438" xlink:href="#LiberationSans-55"/>
      </g>
     </g>
    </g>
    <g id="ytick_9">
     <g id="line2d_27">
      <path clip-path="url(#pc7df85a8ee)" d="M 45.021875 46.65 
L 259.590234 46.65 
" style="fill:none;stroke:#bbbbbb;stroke-linecap:square;stroke-width:0.8;"/>
     </g>
     <g id="line2d_28">
      <g>
       <use style="stroke:#000000;stroke-width:0.8;" x="45.021875" xlink:href="#mece7aa911a" y="46.65"/>
      </g>
     </g>
     <g id="text_20">
      <!-- 0.8 -->
      <g transform="translate(24.121875 50.273438)scale(0.1 -0.1)">
       <use xlink:href="#LiberationSans-48"/>
       <use x="55.615234" xlink:href="#LiberationSans-46"/>
       <use x="83.398438" xlink:href="#LiberationSans-56"/>
      </g>
     </g>
    </g>
    <g id="ytick_10">
     <g id="line2d_29">
      <path clip-path="url(#pc7df85a8ee)" d="M 45.021875 30.536719 
L 259.590234 30.536719 
" style="fill:none;stroke:#bbbbbb;stroke-linecap:square;stroke-width:0.8;"/>
     </g>
     <g id="line2d_30">
      <g>
       <use style="stroke:#000000;stroke-width:0.8;" x="45.021875" xlink:href="#mece7aa911a" y="30.536719"/>
      </g>
     </g>
     <g id="text_21">
      <!-- 0.9 -->
      <g transform="translate(24.121875 34.160156)scale(0.1 -0.1)">
       <use xlink:href="#LiberationSans-48"/>
       <use x="55.615234" xlink:href="#LiberationSans-46"/>
       <use x="83.398438" xlink:href="#LiberationSans-57"/>
      </g>
     </g>
    </g>
    <g id="ytick_11">
     <g id="line2d_31">
      <path clip-path="url(#pc7df85a8ee)" d="M 45.021875 14.423438 
L 259.590234 14.423438 
" style="fill:none;stroke:#bbbbbb;stroke-linecap:square;stroke-width:0.8;"/>
     </g>
     <g id="line2d_32">
      <g>
       <use style="stroke:#000000;stroke-width:0.8;" x="45.021875" xlink:href="#mece7aa911a" y="14.423438"/>
      </g>
     </g>
     <g id="text_22">
      <!-- 1.0 -->
      <g transform="translate(24.121875 18.046875)scale(0.1 -0.1)">
       <use xlink:href="#LiberationSans-49"/>
       <use x="55.615234" xlink:href="#LiberationSans-46"/>
       <use x="83.398438" xlink:href="#LiberationSans-48"/>
      </g>
     </g>
    </g>
    <g id="text_23">
     <!-- Accuracy -->
     <defs>
      <path d="M 56.984375 0 
L 49.125 20.125 
L 17.78125 20.125 
L 9.859375 0 
L 0.203125 0 
L 28.265625 68.796875 
L 38.875 68.796875 
L 66.5 0 
z
M 37.5 50.09375 
Q 36.71875 52.046875 36 54.046875 
Q 35.296875 56.0625 34.765625 57.6875 
Q 34.234375 59.328125 33.859375 60.421875 
Q 33.5 61.53125 33.453125 61.765625 
Q 33.34375 61.53125 33 60.40625 
Q 32.671875 59.28125 32.109375 57.609375 
Q 31.546875 55.953125 30.828125 53.953125 
Q 30.125 51.953125 29.390625 50 
L 20.609375 27.390625 
L 46.34375 27.390625 
z
" id="LiberationSans-65"/>
      <path d="M 15.328125 52.828125 
L 15.328125 19.34375 
Q 15.328125 15.484375 15.890625 12.890625 
Q 16.453125 10.296875 17.71875 8.703125 
Q 19 7.125 21.0625 6.46875 
Q 23.140625 5.8125 26.21875 5.8125 
Q 29.34375 5.8125 31.859375 6.90625 
Q 34.375 8.015625 36.15625 10.078125 
Q 37.9375 12.15625 38.90625 15.203125 
Q 39.890625 18.265625 39.890625 22.21875 
L 39.890625 52.828125 
L 48.6875 52.828125 
L 48.6875 11.28125 
Q 48.6875 9.625 48.703125 7.78125 
Q 48.734375 5.953125 48.78125 4.3125 
Q 48.828125 2.6875 48.875 1.515625 
Q 48.921875 0.34375 48.96875 0 
L 40.671875 0 
Q 40.625 0.25 40.578125 1.3125 
Q 40.53125 2.390625 40.453125 3.78125 
Q 40.375 5.171875 40.328125 6.609375 
Q 40.28125 8.0625 40.28125 9.03125 
L 40.140625 9.03125 
Q 38.875 6.734375 37.359375 4.875 
Q 35.84375 3.03125 33.84375 1.734375 
Q 31.84375 0.4375 29.25 -0.265625 
Q 26.65625 -0.984375 23.25 -0.984375 
Q 18.84375 -0.984375 15.671875 0.09375 
Q 12.5 1.171875 10.453125 3.421875 
Q 8.40625 5.671875 7.453125 9.1875 
Q 6.5 12.703125 6.5 17.625 
L 6.5 52.828125 
z
" id="LiberationSans-117"/>
      <path d="M 6.9375 0 
L 6.9375 40.53125 
Q 6.9375 42.1875 6.90625 43.921875 
Q 6.890625 45.65625 6.828125 47.265625 
Q 6.78125 48.875 6.734375 50.28125 
Q 6.6875 51.703125 6.640625 52.828125 
L 14.9375 52.828125 
Q 14.984375 51.703125 15.0625 50.265625 
Q 15.140625 48.828125 15.203125 47.3125 
Q 15.28125 45.796875 15.296875 44.40625 
Q 15.328125 43.015625 15.328125 42.046875 
L 15.53125 42.046875 
Q 16.453125 45.0625 17.5 47.28125 
Q 18.5625 49.515625 19.96875 50.953125 
Q 21.390625 52.390625 23.34375 53.09375 
Q 25.296875 53.8125 28.078125 53.8125 
Q 29.15625 53.8125 30.125 53.640625 
Q 31.109375 53.46875 31.640625 53.328125 
L 31.640625 45.265625 
Q 30.765625 45.515625 29.59375 45.625 
Q 28.421875 45.75 26.953125 45.75 
Q 23.921875 45.75 21.796875 44.375 
Q 19.671875 43.015625 18.328125 40.59375 
Q 17 38.1875 16.359375 34.84375 
Q 15.71875 31.5 15.71875 27.546875 
L 15.71875 0 
z
" id="LiberationSans-114"/>
      <path d="M 29.5 0 
Q 27.640625 -4.78125 25.703125 -8.609375 
Q 23.78125 -12.453125 21.390625 -15.15625 
Q 19 -17.875 16.0625 -19.3125 
Q 13.140625 -20.75 9.328125 -20.75 
Q 7.671875 -20.75 6.25 -20.65625 
Q 4.828125 -20.5625 3.265625 -20.21875 
L 3.265625 -13.625 
Q 4.203125 -13.765625 5.375 -13.84375 
Q 6.546875 -13.921875 7.375 -13.921875 
Q 11.234375 -13.921875 14.546875 -11.03125 
Q 17.875 -8.15625 20.359375 -1.859375 
L 21.1875 0.25 
L 0.25 52.828125 
L 9.625 52.828125 
L 20.75 23.640625 
Q 21.234375 22.3125 21.984375 20.109375 
Q 22.75 17.921875 23.5 15.71875 
Q 24.265625 13.53125 24.84375 11.765625 
Q 25.4375 10.015625 25.53125 9.578125 
Q 25.6875 10.109375 26.25 11.6875 
Q 26.8125 13.28125 27.515625 15.234375 
Q 28.21875 17.1875 28.953125 19.1875 
Q 29.6875 21.1875 30.171875 22.65625 
L 40.53125 52.828125 
L 49.8125 52.828125 
z
" id="LiberationSans-121"/>
     </defs>
     <g transform="translate(18.046875 115.550781)rotate(-90)scale(0.1 -0.1)">
      <use xlink:href="#LiberationSans-65"/>
      <use x="66.699219" xlink:href="#LiberationSans-99"/>
      <use x="116.699219" xlink:href="#LiberationSans-99"/>
      <use x="166.699219" xlink:href="#LiberationSans-117"/>
      <use x="222.314453" xlink:href="#LiberationSans-114"/>
      <use x="255.615234" xlink:href="#LiberationSans-97"/>
      <use x="311.230469" xlink:href="#LiberationSans-99"/>
      <use x="361.230469" xlink:href="#LiberationSans-121"/>
     </g>
    </g>
   </g>
   <g id="LineCollection_1">
    <path clip-path="url(#pc7df85a8ee)" d="M 45.021875 40.82011 
L 45.021875 36.641679 
" style="fill:none;stroke:#d7191c;stroke-width:2;"/>
    <path clip-path="url(#pc7df85a8ee)" d="M 68.862804 15.969486 
L 68.862804 15.287662 
" style="fill:none;stroke:#d7191c;stroke-width:2;"/>
    <path clip-path="url(#pc7df85a8ee)" d="M 92.703733 36.663725 
L 92.703733 31.3454 
" style="fill:none;stroke:#d7191c;stroke-width:2;"/>
    <path clip-path="url(#pc7df85a8ee)" d="M 116.544661 62.845568 
L 116.544661 53.873735 
" style="fill:none;stroke:#d7191c;stroke-width:2;"/>
    <path clip-path="url(#pc7df85a8ee)" d="M 140.38559 27.916856 
L 140.38559 22.577981 
" style="fill:none;stroke:#d7191c;stroke-width:2;"/>
    <path clip-path="url(#pc7df85a8ee)" d="M 164.226519 27.114508 
L 164.226519 24.664271 
" style="fill:none;stroke:#d7191c;stroke-width:2;"/>
    <path clip-path="url(#pc7df85a8ee)" d="M 188.067448 62.824523 
L 188.067448 58.923753 
" style="fill:none;stroke:#d7191c;stroke-width:2;"/>
    <path clip-path="url(#pc7df85a8ee)" d="M 211.908377 94.786357 
L 211.908377 84.33438 
" style="fill:none;stroke:#d7191c;stroke-width:2;"/>
    <path clip-path="url(#pc7df85a8ee)" d="M 235.749306 59.231599 
L 235.749306 52.20494 
" style="fill:none;stroke:#d7191c;stroke-width:2;"/>
    <path clip-path="url(#pc7df85a8ee)" d="M 259.590234 102.405717 
L 259.590234 100.657955 
" style="fill:none;stroke:#d7191c;stroke-width:2;"/>
   </g>
   <g id="LineCollection_2">
    <path clip-path="url(#pc7df85a8ee)" d="M 45.021875 107.571481 
L 45.021875 106.006273 
" style="fill:none;stroke:#fdae61;stroke-width:2;"/>
    <path clip-path="url(#pc7df85a8ee)" d="M 68.862804 59.762819 
L 68.862804 57.926021 
" style="fill:none;stroke:#fdae61;stroke-width:2;"/>
    <path clip-path="url(#pc7df85a8ee)" d="M 92.703733 44.897319 
L 92.703733 44.345575 
" style="fill:none;stroke:#fdae61;stroke-width:2;"/>
    <path clip-path="url(#pc7df85a8ee)" d="M 116.544661 14.423438 
L 116.544661 14.423438 
" style="fill:none;stroke:#fdae61;stroke-width:2;"/>
    <path clip-path="url(#pc7df85a8ee)" d="M 140.38559 19.805017 
L 140.38559 19.347815 
" style="fill:none;stroke:#fdae61;stroke-width:2;"/>
    <path clip-path="url(#pc7df85a8ee)" d="M 164.226519 86.067818 
L 164.226519 84.039116 
" style="fill:none;stroke:#fdae61;stroke-width:2;"/>
    <path clip-path="url(#pc7df85a8ee)" d="M 188.067448 87.308907 
L 188.067448 86.146509 
" style="fill:none;stroke:#fdae61;stroke-width:2;"/>
    <path clip-path="url(#pc7df85a8ee)" d="M 211.908377 150.177326 
L 211.908377 149.909784 
" style="fill:none;stroke:#fdae61;stroke-width:2;"/>
    <path clip-path="url(#pc7df85a8ee)" d="M 235.749306 131.902315 
L 235.749306 131.846215 
" style="fill:none;stroke:#fdae61;stroke-width:2;"/>
    <path clip-path="url(#pc7df85a8ee)" d="M 259.590234 117.837208 
L 259.590234 115.884667 
" style="fill:none;stroke:#fdae61;stroke-width:2;"/>
   </g>
   <g id="LineCollection_3">
    <path clip-path="url(#pc7df85a8ee)" d="M 45.021875 74.257416 
L 45.021875 72.927249 
" style="fill:none;stroke:#7bad74;stroke-width:2;"/>
    <path clip-path="url(#pc7df85a8ee)" d="M 68.862804 50.005443 
L 68.862804 49.389599 
" style="fill:none;stroke:#7bad74;stroke-width:2;"/>
    <path clip-path="url(#pc7df85a8ee)" d="M 92.703733 43.279907 
L 92.703733 42.38 
" style="fill:none;stroke:#7bad74;stroke-width:2;"/>
    <path clip-path="url(#pc7df85a8ee)" d="M 116.544661 35.070076 
L 116.544661 33.743075 
" style="fill:none;stroke:#7bad74;stroke-width:2;"/>
    <path clip-path="url(#pc7df85a8ee)" d="M 140.38559 23.876422 
L 140.38559 18.711728 
" style="fill:none;stroke:#7bad74;stroke-width:2;"/>
    <path clip-path="url(#pc7df85a8ee)" d="M 164.226519 16.011416 
L 164.226519 15.525401 
" style="fill:none;stroke:#7bad74;stroke-width:2;"/>
    <path clip-path="url(#pc7df85a8ee)" d="M 188.067448 51.897925 
L 188.067448 50.687276 
" style="fill:none;stroke:#7bad74;stroke-width:2;"/>
    <path clip-path="url(#pc7df85a8ee)" d="M 211.908377 47.168381 
L 211.908377 40.410236 
" style="fill:none;stroke:#7bad74;stroke-width:2;"/>
    <path clip-path="url(#pc7df85a8ee)" d="M 235.749306 51.981182 
L 235.749306 46.442463 
" style="fill:none;stroke:#7bad74;stroke-width:2;"/>
    <path clip-path="url(#pc7df85a8ee)" d="M 259.590234 82.179147 
L 259.590234 80.98446 
" style="fill:none;stroke:#7bad74;stroke-width:2;"/>
   </g>
   <g id="LineCollection_4">
    <path clip-path="url(#pc7df85a8ee)" d="M 45.021875 120.310897 
L 45.021875 115.764647 
" style="fill:none;stroke:#2b83ba;stroke-width:2;"/>
    <path clip-path="url(#pc7df85a8ee)" d="M 68.862804 79.707877 
L 68.862804 72.210307 
" style="fill:none;stroke:#2b83ba;stroke-width:2;"/>
    <path clip-path="url(#pc7df85a8ee)" d="M 92.703733 89.752114 
L 92.703733 77.916877 
" style="fill:none;stroke:#2b83ba;stroke-width:2;"/>
    <path clip-path="url(#pc7df85a8ee)" d="M 116.544661 106.854611 
L 116.544661 95.602028 
" style="fill:none;stroke:#2b83ba;stroke-width:2;"/>
    <path clip-path="url(#pc7df85a8ee)" d="M 140.38559 87.035952 
L 140.38559 77.751397 
" style="fill:none;stroke:#2b83ba;stroke-width:2;"/>
    <path clip-path="url(#pc7df85a8ee)" d="M 164.226519 37.873401 
L 164.226519 30.941678 
" style="fill:none;stroke:#2b83ba;stroke-width:2;"/>
    <path clip-path="url(#pc7df85a8ee)" d="M 188.067448 69.416097 
L 188.067448 67.057266 
" style="fill:none;stroke:#2b83ba;stroke-width:2;"/>
    <path clip-path="url(#pc7df85a8ee)" d="M 211.908377 16.980597 
L 211.908377 15.914059 
" style="fill:none;stroke:#2b83ba;stroke-width:2;"/>
    <path clip-path="url(#pc7df85a8ee)" d="M 235.749306 46.126532 
L 235.749306 38.556429 
" style="fill:none;stroke:#2b83ba;stroke-width:2;"/>
    <path clip-path="url(#pc7df85a8ee)" d="M 259.590234 117.313593 
L 259.590234 113.998452 
" style="fill:none;stroke:#2b83ba;stroke-width:2;"/>
   </g>
   <g id="line2d_33">
    <path clip-path="url(#pc7df85a8ee)" d="M 68.862804 175.55625 
L 68.862804 14.423438 
" style="fill:none;stroke:#d7191c;stroke-dasharray:7.4,3.2;stroke-dashoffset:0;stroke-width:2;"/>
   </g>
   <g id="line2d_34">
    <defs>
     <path d="M 10 0 
L -10 -0 
" id="m64f5857387" style="stroke:#d7191c;stroke-width:2;"/>
    </defs>
    <g clip-path="url(#pc7df85a8ee)">
     <use style="fill:#d7191c;stroke:#d7191c;stroke-width:2;" x="45.021875" xlink:href="#m64f5857387" y="40.82011"/>
     <use style="fill:#d7191c;stroke:#d7191c;stroke-width:2;" x="68.862804" xlink:href="#m64f5857387" y="15.969486"/>
     <use style="fill:#d7191c;stroke:#d7191c;stroke-width:2;" x="92.703733" xlink:href="#m64f5857387" y="36.663725"/>
     <use style="fill:#d7191c;stroke:#d7191c;stroke-width:2;" x="116.544661" xlink:href="#m64f5857387" y="62.845568"/>
     <use style="fill:#d7191c;stroke:#d7191c;stroke-width:2;" x="140.38559" xlink:href="#m64f5857387" y="27.916856"/>
     <use style="fill:#d7191c;stroke:#d7191c;stroke-width:2;" x="164.226519" xlink:href="#m64f5857387" y="27.114508"/>
     <use style="fill:#d7191c;stroke:#d7191c;stroke-width:2;" x="188.067448" xlink:href="#m64f5857387" y="62.824523"/>
     <use style="fill:#d7191c;stroke:#d7191c;stroke-width:2;" x="211.908377" xlink:href="#m64f5857387" y="94.786357"/>
     <use style="fill:#d7191c;stroke:#d7191c;stroke-width:2;" x="235.749306" xlink:href="#m64f5857387" y="59.231599"/>
     <use style="fill:#d7191c;stroke:#d7191c;stroke-width:2;" x="259.590234" xlink:href="#m64f5857387" y="102.405717"/>
    </g>
   </g>
   <g id="line2d_35">
    <g clip-path="url(#pc7df85a8ee)">
     <use style="fill:#d7191c;stroke:#d7191c;stroke-width:2;" x="45.021875" xlink:href="#m64f5857387" y="36.641679"/>
     <use style="fill:#d7191c;stroke:#d7191c;stroke-width:2;" x="68.862804" xlink:href="#m64f5857387" y="15.287662"/>
     <use style="fill:#d7191c;stroke:#d7191c;stroke-width:2;" x="92.703733" xlink:href="#m64f5857387" y="31.3454"/>
     <use style="fill:#d7191c;stroke:#d7191c;stroke-width:2;" x="116.544661" xlink:href="#m64f5857387" y="53.873735"/>
     <use style="fill:#d7191c;stroke:#d7191c;stroke-width:2;" x="140.38559" xlink:href="#m64f5857387" y="22.577981"/>
     <use style="fill:#d7191c;stroke:#d7191c;stroke-width:2;" x="164.226519" xlink:href="#m64f5857387" y="24.664271"/>
     <use style="fill:#d7191c;stroke:#d7191c;stroke-width:2;" x="188.067448" xlink:href="#m64f5857387" y="58.923753"/>
     <use style="fill:#d7191c;stroke:#d7191c;stroke-width:2;" x="211.908377" xlink:href="#m64f5857387" y="84.33438"/>
     <use style="fill:#d7191c;stroke:#d7191c;stroke-width:2;" x="235.749306" xlink:href="#m64f5857387" y="52.20494"/>
     <use style="fill:#d7191c;stroke:#d7191c;stroke-width:2;" x="259.590234" xlink:href="#m64f5857387" y="100.657955"/>
    </g>
   </g>
   <g id="line2d_36">
    <path clip-path="url(#pc7df85a8ee)" d="M 116.544661 175.55625 
L 116.544661 14.423438 
" style="fill:none;stroke:#fdae61;stroke-dasharray:7.4,3.2;stroke-dashoffset:0;stroke-width:2;"/>
   </g>
   <g id="line2d_37">
    <defs>
     <path d="M 10 0 
L -10 -0 
" id="m7a00e14ee7" style="stroke:#fdae61;stroke-width:2;"/>
    </defs>
    <g clip-path="url(#pc7df85a8ee)">
     <use style="fill:#fdae61;stroke:#fdae61;stroke-width:2;" x="45.021875" xlink:href="#m7a00e14ee7" y="107.571481"/>
     <use style="fill:#fdae61;stroke:#fdae61;stroke-width:2;" x="68.862804" xlink:href="#m7a00e14ee7" y="59.762819"/>
     <use style="fill:#fdae61;stroke:#fdae61;stroke-width:2;" x="92.703733" xlink:href="#m7a00e14ee7" y="44.897319"/>
     <use style="fill:#fdae61;stroke:#fdae61;stroke-width:2;" x="116.544661" xlink:href="#m7a00e14ee7" y="14.423438"/>
     <use style="fill:#fdae61;stroke:#fdae61;stroke-width:2;" x="140.38559" xlink:href="#m7a00e14ee7" y="19.805017"/>
     <use style="fill:#fdae61;stroke:#fdae61;stroke-width:2;" x="164.226519" xlink:href="#m7a00e14ee7" y="86.067818"/>
     <use style="fill:#fdae61;stroke:#fdae61;stroke-width:2;" x="188.067448" xlink:href="#m7a00e14ee7" y="87.308907"/>
     <use style="fill:#fdae61;stroke:#fdae61;stroke-width:2;" x="211.908377" xlink:href="#m7a00e14ee7" y="150.177326"/>
     <use style="fill:#fdae61;stroke:#fdae61;stroke-width:2;" x="235.749306" xlink:href="#m7a00e14ee7" y="131.902315"/>
     <use style="fill:#fdae61;stroke:#fdae61;stroke-width:2;" x="259.590234" xlink:href="#m7a00e14ee7" y="117.837208"/>
    </g>
   </g>
   <g id="line2d_38">
    <g clip-path="url(#pc7df85a8ee)">
     <use style="fill:#fdae61;stroke:#fdae61;stroke-width:2;" x="45.021875" xlink:href="#m7a00e14ee7" y="106.006273"/>
     <use style="fill:#fdae61;stroke:#fdae61;stroke-width:2;" x="68.862804" xlink:href="#m7a00e14ee7" y="57.926021"/>
     <use style="fill:#fdae61;stroke:#fdae61;stroke-width:2;" x="92.703733" xlink:href="#m7a00e14ee7" y="44.345575"/>
     <use style="fill:#fdae61;stroke:#fdae61;stroke-width:2;" x="116.544661" xlink:href="#m7a00e14ee7" y="14.423438"/>
     <use style="fill:#fdae61;stroke:#fdae61;stroke-width:2;" x="140.38559" xlink:href="#m7a00e14ee7" y="19.347815"/>
     <use style="fill:#fdae61;stroke:#fdae61;stroke-width:2;" x="164.226519" xlink:href="#m7a00e14ee7" y="84.039116"/>
     <use style="fill:#fdae61;stroke:#fdae61;stroke-width:2;" x="188.067448" xlink:href="#m7a00e14ee7" y="86.146509"/>
     <use style="fill:#fdae61;stroke:#fdae61;stroke-width:2;" x="211.908377" xlink:href="#m7a00e14ee7" y="149.909784"/>
     <use style="fill:#fdae61;stroke:#fdae61;stroke-width:2;" x="235.749306" xlink:href="#m7a00e14ee7" y="131.846215"/>
     <use style="fill:#fdae61;stroke:#fdae61;stroke-width:2;" x="259.590234" xlink:href="#m7a00e14ee7" y="115.884667"/>
    </g>
   </g>
   <g id="line2d_39">
    <path clip-path="url(#pc7df85a8ee)" d="M 164.226519 175.55625 
L 164.226519 14.423438 
" style="fill:none;stroke:#7bad74;stroke-dasharray:7.4,3.2;stroke-dashoffset:0;stroke-width:2;"/>
   </g>
   <g id="line2d_40">
    <defs>
     <path d="M 10 0 
L -10 -0 
" id="mb6ebb52350" style="stroke:#7bad74;stroke-width:2;"/>
    </defs>
    <g clip-path="url(#pc7df85a8ee)">
     <use style="fill:#7bad74;stroke:#7bad74;stroke-width:2;" x="45.021875" xlink:href="#mb6ebb52350" y="74.257416"/>
     <use style="fill:#7bad74;stroke:#7bad74;stroke-width:2;" x="68.862804" xlink:href="#mb6ebb52350" y="50.005443"/>
     <use style="fill:#7bad74;stroke:#7bad74;stroke-width:2;" x="92.703733" xlink:href="#mb6ebb52350" y="43.279907"/>
     <use style="fill:#7bad74;stroke:#7bad74;stroke-width:2;" x="116.544661" xlink:href="#mb6ebb52350" y="35.070076"/>
     <use style="fill:#7bad74;stroke:#7bad74;stroke-width:2;" x="140.38559" xlink:href="#mb6ebb52350" y="23.876422"/>
     <use style="fill:#7bad74;stroke:#7bad74;stroke-width:2;" x="164.226519" xlink:href="#mb6ebb52350" y="16.011416"/>
     <use style="fill:#7bad74;stroke:#7bad74;stroke-width:2;" x="188.067448" xlink:href="#mb6ebb52350" y="51.897925"/>
     <use style="fill:#7bad74;stroke:#7bad74;stroke-width:2;" x="211.908377" xlink:href="#mb6ebb52350" y="47.168381"/>
     <use style="fill:#7bad74;stroke:#7bad74;stroke-width:2;" x="235.749306" xlink:href="#mb6ebb52350" y="51.981182"/>
     <use style="fill:#7bad74;stroke:#7bad74;stroke-width:2;" x="259.590234" xlink:href="#mb6ebb52350" y="82.179147"/>
    </g>
   </g>
   <g id="line2d_41">
    <g clip-path="url(#pc7df85a8ee)">
     <use style="fill:#7bad74;stroke:#7bad74;stroke-width:2;" x="45.021875" xlink:href="#mb6ebb52350" y="72.927249"/>
     <use style="fill:#7bad74;stroke:#7bad74;stroke-width:2;" x="68.862804" xlink:href="#mb6ebb52350" y="49.389599"/>
     <use style="fill:#7bad74;stroke:#7bad74;stroke-width:2;" x="92.703733" xlink:href="#mb6ebb52350" y="42.38"/>
     <use style="fill:#7bad74;stroke:#7bad74;stroke-width:2;" x="116.544661" xlink:href="#mb6ebb52350" y="33.743075"/>
     <use style="fill:#7bad74;stroke:#7bad74;stroke-width:2;" x="140.38559" xlink:href="#mb6ebb52350" y="18.711728"/>
     <use style="fill:#7bad74;stroke:#7bad74;stroke-width:2;" x="164.226519" xlink:href="#mb6ebb52350" y="15.525401"/>
     <use style="fill:#7bad74;stroke:#7bad74;stroke-width:2;" x="188.067448" xlink:href="#mb6ebb52350" y="50.687276"/>
     <use style="fill:#7bad74;stroke:#7bad74;stroke-width:2;" x="211.908377" xlink:href="#mb6ebb52350" y="40.410236"/>
     <use style="fill:#7bad74;stroke:#7bad74;stroke-width:2;" x="235.749306" xlink:href="#mb6ebb52350" y="46.442463"/>
     <use style="fill:#7bad74;stroke:#7bad74;stroke-width:2;" x="259.590234" xlink:href="#mb6ebb52350" y="80.98446"/>
    </g>
   </g>
   <g id="line2d_42">
    <path clip-path="url(#pc7df85a8ee)" d="M 211.908377 175.55625 
L 211.908377 14.423438 
" style="fill:none;stroke:#2b83ba;stroke-dasharray:7.4,3.2;stroke-dashoffset:0;stroke-width:2;"/>
   </g>
   <g id="line2d_43">
    <defs>
     <path d="M 10 0 
L -10 -0 
" id="mea9a62b975" style="stroke:#2b83ba;stroke-width:2;"/>
    </defs>
    <g clip-path="url(#pc7df85a8ee)">
     <use style="fill:#2b83ba;stroke:#2b83ba;stroke-width:2;" x="45.021875" xlink:href="#mea9a62b975" y="120.310897"/>
     <use style="fill:#2b83ba;stroke:#2b83ba;stroke-width:2;" x="68.862804" xlink:href="#mea9a62b975" y="79.707877"/>
     <use style="fill:#2b83ba;stroke:#2b83ba;stroke-width:2;" x="92.703733" xlink:href="#mea9a62b975" y="89.752114"/>
     <use style="fill:#2b83ba;stroke:#2b83ba;stroke-width:2;" x="116.544661" xlink:href="#mea9a62b975" y="106.854611"/>
     <use style="fill:#2b83ba;stroke:#2b83ba;stroke-width:2;" x="140.38559" xlink:href="#mea9a62b975" y="87.035952"/>
     <use style="fill:#2b83ba;stroke:#2b83ba;stroke-width:2;" x="164.226519" xlink:href="#mea9a62b975" y="37.873401"/>
     <use style="fill:#2b83ba;stroke:#2b83ba;stroke-width:2;" x="188.067448" xlink:href="#mea9a62b975" y="69.416097"/>
     <use style="fill:#2b83ba;stroke:#2b83ba;stroke-width:2;" x="211.908377" xlink:href="#mea9a62b975" y="16.980597"/>
     <use style="fill:#2b83ba;stroke:#2b83ba;stroke-width:2;" x="235.749306" xlink:href="#mea9a62b975" y="46.126532"/>
     <use style="fill:#2b83ba;stroke:#2b83ba;stroke-width:2;" x="259.590234" xlink:href="#mea9a62b975" y="117.313593"/>
    </g>
   </g>
   <g id="line2d_44">
    <g clip-path="url(#pc7df85a8ee)">
     <use style="fill:#2b83ba;stroke:#2b83ba;stroke-width:2;" x="45.021875" xlink:href="#mea9a62b975" y="115.764647"/>
     <use style="fill:#2b83ba;stroke:#2b83ba;stroke-width:2;" x="68.862804" xlink:href="#mea9a62b975" y="72.210307"/>
     <use style="fill:#2b83ba;stroke:#2b83ba;stroke-width:2;" x="92.703733" xlink:href="#mea9a62b975" y="77.916877"/>
     <use style="fill:#2b83ba;stroke:#2b83ba;stroke-width:2;" x="116.544661" xlink:href="#mea9a62b975" y="95.602028"/>
     <use style="fill:#2b83ba;stroke:#2b83ba;stroke-width:2;" x="140.38559" xlink:href="#mea9a62b975" y="77.751397"/>
     <use style="fill:#2b83ba;stroke:#2b83ba;stroke-width:2;" x="164.226519" xlink:href="#mea9a62b975" y="30.941678"/>
     <use style="fill:#2b83ba;stroke:#2b83ba;stroke-width:2;" x="188.067448" xlink:href="#mea9a62b975" y="67.057266"/>
     <use style="fill:#2b83ba;stroke:#2b83ba;stroke-width:2;" x="211.908377" xlink:href="#mea9a62b975" y="15.914059"/>
     <use style="fill:#2b83ba;stroke:#2b83ba;stroke-width:2;" x="235.749306" xlink:href="#mea9a62b975" y="38.556429"/>
     <use style="fill:#2b83ba;stroke:#2b83ba;stroke-width:2;" x="259.590234" xlink:href="#mea9a62b975" y="113.998452"/>
    </g>
   </g>
   <g id="line2d_45">
    <path clip-path="url(#pc7df85a8ee)" d="M 45.021875 38.730894 
L 68.862804 15.628574 
L 92.703733 34.004562 
L 116.544661 58.359652 
L 140.38559 25.247418 
L 164.226519 25.889389 
L 188.067448 60.874138 
L 211.908377 89.560369 
L 235.749306 55.718269 
L 259.590234 101.531836 
" style="fill:none;stroke:#d7191c;stroke-linecap:square;stroke-width:2;"/>
   </g>
   <g id="line2d_46">
    <path clip-path="url(#pc7df85a8ee)" d="M 45.021875 106.788877 
L 68.862804 58.84442 
L 92.703733 44.621447 
L 116.544661 14.423438 
L 140.38559 19.576416 
L 164.226519 85.053467 
L 188.067448 86.727708 
L 211.908377 150.043555 
L 235.749306 131.874265 
L 259.590234 116.860938 
" style="fill:none;stroke:#fdae61;stroke-linecap:square;stroke-width:2;"/>
   </g>
   <g id="line2d_47">
    <path clip-path="url(#pc7df85a8ee)" d="M 45.021875 73.592333 
L 68.862804 49.697521 
L 92.703733 42.829953 
L 116.544661 34.406575 
L 140.38559 21.294075 
L 164.226519 15.768409 
L 188.067448 51.292601 
L 211.908377 43.789309 
L 235.749306 49.211822 
L 259.590234 81.581803 
" style="fill:none;stroke:#7bad74;stroke-linecap:square;stroke-width:2;"/>
   </g>
   <g id="line2d_48">
    <path clip-path="url(#pc7df85a8ee)" d="M 45.021875 118.037772 
L 68.862804 75.959092 
L 92.703733 83.834495 
L 116.544661 101.228319 
L 140.38559 82.393675 
L 164.226519 34.40754 
L 188.067448 68.236682 
L 211.908377 16.447328 
L 235.749306 42.34148 
L 259.590234 115.656022 
" style="fill:none;stroke:#2b83ba;stroke-linecap:square;stroke-width:2;"/>
   </g>
   <g id="patch_3">
    <path d="M 45.021875 175.55625 
L 45.021875 14.423438 
" style="fill:none;stroke:#000000;stroke-linecap:square;stroke-linejoin:miter;stroke-width:0.8;"/>
   </g>
   <g id="patch_4">
    <path d="M 45.021875 175.55625 
L 259.590234 175.55625 
" style="fill:none;stroke:#000000;stroke-linecap:square;stroke-linejoin:miter;stroke-width:0.8;"/>
   </g>
  </g>
  <g id="axes_2">
   <g id="patch_5">
    <path d="M 279.451172 175.55625 
L 494.019531 175.55625 
L 494.019531 14.423438 
L 279.451172 14.423438 
z
" style="fill:#ffffff;"/>
   </g>
   <g id="matplotlib.axis_3">
    <g id="xtick_11">
     <g id="line2d_49">
      <g>
       <use style="stroke:#000000;stroke-width:0.8;" x="279.451172" xlink:href="#mf2cc218e35" y="175.55625"/>
      </g>
     </g>
     <g id="text_24">
      <!-- 0 -->
      <g transform="translate(276.670703 189.803125)scale(0.1 -0.1)">
       <use xlink:href="#LiberationSans-48"/>
      </g>
     </g>
    </g>
    <g id="xtick_12">
     <g id="line2d_50">
      <g>
       <use style="stroke:#000000;stroke-width:0.8;" x="303.292101" xlink:href="#mf2cc218e35" y="175.55625"/>
      </g>
     </g>
     <g id="text_25">
      <!-- 1 -->
      <g transform="translate(300.511632 189.803125)scale(0.1 -0.1)">
       <use xlink:href="#LiberationSans-49"/>
      </g>
     </g>
    </g>
    <g id="xtick_13">
     <g id="line2d_51">
      <g>
       <use style="stroke:#000000;stroke-width:0.8;" x="327.13303" xlink:href="#mf2cc218e35" y="175.55625"/>
      </g>
     </g>
     <g id="text_26">
      <!-- 2 -->
      <g transform="translate(324.352561 189.803125)scale(0.1 -0.1)">
       <use xlink:href="#LiberationSans-50"/>
      </g>
     </g>
    </g>
    <g id="xtick_14">
     <g id="line2d_52">
      <g>
       <use style="stroke:#000000;stroke-width:0.8;" x="350.973958" xlink:href="#mf2cc218e35" y="175.55625"/>
      </g>
     </g>
     <g id="text_27">
      <!-- 3 -->
      <g transform="translate(348.19349 189.803125)scale(0.1 -0.1)">
       <use xlink:href="#LiberationSans-51"/>
      </g>
     </g>
    </g>
    <g id="xtick_15">
     <g id="line2d_53">
      <g>
       <use style="stroke:#000000;stroke-width:0.8;" x="374.814887" xlink:href="#mf2cc218e35" y="175.55625"/>
      </g>
     </g>
     <g id="text_28">
      <!-- 4 -->
      <g transform="translate(372.034418 189.803125)scale(0.1 -0.1)">
       <use xlink:href="#LiberationSans-52"/>
      </g>
     </g>
    </g>
    <g id="xtick_16">
     <g id="line2d_54">
      <g>
       <use style="stroke:#000000;stroke-width:0.8;" x="398.655816" xlink:href="#mf2cc218e35" y="175.55625"/>
      </g>
     </g>
     <g id="text_29">
      <!-- 5 -->
      <g transform="translate(395.875347 189.803125)scale(0.1 -0.1)">
       <use xlink:href="#LiberationSans-53"/>
      </g>
     </g>
    </g>
    <g id="xtick_17">
     <g id="line2d_55">
      <g>
       <use style="stroke:#000000;stroke-width:0.8;" x="422.496745" xlink:href="#mf2cc218e35" y="175.55625"/>
      </g>
     </g>
     <g id="text_30">
      <!-- 6 -->
      <g transform="translate(419.716276 189.803125)scale(0.1 -0.1)">
       <use xlink:href="#LiberationSans-54"/>
      </g>
     </g>
    </g>
    <g id="xtick_18">
     <g id="line2d_56">
      <g>
       <use style="stroke:#000000;stroke-width:0.8;" x="446.337674" xlink:href="#mf2cc218e35" y="175.55625"/>
      </g>
     </g>
     <g id="text_31">
      <!-- 7 -->
      <g transform="translate(443.557205 189.803125)scale(0.1 -0.1)">
       <use xlink:href="#LiberationSans-55"/>
      </g>
     </g>
    </g>
    <g id="xtick_19">
     <g id="line2d_57">
      <g>
       <use style="stroke:#000000;stroke-width:0.8;" x="470.178602" xlink:href="#mf2cc218e35" y="175.55625"/>
      </g>
     </g>
     <g id="text_32">
      <!-- 8 -->
      <g transform="translate(467.398134 189.803125)scale(0.1 -0.1)">
       <use xlink:href="#LiberationSans-56"/>
      </g>
     </g>
    </g>
    <g id="xtick_20">
     <g id="line2d_58">
      <g>
       <use style="stroke:#000000;stroke-width:0.8;" x="494.019531" xlink:href="#mf2cc218e35" y="175.55625"/>
      </g>
     </g>
     <g id="text_33">
      <!-- 9 -->
      <g transform="translate(491.239062 189.803125)scale(0.1 -0.1)">
       <use xlink:href="#LiberationSans-57"/>
      </g>
     </g>
    </g>
    <g id="text_34">
     <!-- Difference of Batches -->
     <defs>
      <path d="M 67.4375 35.109375 
Q 67.4375 26.515625 64.84375 19.9375 
Q 62.25 13.375 57.75 8.953125 
Q 53.265625 4.546875 47.140625 2.265625 
Q 41.015625 0 33.9375 0 
L 8.203125 0 
L 8.203125 68.796875 
L 30.953125 68.796875 
Q 38.921875 68.796875 45.625 66.8125 
Q 52.34375 64.84375 57.171875 60.71875 
Q 62.015625 56.59375 64.71875 50.234375 
Q 67.4375 43.890625 67.4375 35.109375 
z
M 58.0625 35.109375 
Q 58.0625 42.09375 56.046875 47.046875 
Q 54.046875 52 50.4375 55.171875 
Q 46.828125 58.34375 41.796875 59.828125 
Q 36.765625 61.328125 30.765625 61.328125 
L 17.53125 61.328125 
L 17.53125 7.46875 
L 32.859375 7.46875 
Q 38.28125 7.46875 42.890625 9.21875 
Q 47.515625 10.984375 50.875 14.453125 
Q 54.25 17.921875 56.15625 23.09375 
Q 58.0625 28.265625 58.0625 35.109375 
z
" id="LiberationSans-68"/>
      <path d="M 6.6875 64.0625 
L 6.6875 72.46875 
L 15.484375 72.46875 
L 15.484375 64.0625 
z
M 6.6875 0 
L 6.6875 52.828125 
L 15.484375 52.828125 
L 15.484375 0 
z
" id="LiberationSans-105"/>
      <path d="M 17.625 46.4375 
L 17.625 0 
L 8.84375 0 
L 8.84375 46.4375 
L 1.421875 46.4375 
L 1.421875 52.828125 
L 8.84375 52.828125 
L 8.84375 58.796875 
Q 8.84375 61.671875 9.375 64.140625 
Q 9.90625 66.609375 11.34375 68.4375 
Q 12.796875 70.265625 15.28125 71.3125 
Q 17.78125 72.359375 21.734375 72.359375 
Q 23.296875 72.359375 24.96875 72.21875 
Q 26.65625 72.078125 27.9375 71.78125 
L 27.9375 65.09375 
Q 27.09375 65.234375 26 65.359375 
Q 24.90625 65.484375 24.03125 65.484375 
Q 22.078125 65.484375 20.828125 64.9375 
Q 19.578125 64.40625 18.875 63.40625 
Q 18.171875 62.40625 17.890625 60.9375 
Q 17.625 59.46875 17.625 57.5625 
L 17.625 52.828125 
L 27.9375 52.828125 
L 27.9375 46.4375 
z
" id="LiberationSans-102"/>
      <path d="M 13.484375 24.5625 
Q 13.484375 20.40625 14.328125 16.90625 
Q 15.1875 13.421875 16.96875 10.90625 
Q 18.75 8.40625 21.53125 7 
Q 24.3125 5.609375 28.21875 5.609375 
Q 33.9375 5.609375 37.375 7.90625 
Q 40.828125 10.203125 42.046875 13.71875 
L 49.75 11.53125 
Q 48.921875 9.328125 47.4375 7.109375 
Q 45.953125 4.890625 43.453125 3.09375 
Q 40.96875 1.3125 37.234375 0.15625 
Q 33.5 -0.984375 28.21875 -0.984375 
Q 16.5 -0.984375 10.375 6 
Q 4.25 12.984375 4.25 26.765625 
Q 4.25 34.1875 6.09375 39.328125 
Q 7.953125 44.484375 11.171875 47.703125 
Q 14.40625 50.921875 18.703125 52.359375 
Q 23 53.8125 27.875 53.8125 
Q 34.515625 53.8125 38.984375 51.65625 
Q 43.453125 49.515625 46.15625 45.71875 
Q 48.875 41.9375 50.015625 36.8125 
Q 51.171875 31.6875 51.171875 25.734375 
L 51.171875 24.5625 
z
M 42.09375 31.296875 
Q 41.359375 39.65625 37.84375 43.484375 
Q 34.328125 47.3125 27.734375 47.3125 
Q 25.53125 47.3125 23.109375 46.609375 
Q 20.703125 45.90625 18.65625 44.09375 
Q 16.609375 42.28125 15.1875 39.171875 
Q 13.765625 36.078125 13.578125 31.296875 
z
" id="LiberationSans-101"/>
      <path d="M 40.28125 0 
L 40.28125 33.5 
Q 40.28125 37.359375 39.71875 39.9375 
Q 39.15625 42.53125 37.890625 44.109375 
Q 36.625 45.703125 34.546875 46.359375 
Q 32.46875 47.015625 29.390625 47.015625 
Q 26.265625 47.015625 23.75 45.921875 
Q 21.234375 44.828125 19.453125 42.75 
Q 17.671875 40.671875 16.6875 37.625 
Q 15.71875 34.578125 15.71875 30.609375 
L 15.71875 0 
L 6.9375 0 
L 6.9375 41.546875 
Q 6.9375 43.21875 6.90625 45.046875 
Q 6.890625 46.875 6.828125 48.5 
Q 6.78125 50.140625 6.734375 51.3125 
Q 6.6875 52.484375 6.640625 52.828125 
L 14.9375 52.828125 
Q 14.984375 52.59375 15.03125 51.515625 
Q 15.09375 50.4375 15.15625 49.046875 
Q 15.234375 47.65625 15.28125 46.21875 
Q 15.328125 44.78125 15.328125 43.796875 
L 15.484375 43.796875 
Q 16.75 46.09375 18.265625 47.953125 
Q 19.78125 49.8125 21.78125 51.09375 
Q 23.78125 52.390625 26.359375 53.09375 
Q 28.953125 53.8125 32.375 53.8125 
Q 36.765625 53.8125 39.9375 52.734375 
Q 43.109375 51.65625 45.15625 49.40625 
Q 47.21875 47.171875 48.171875 43.625 
Q 49.125 40.09375 49.125 35.203125 
L 49.125 0 
z
" id="LiberationSans-110"/>
      <path id="LiberationSans-32"/>
      <path d="M 51.421875 26.46875 
Q 51.421875 12.59375 45.3125 5.796875 
Q 39.203125 -0.984375 27.59375 -0.984375 
Q 22.078125 -0.984375 17.71875 0.671875 
Q 13.375 2.34375 10.375 5.765625 
Q 7.375 9.1875 5.78125 14.328125 
Q 4.203125 19.484375 4.203125 26.46875 
Q 4.203125 53.8125 27.875 53.8125 
Q 34.03125 53.8125 38.5 52.09375 
Q 42.96875 50.390625 45.828125 46.96875 
Q 48.6875 43.5625 50.046875 38.421875 
Q 51.421875 33.296875 51.421875 26.46875 
z
M 42.1875 26.46875 
Q 42.1875 32.625 41.234375 36.625 
Q 40.28125 40.625 38.453125 43.015625 
Q 36.625 45.40625 33.984375 46.359375 
Q 31.34375 47.3125 28.03125 47.3125 
Q 24.65625 47.3125 21.9375 46.3125 
Q 19.234375 45.3125 17.328125 42.890625 
Q 15.4375 40.484375 14.421875 36.46875 
Q 13.421875 32.46875 13.421875 26.46875 
Q 13.421875 20.3125 14.5 16.28125 
Q 15.578125 12.25 17.453125 9.859375 
Q 19.34375 7.46875 21.90625 6.484375 
Q 24.46875 5.515625 27.484375 5.515625 
Q 30.859375 5.515625 33.59375 6.46875 
Q 36.328125 7.421875 38.234375 9.8125 
Q 40.140625 12.203125 41.15625 16.25 
Q 42.1875 20.3125 42.1875 26.46875 
z
" id="LiberationSans-111"/>
      <path d="M 46.390625 14.59375 
Q 46.390625 10.890625 44.9375 7.984375 
Q 43.5 5.078125 40.765625 3.09375 
Q 38.03125 1.125 34.046875 0.0625 
Q 30.078125 -0.984375 24.953125 -0.984375 
Q 20.359375 -0.984375 16.671875 -0.265625 
Q 12.984375 0.4375 10.203125 2 
Q 7.421875 3.5625 5.53125 6.125 
Q 3.65625 8.6875 2.78125 12.40625 
L 10.546875 13.921875 
Q 11.671875 9.671875 15.1875 7.6875 
Q 18.703125 5.71875 24.953125 5.71875 
Q 27.78125 5.71875 30.140625 6.109375 
Q 32.515625 6.5 34.21875 7.453125 
Q 35.9375 8.40625 36.890625 9.984375 
Q 37.84375 11.578125 37.84375 13.921875 
Q 37.84375 16.3125 36.71875 17.84375 
Q 35.59375 19.390625 33.59375 20.40625 
Q 31.59375 21.4375 28.734375 22.1875 
Q 25.875 22.953125 22.46875 23.875 
Q 19.28125 24.703125 16.15625 25.734375 
Q 13.03125 26.765625 10.515625 28.4375 
Q 8.015625 30.125 6.453125 32.609375 
Q 4.890625 35.109375 4.890625 38.875 
Q 4.890625 46.09375 10.03125 49.875 
Q 15.1875 53.65625 25.046875 53.65625 
Q 33.796875 53.65625 38.9375 50.578125 
Q 44.09375 47.515625 45.453125 40.71875 
L 37.546875 39.75 
Q 37.109375 41.796875 35.9375 43.1875 
Q 34.765625 44.578125 33.109375 45.4375 
Q 31.453125 46.296875 29.375 46.65625 
Q 27.296875 47.015625 25.046875 47.015625 
Q 19.09375 47.015625 16.25 45.203125 
Q 13.421875 43.40625 13.421875 39.75 
Q 13.421875 37.59375 14.46875 36.203125 
Q 15.53125 34.8125 17.40625 33.859375 
Q 19.28125 32.90625 21.921875 32.203125 
Q 24.5625 31.5 27.734375 30.71875 
Q 29.828125 30.171875 32.03125 29.5625 
Q 34.234375 28.953125 36.296875 28.09375 
Q 38.375 27.25 40.203125 26.09375 
Q 42.046875 24.953125 43.40625 23.34375 
Q 44.78125 21.734375 45.578125 19.578125 
Q 46.390625 17.4375 46.390625 14.59375 
z
" id="LiberationSans-115"/>
     </defs>
     <g transform="translate(339.022852 203.125)scale(0.1 -0.1)">
      <use xlink:href="#LiberationSans-68"/>
      <use x="72.216797" xlink:href="#LiberationSans-105"/>
      <use x="94.433594" xlink:href="#LiberationSans-102"/>
      <use x="120.466797" xlink:href="#LiberationSans-102"/>
      <use x="148.25" xlink:href="#LiberationSans-101"/>
      <use x="203.865234" xlink:href="#LiberationSans-114"/>
      <use x="237.166016" xlink:href="#LiberationSans-101"/>
      <use x="292.78125" xlink:href="#LiberationSans-110"/>
      <use x="348.396484" xlink:href="#LiberationSans-99"/>
      <use x="398.396484" xlink:href="#LiberationSans-101"/>
      <use x="454.011719" xlink:href="#LiberationSans-32"/>
      <use x="481.794922" xlink:href="#LiberationSans-111"/>
      <use x="537.410156" xlink:href="#LiberationSans-102"/>
      <use x="565.193359" xlink:href="#LiberationSans-32"/>
      <use x="592.976562" xlink:href="#LiberationSans-66"/>
      <use x="659.675781" xlink:href="#LiberationSans-97"/>
      <use x="715.291016" xlink:href="#LiberationSans-116"/>
      <use x="743.074219" xlink:href="#LiberationSans-99"/>
      <use x="793.074219" xlink:href="#LiberationSans-104"/>
      <use x="848.689453" xlink:href="#LiberationSans-101"/>
      <use x="904.304688" xlink:href="#LiberationSans-115"/>
     </g>
    </g>
   </g>
   <g id="matplotlib.axis_4">
    <g id="ytick_12">
     <g id="line2d_59">
      <path clip-path="url(#p8413563dd8)" d="M 279.451172 175.55625 
L 494.019531 175.55625 
" style="fill:none;stroke:#bbbbbb;stroke-linecap:square;stroke-width:0.8;"/>
     </g>
     <g id="line2d_60">
      <g>
       <use style="stroke:#000000;stroke-width:0.8;" x="279.451172" xlink:href="#mece7aa911a" y="175.55625"/>
      </g>
     </g>
    </g>
    <g id="ytick_13">
     <g id="line2d_61">
      <path clip-path="url(#p8413563dd8)" d="M 279.451172 159.442969 
L 494.019531 159.442969 
" style="fill:none;stroke:#bbbbbb;stroke-linecap:square;stroke-width:0.8;"/>
     </g>
     <g id="line2d_62">
      <g>
       <use style="stroke:#000000;stroke-width:0.8;" x="279.451172" xlink:href="#mece7aa911a" y="159.442969"/>
      </g>
     </g>
    </g>
    <g id="ytick_14">
     <g id="line2d_63">
      <path clip-path="url(#p8413563dd8)" d="M 279.451172 143.329688 
L 494.019531 143.329688 
" style="fill:none;stroke:#bbbbbb;stroke-linecap:square;stroke-width:0.8;"/>
     </g>
     <g id="line2d_64">
      <g>
       <use style="stroke:#000000;stroke-width:0.8;" x="279.451172" xlink:href="#mece7aa911a" y="143.329688"/>
      </g>
     </g>
    </g>
    <g id="ytick_15">
     <g id="line2d_65">
      <path clip-path="url(#p8413563dd8)" d="M 279.451172 127.216406 
L 494.019531 127.216406 
" style="fill:none;stroke:#bbbbbb;stroke-linecap:square;stroke-width:0.8;"/>
     </g>
     <g id="line2d_66">
      <g>
       <use style="stroke:#000000;stroke-width:0.8;" x="279.451172" xlink:href="#mece7aa911a" y="127.216406"/>
      </g>
     </g>
    </g>
    <g id="ytick_16">
     <g id="line2d_67">
      <path clip-path="url(#p8413563dd8)" d="M 279.451172 111.103125 
L 494.019531 111.103125 
" style="fill:none;stroke:#bbbbbb;stroke-linecap:square;stroke-width:0.8;"/>
     </g>
     <g id="line2d_68">
      <g>
       <use style="stroke:#000000;stroke-width:0.8;" x="279.451172" xlink:href="#mece7aa911a" y="111.103125"/>
      </g>
     </g>
    </g>
    <g id="ytick_17">
     <g id="line2d_69">
      <path clip-path="url(#p8413563dd8)" d="M 279.451172 94.989844 
L 494.019531 94.989844 
" style="fill:none;stroke:#bbbbbb;stroke-linecap:square;stroke-width:0.8;"/>
     </g>
     <g id="line2d_70">
      <g>
       <use style="stroke:#000000;stroke-width:0.8;" x="279.451172" xlink:href="#mece7aa911a" y="94.989844"/>
      </g>
     </g>
    </g>
    <g id="ytick_18">
     <g id="line2d_71">
      <path clip-path="url(#p8413563dd8)" d="M 279.451172 78.876562 
L 494.019531 78.876562 
" style="fill:none;stroke:#bbbbbb;stroke-linecap:square;stroke-width:0.8;"/>
     </g>
     <g id="line2d_72">
      <g>
       <use style="stroke:#000000;stroke-width:0.8;" x="279.451172" xlink:href="#mece7aa911a" y="78.876562"/>
      </g>
     </g>
    </g>
    <g id="ytick_19">
     <g id="line2d_73">
      <path clip-path="url(#p8413563dd8)" d="M 279.451172 62.763281 
L 494.019531 62.763281 
" style="fill:none;stroke:#bbbbbb;stroke-linecap:square;stroke-width:0.8;"/>
     </g>
     <g id="line2d_74">
      <g>
       <use style="stroke:#000000;stroke-width:0.8;" x="279.451172" xlink:href="#mece7aa911a" y="62.763281"/>
      </g>
     </g>
    </g>
    <g id="ytick_20">
     <g id="line2d_75">
      <path clip-path="url(#p8413563dd8)" d="M 279.451172 46.65 
L 494.019531 46.65 
" style="fill:none;stroke:#bbbbbb;stroke-linecap:square;stroke-width:0.8;"/>
     </g>
     <g id="line2d_76">
      <g>
       <use style="stroke:#000000;stroke-width:0.8;" x="279.451172" xlink:href="#mece7aa911a" y="46.65"/>
      </g>
     </g>
    </g>
    <g id="ytick_21">
     <g id="line2d_77">
      <path clip-path="url(#p8413563dd8)" d="M 279.451172 30.536719 
L 494.019531 30.536719 
" style="fill:none;stroke:#bbbbbb;stroke-linecap:square;stroke-width:0.8;"/>
     </g>
     <g id="line2d_78">
      <g>
       <use style="stroke:#000000;stroke-width:0.8;" x="279.451172" xlink:href="#mece7aa911a" y="30.536719"/>
      </g>
     </g>
    </g>
    <g id="ytick_22">
     <g id="line2d_79">
      <path clip-path="url(#p8413563dd8)" d="M 279.451172 14.423438 
L 494.019531 14.423438 
" style="fill:none;stroke:#bbbbbb;stroke-linecap:square;stroke-width:0.8;"/>
     </g>
     <g id="line2d_80">
      <g>
       <use style="stroke:#000000;stroke-width:0.8;" x="279.451172" xlink:href="#mece7aa911a" y="14.423438"/>
      </g>
     </g>
    </g>
   </g>
   <g id="LineCollection_5">
    <path clip-path="url(#p8413563dd8)" d="M 279.451172 16.271208 
L 279.451172 15.754016 
" style="fill:none;stroke:#000000;stroke-width:2;"/>
    <path clip-path="url(#p8413563dd8)" d="M 303.292101 43.161775 
L 303.292101 39.539153 
" style="fill:none;stroke:#000000;stroke-width:2;"/>
    <path clip-path="url(#p8413563dd8)" d="M 327.13303 62.575969 
L 327.13303 57.767883 
" style="fill:none;stroke:#000000;stroke-width:2;"/>
    <path clip-path="url(#p8413563dd8)" d="M 350.973958 67.831125 
L 350.973958 61.636522 
" style="fill:none;stroke:#000000;stroke-width:2;"/>
    <path clip-path="url(#p8413563dd8)" d="M 374.814887 77.788036 
L 374.814887 69.131347 
" style="fill:none;stroke:#000000;stroke-width:2;"/>
    <path clip-path="url(#p8413563dd8)" d="M 398.655816 82.901625 
L 398.655816 74.745988 
" style="fill:none;stroke:#000000;stroke-width:2;"/>
    <path clip-path="url(#p8413563dd8)" d="M 422.496745 81.574522 
L 422.496745 76.241816 
" style="fill:none;stroke:#000000;stroke-width:2;"/>
    <path clip-path="url(#p8413563dd8)" d="M 446.337674 89.277109 
L 446.337674 78.827249 
" style="fill:none;stroke:#000000;stroke-width:2;"/>
    <path clip-path="url(#p8413563dd8)" d="M 470.178602 87.903436 
L 470.178602 77.289911 
" style="fill:none;stroke:#000000;stroke-width:2;"/>
    <path clip-path="url(#p8413563dd8)" d="M 494.019531 79.788626 
L 494.019531 76.134023 
" style="fill:none;stroke:#000000;stroke-width:2;"/>
   </g>
   <g id="line2d_81">
    <defs>
     <path d="M 10 0 
L -10 -0 
" id="mc8b0f50ee7" style="stroke:#000000;stroke-width:2;"/>
    </defs>
    <g clip-path="url(#p8413563dd8)">
     <use style="stroke:#000000;stroke-width:2;" x="279.451172" xlink:href="#mc8b0f50ee7" y="16.271208"/>
     <use style="stroke:#000000;stroke-width:2;" x="303.292101" xlink:href="#mc8b0f50ee7" y="43.161775"/>
     <use style="stroke:#000000;stroke-width:2;" x="327.13303" xlink:href="#mc8b0f50ee7" y="62.575969"/>
     <use style="stroke:#000000;stroke-width:2;" x="350.973958" xlink:href="#mc8b0f50ee7" y="67.831125"/>
     <use style="stroke:#000000;stroke-width:2;" x="374.814887" xlink:href="#mc8b0f50ee7" y="77.788036"/>
     <use style="stroke:#000000;stroke-width:2;" x="398.655816" xlink:href="#mc8b0f50ee7" y="82.901625"/>
     <use style="stroke:#000000;stroke-width:2;" x="422.496745" xlink:href="#mc8b0f50ee7" y="81.574522"/>
     <use style="stroke:#000000;stroke-width:2;" x="446.337674" xlink:href="#mc8b0f50ee7" y="89.277109"/>
     <use style="stroke:#000000;stroke-width:2;" x="470.178602" xlink:href="#mc8b0f50ee7" y="87.903436"/>
     <use style="stroke:#000000;stroke-width:2;" x="494.019531" xlink:href="#mc8b0f50ee7" y="79.788626"/>
    </g>
   </g>
   <g id="line2d_82">
    <g clip-path="url(#p8413563dd8)">
     <use style="stroke:#000000;stroke-width:2;" x="279.451172" xlink:href="#mc8b0f50ee7" y="15.754016"/>
     <use style="stroke:#000000;stroke-width:2;" x="303.292101" xlink:href="#mc8b0f50ee7" y="39.539153"/>
     <use style="stroke:#000000;stroke-width:2;" x="327.13303" xlink:href="#mc8b0f50ee7" y="57.767883"/>
     <use style="stroke:#000000;stroke-width:2;" x="350.973958" xlink:href="#mc8b0f50ee7" y="61.636522"/>
     <use style="stroke:#000000;stroke-width:2;" x="374.814887" xlink:href="#mc8b0f50ee7" y="69.131347"/>
     <use style="stroke:#000000;stroke-width:2;" x="398.655816" xlink:href="#mc8b0f50ee7" y="74.745988"/>
     <use style="stroke:#000000;stroke-width:2;" x="422.496745" xlink:href="#mc8b0f50ee7" y="76.241816"/>
     <use style="stroke:#000000;stroke-width:2;" x="446.337674" xlink:href="#mc8b0f50ee7" y="78.827249"/>
     <use style="stroke:#000000;stroke-width:2;" x="470.178602" xlink:href="#mc8b0f50ee7" y="77.289911"/>
     <use style="stroke:#000000;stroke-width:2;" x="494.019531" xlink:href="#mc8b0f50ee7" y="76.134023"/>
    </g>
   </g>
   <g id="line2d_83">
    <path clip-path="url(#p8413563dd8)" d="M 279.451172 16.012612 
L 303.292101 41.350464 
L 327.13303 60.171926 
L 350.973958 64.733824 
L 374.814887 73.459691 
L 398.655816 78.823806 
L 422.496745 78.908169 
L 446.337674 84.052179 
L 470.178602 82.596674 
L 494.019531 77.961324 
" style="fill:none;stroke:#000000;stroke-linecap:square;stroke-width:2;"/>
   </g>
   <g id="patch_6">
    <path d="M 279.451172 175.55625 
L 279.451172 14.423438 
" style="fill:none;stroke:#000000;stroke-linecap:square;stroke-linejoin:miter;stroke-width:0.8;"/>
   </g>
   <g id="patch_7">
    <path d="M 279.451172 175.55625 
L 494.019531 175.55625 
" style="fill:none;stroke:#000000;stroke-linecap:square;stroke-linejoin:miter;stroke-width:0.8;"/>
   </g>
  </g>
 </g>
 <defs>
  <clipPath id="pc7df85a8ee">
   <rect height="161.132812" width="214.568359" x="45.021875" y="14.423438"/>
  </clipPath>
  <clipPath id="p8413563dd8">
   <rect height="161.132812" width="214.568359" x="279.451172" y="14.423438"/>
  </clipPath>
 </defs>
</svg>
