<?xml version="1.0" encoding="utf-8" standalone="no"?>
<!DOCTYPE svg PUBLIC "-//W3C//DTD SVG 1.1//EN"
  "http://www.w3.org/Graphics/SVG/1.1/DTD/svg11.dtd">
<!-- Created with matplotlib (https://matplotlib.org/) -->
<svg height="72pt" version="1.1" viewBox="0 0 576 72" width="576pt" xmlns="http://www.w3.org/2000/svg" xmlns:xlink="http://www.w3.org/1999/xlink">
 <defs>
  <style type="text/css">
*{stroke-linecap:butt;stroke-linejoin:round;}
  </style>
 </defs>
 <g id="figure_1">
  <g id="patch_1">
   <path d="M 0 72 
L 576 72 
L 576 0 
L 0 0 
z
" style="fill:#ffffff;"/>
  </g>
  <g id="axes_1">
   <g id="patch_2">
    <path d="M 72 63 
L 518.4 63 
L 518.4 8.64 
L 72 8.64 
z
" style="fill:#ffffff;"/>
   </g>
   <g id="matplotlib.axis_1">
    <g id="xtick_1">
     <g id="line2d_1">
      <defs>
       <path d="M 0 0 
L 0 3.5 
" id="me98424f15d" style="stroke:#000000;stroke-width:0.8;"/>
      </defs>
      <g>
       <use style="stroke:#000000;stroke-width:0.8;" x="92.290909" xlink:href="#me98424f15d" y="63"/>
      </g>
     </g>
     <g id="text_1">
      <!-- 0 -->
      <defs>
       <path d="M 51.703125 34.421875 
Q 51.703125 24.515625 49.828125 17.75 
Q 47.953125 10.984375 44.703125 6.8125 
Q 41.453125 2.640625 37.0625 0.828125 
Q 32.671875 -0.984375 27.6875 -0.984375 
Q 22.65625 -0.984375 18.3125 0.828125 
Q 13.96875 2.640625 10.765625 6.78125 
Q 7.5625 10.9375 5.734375 17.703125 
Q 3.90625 24.46875 3.90625 34.421875 
Q 3.90625 44.828125 5.734375 51.640625 
Q 7.5625 58.453125 10.78125 62.5 
Q 14.015625 66.546875 18.40625 68.1875 
Q 22.796875 69.828125 27.984375 69.828125 
Q 32.90625 69.828125 37.21875 68.1875 
Q 41.546875 66.546875 44.765625 62.5 
Q 48 58.453125 49.84375 51.640625 
Q 51.703125 44.828125 51.703125 34.421875 
z
M 42.78125 34.421875 
Q 42.78125 42.625 41.796875 48.0625 
Q 40.828125 53.515625 38.921875 56.765625 
Q 37.015625 60.015625 34.25 61.359375 
Q 31.5 62.703125 27.984375 62.703125 
Q 24.265625 62.703125 21.4375 61.328125 
Q 18.609375 59.96875 16.671875 56.71875 
Q 14.75 53.46875 13.765625 48.015625 
Q 12.796875 42.578125 12.796875 34.421875 
Q 12.796875 26.515625 13.796875 21.09375 
Q 14.796875 15.671875 16.71875 12.375 
Q 18.65625 9.078125 21.4375 7.640625 
Q 24.21875 6.203125 27.78125 6.203125 
Q 31.25 6.203125 34.03125 7.640625 
Q 36.8125 9.078125 38.734375 12.375 
Q 40.671875 15.671875 41.71875 21.09375 
Q 42.78125 26.515625 42.78125 34.421875 
z
" id="LiberationSans-48"/>
      </defs>
      <g transform="translate(88.954347 78.69625)scale(0.12 -0.12)">
       <use xlink:href="#LiberationSans-48"/>
      </g>
     </g>
    </g>
    <g id="xtick_2">
     <g id="line2d_2">
      <g>
       <use style="stroke:#000000;stroke-width:0.8;" x="171.42862" xlink:href="#me98424f15d" y="63"/>
      </g>
     </g>
     <g id="text_2">
      <!-- 500 -->
      <defs>
       <path d="M 51.421875 22.40625 
Q 51.421875 17.234375 49.859375 12.9375 
Q 48.296875 8.640625 45.21875 5.53125 
Q 42.140625 2.4375 37.578125 0.71875 
Q 33.015625 -0.984375 27 -0.984375 
Q 21.578125 -0.984375 17.546875 0.28125 
Q 13.53125 1.5625 10.734375 3.78125 
Q 7.953125 6 6.3125 8.984375 
Q 4.6875 11.96875 4 15.375 
L 12.890625 16.40625 
Q 13.421875 14.453125 14.390625 12.625 
Q 15.375 10.796875 17.0625 9.34375 
Q 18.75 7.90625 21.21875 7.046875 
Q 23.6875 6.203125 27.203125 6.203125 
Q 30.609375 6.203125 33.390625 7.25 
Q 36.1875 8.296875 38.15625 10.34375 
Q 40.140625 12.40625 41.203125 15.375 
Q 42.28125 18.359375 42.28125 22.21875 
Q 42.28125 25.390625 41.25 28.046875 
Q 40.234375 30.71875 38.328125 32.640625 
Q 36.421875 34.578125 33.65625 35.640625 
Q 30.90625 36.71875 27.390625 36.71875 
Q 25.203125 36.71875 23.34375 36.328125 
Q 21.484375 35.9375 19.890625 35.25 
Q 18.3125 34.578125 17.015625 33.671875 
Q 15.71875 32.765625 14.59375 31.78125 
L 6 31.78125 
L 8.296875 68.796875 
L 47.40625 68.796875 
L 47.40625 61.328125 
L 16.3125 61.328125 
L 14.984375 39.5 
Q 17.328125 41.3125 20.84375 42.59375 
Q 24.359375 43.890625 29.203125 43.890625 
Q 34.328125 43.890625 38.421875 42.328125 
Q 42.53125 40.765625 45.40625 37.90625 
Q 48.296875 35.0625 49.859375 31.109375 
Q 51.421875 27.15625 51.421875 22.40625 
z
" id="LiberationSans-53"/>
      </defs>
      <g transform="translate(161.418933 78.69625)scale(0.12 -0.12)">
       <use xlink:href="#LiberationSans-53"/>
       <use x="55.615234" xlink:href="#LiberationSans-48"/>
       <use x="111.230469" xlink:href="#LiberationSans-48"/>
      </g>
     </g>
    </g>
    <g id="xtick_3">
     <g id="line2d_3">
      <g>
       <use style="stroke:#000000;stroke-width:0.8;" x="250.566331" xlink:href="#me98424f15d" y="63"/>
      </g>
     </g>
     <g id="text_3">
      <!-- 1000 -->
      <defs>
       <path d="M 7.625 0 
L 7.625 7.46875 
L 25.140625 7.46875 
L 25.140625 60.40625 
L 9.625 49.3125 
L 9.625 57.625 
L 25.875 68.796875 
L 33.984375 68.796875 
L 33.984375 7.46875 
L 50.734375 7.46875 
L 50.734375 0 
z
" id="LiberationSans-49"/>
      </defs>
      <g transform="translate(237.220081 78.69625)scale(0.12 -0.12)">
       <use xlink:href="#LiberationSans-49"/>
       <use x="55.615234" xlink:href="#LiberationSans-48"/>
       <use x="111.230469" xlink:href="#LiberationSans-48"/>
       <use x="166.845703" xlink:href="#LiberationSans-48"/>
      </g>
     </g>
    </g>
    <g id="xtick_4">
     <g id="line2d_4">
      <g>
       <use style="stroke:#000000;stroke-width:0.8;" x="329.704042" xlink:href="#me98424f15d" y="63"/>
      </g>
     </g>
     <g id="text_4">
      <!-- 1500 -->
      <g transform="translate(316.357792 78.69625)scale(0.12 -0.12)">
       <use xlink:href="#LiberationSans-49"/>
       <use x="55.615234" xlink:href="#LiberationSans-53"/>
       <use x="111.230469" xlink:href="#LiberationSans-48"/>
       <use x="166.845703" xlink:href="#LiberationSans-48"/>
      </g>
     </g>
    </g>
    <g id="xtick_5">
     <g id="line2d_5">
      <g>
       <use style="stroke:#000000;stroke-width:0.8;" x="408.841753" xlink:href="#me98424f15d" y="63"/>
      </g>
     </g>
     <g id="text_5">
      <!-- 2000 -->
      <defs>
       <path d="M 5.03125 0 
L 5.03125 6.203125 
Q 7.515625 11.921875 11.109375 16.28125 
Q 14.703125 20.65625 18.65625 24.1875 
Q 22.609375 27.734375 26.484375 30.765625 
Q 30.375 33.796875 33.5 36.8125 
Q 36.625 39.84375 38.546875 43.15625 
Q 40.484375 46.484375 40.484375 50.6875 
Q 40.484375 53.609375 39.59375 55.828125 
Q 38.71875 58.0625 37.0625 59.5625 
Q 35.40625 61.078125 33.078125 61.828125 
Q 30.765625 62.59375 27.9375 62.59375 
Q 25.296875 62.59375 22.96875 61.859375 
Q 20.65625 61.140625 18.84375 59.671875 
Q 17.046875 58.203125 15.890625 56.03125 
Q 14.75 53.859375 14.40625 50.984375 
L 5.421875 51.8125 
Q 5.859375 55.515625 7.46875 58.78125 
Q 9.078125 62.0625 11.90625 64.53125 
Q 14.75 67 18.71875 68.40625 
Q 22.703125 69.828125 27.9375 69.828125 
Q 33.0625 69.828125 37.0625 68.609375 
Q 41.0625 67.390625 43.8125 64.984375 
Q 46.578125 62.59375 48.046875 59.078125 
Q 49.515625 55.5625 49.515625 50.984375 
Q 49.515625 47.515625 48.265625 44.390625 
Q 47.015625 41.265625 44.9375 38.421875 
Q 42.875 35.59375 40.140625 32.953125 
Q 37.40625 30.328125 34.421875 27.8125 
Q 31.453125 25.296875 28.421875 22.828125 
Q 25.390625 20.359375 22.71875 17.859375 
Q 20.0625 15.375 17.96875 12.8125 
Q 15.875 10.25 14.703125 7.46875 
L 50.59375 7.46875 
L 50.59375 0 
z
" id="LiberationSans-50"/>
      </defs>
      <g transform="translate(395.495503 78.69625)scale(0.12 -0.12)">
       <use xlink:href="#LiberationSans-50"/>
       <use x="55.615234" xlink:href="#LiberationSans-48"/>
       <use x="111.230469" xlink:href="#LiberationSans-48"/>
       <use x="166.845703" xlink:href="#LiberationSans-48"/>
      </g>
     </g>
    </g>
    <g id="xtick_6">
     <g id="line2d_6">
      <g>
       <use style="stroke:#000000;stroke-width:0.8;" x="487.979464" xlink:href="#me98424f15d" y="63"/>
      </g>
     </g>
     <g id="text_6">
      <!-- 2500 -->
      <g transform="translate(474.633214 78.69625)scale(0.12 -0.12)">
       <use xlink:href="#LiberationSans-50"/>
       <use x="55.615234" xlink:href="#LiberationSans-53"/>
       <use x="111.230469" xlink:href="#LiberationSans-48"/>
       <use x="166.845703" xlink:href="#LiberationSans-48"/>
      </g>
     </g>
    </g>
    <g id="text_7">
     <!-- Samples of odor class 1 -->
     <defs>
      <path d="M 62.109375 19 
Q 62.109375 14.65625 60.421875 10.984375 
Q 58.734375 7.328125 55.21875 4.65625 
Q 51.703125 2 46.359375 0.5 
Q 41.015625 -0.984375 33.6875 -0.984375 
Q 20.84375 -0.984375 13.671875 3.515625 
Q 6.5 8.015625 4.546875 16.5 
L 13.578125 18.3125 
Q 14.265625 15.625 15.671875 13.421875 
Q 17.09375 11.234375 19.5 9.640625 
Q 21.921875 8.0625 25.484375 7.171875 
Q 29.046875 6.296875 34.03125 6.296875 
Q 38.1875 6.296875 41.65625 7 
Q 45.125 7.71875 47.609375 9.171875 
Q 50.09375 10.640625 51.484375 12.953125 
Q 52.875 15.28125 52.875 18.5 
Q 52.875 21.875 51.34375 23.96875 
Q 49.8125 26.078125 47.015625 27.4375 
Q 44.234375 28.8125 40.375 29.734375 
Q 36.53125 30.671875 31.84375 31.734375 
Q 28.953125 32.375 26.046875 33.125 
Q 23.140625 33.890625 20.484375 34.9375 
Q 17.828125 35.984375 15.484375 37.390625 
Q 13.140625 38.8125 11.421875 40.796875 
Q 9.71875 42.78125 8.734375 45.390625 
Q 7.765625 48 7.765625 51.421875 
Q 7.765625 56.296875 9.734375 59.78125 
Q 11.71875 63.28125 15.234375 65.53125 
Q 18.75 67.78125 23.53125 68.796875 
Q 28.328125 69.828125 33.890625 69.828125 
Q 40.28125 69.828125 44.8125 68.828125 
Q 49.359375 67.828125 52.484375 65.8125 
Q 55.609375 63.8125 57.484375 60.859375 
Q 59.375 57.90625 60.5 54 
L 51.3125 52.390625 
Q 50.640625 54.890625 49.34375 56.84375 
Q 48.046875 58.796875 45.9375 60.109375 
Q 43.84375 61.421875 40.84375 62.109375 
Q 37.84375 62.796875 33.796875 62.796875 
Q 29 62.796875 25.75 61.9375 
Q 22.515625 61.078125 20.53125 59.609375 
Q 18.5625 58.15625 17.703125 56.171875 
Q 16.84375 54.203125 16.84375 51.90625 
Q 16.84375 48.828125 18.375 46.84375 
Q 19.921875 44.875 22.5625 43.546875 
Q 25.203125 42.234375 28.65625 41.359375 
Q 32.125 40.484375 36.03125 39.59375 
Q 39.203125 38.875 42.359375 38.109375 
Q 45.515625 37.359375 48.390625 36.296875 
Q 51.265625 35.25 53.78125 33.828125 
Q 56.296875 32.421875 58.15625 30.375 
Q 60.015625 28.328125 61.0625 25.53125 
Q 62.109375 22.75 62.109375 19 
z
" id="LiberationSans-83"/>
      <path d="M 20.21875 -0.984375 
Q 12.25 -0.984375 8.25 3.21875 
Q 4.25 7.421875 4.25 14.75 
Q 4.25 19.96875 6.21875 23.3125 
Q 8.203125 26.65625 11.390625 28.5625 
Q 14.59375 30.46875 18.6875 31.203125 
Q 22.796875 31.9375 27.046875 32.03125 
L 38.921875 32.234375 
L 38.921875 35.109375 
Q 38.921875 38.375 38.234375 40.671875 
Q 37.546875 42.96875 36.125 44.375 
Q 34.71875 45.796875 32.59375 46.453125 
Q 30.46875 47.125 27.59375 47.125 
Q 25.046875 47.125 23 46.75 
Q 20.953125 46.390625 19.4375 45.4375 
Q 17.921875 44.484375 16.984375 42.84375 
Q 16.0625 41.21875 15.765625 38.71875 
L 6.59375 39.546875 
Q 7.078125 42.671875 8.4375 45.28125 
Q 9.8125 47.90625 12.328125 49.796875 
Q 14.84375 51.703125 18.625 52.75 
Q 22.40625 53.8125 27.78125 53.8125 
Q 37.75 53.8125 42.765625 49.234375 
Q 47.796875 44.671875 47.796875 36.03125 
L 47.796875 13.28125 
Q 47.796875 9.375 48.828125 7.390625 
Q 49.859375 5.421875 52.734375 5.421875 
Q 53.46875 5.421875 54.203125 5.515625 
Q 54.9375 5.609375 55.609375 5.765625 
L 55.609375 0.296875 
Q 53.953125 -0.09375 52.3125 -0.28125 
Q 50.6875 -0.484375 48.828125 -0.484375 
Q 46.34375 -0.484375 44.5625 0.171875 
Q 42.78125 0.828125 41.65625 2.171875 
Q 40.53125 3.515625 39.9375 5.484375 
Q 39.359375 7.46875 39.203125 10.109375 
L 38.921875 10.109375 
Q 37.5 7.5625 35.8125 5.515625 
Q 34.125 3.46875 31.875 2.03125 
Q 29.640625 0.59375 26.78125 -0.1875 
Q 23.921875 -0.984375 20.21875 -0.984375 
z
M 22.21875 5.609375 
Q 26.421875 5.609375 29.5625 7.140625 
Q 32.71875 8.6875 34.78125 11.078125 
Q 36.859375 13.484375 37.890625 16.3125 
Q 38.921875 19.140625 38.921875 21.734375 
L 38.921875 26.078125 
L 29.296875 25.875 
Q 26.078125 25.828125 23.171875 25.40625 
Q 20.265625 25 18.0625 23.78125 
Q 15.875 22.5625 14.578125 20.359375 
Q 13.28125 18.171875 13.28125 14.59375 
Q 13.28125 10.296875 15.59375 7.953125 
Q 17.921875 5.609375 22.21875 5.609375 
z
" id="LiberationSans-97"/>
      <path d="M 37.5 0 
L 37.5 33.5 
Q 37.5 37.359375 37.015625 39.9375 
Q 36.53125 42.53125 35.375 44.109375 
Q 34.234375 45.703125 32.375 46.359375 
Q 30.515625 47.015625 27.828125 47.015625 
Q 25.046875 47.015625 22.796875 45.921875 
Q 20.5625 44.828125 18.96875 42.75 
Q 17.390625 40.671875 16.53125 37.625 
Q 15.671875 34.578125 15.671875 30.609375 
L 15.671875 0 
L 6.9375 0 
L 6.9375 41.546875 
Q 6.9375 43.21875 6.90625 45.046875 
Q 6.890625 46.875 6.828125 48.5 
Q 6.78125 50.140625 6.734375 51.3125 
Q 6.6875 52.484375 6.640625 52.828125 
L 14.9375 52.828125 
Q 14.984375 52.59375 15.03125 51.515625 
Q 15.09375 50.4375 15.15625 49.046875 
Q 15.234375 47.65625 15.28125 46.21875 
Q 15.328125 44.78125 15.328125 43.796875 
L 15.484375 43.796875 
Q 16.65625 46.09375 18.015625 47.953125 
Q 19.390625 49.8125 21.21875 51.09375 
Q 23.046875 52.390625 25.40625 53.09375 
Q 27.78125 53.8125 30.90625 53.8125 
Q 36.921875 53.8125 40.40625 51.421875 
Q 43.890625 49.03125 45.265625 43.796875 
L 45.40625 43.796875 
Q 46.578125 46.09375 48.046875 47.953125 
Q 49.515625 49.8125 51.46875 51.09375 
Q 53.421875 52.390625 55.859375 53.09375 
Q 58.296875 53.8125 61.421875 53.8125 
Q 65.4375 53.8125 68.328125 52.734375 
Q 71.234375 51.65625 73.09375 49.40625 
Q 74.953125 47.171875 75.828125 43.625 
Q 76.703125 40.09375 76.703125 35.203125 
L 76.703125 0 
L 68.015625 0 
L 68.015625 33.5 
Q 68.015625 37.359375 67.53125 39.9375 
Q 67.046875 42.53125 65.890625 44.109375 
Q 64.75 45.703125 62.890625 46.359375 
Q 61.03125 47.015625 58.34375 47.015625 
Q 55.5625 47.015625 53.3125 45.96875 
Q 51.078125 44.921875 49.484375 42.875 
Q 47.90625 40.828125 47.046875 37.75 
Q 46.1875 34.671875 46.1875 30.609375 
L 46.1875 0 
z
" id="LiberationSans-109"/>
      <path d="M 51.421875 26.65625 
Q 51.421875 20.65625 50.4375 15.578125 
Q 49.46875 10.5 47.1875 6.828125 
Q 44.921875 3.171875 41.1875 1.09375 
Q 37.453125 -0.984375 31.984375 -0.984375 
Q 26.3125 -0.984375 22.0625 1.171875 
Q 17.828125 3.328125 15.578125 8.203125 
L 15.328125 8.203125 
Q 15.375 8.109375 15.40625 7.328125 
Q 15.4375 6.546875 15.453125 5.375 
Q 15.484375 4.203125 15.5 2.75 
Q 15.53125 1.3125 15.53125 -0.09375 
L 15.53125 -20.75 
L 6.734375 -20.75 
L 6.734375 42.046875 
Q 6.734375 43.953125 6.703125 45.703125 
Q 6.6875 47.46875 6.640625 48.90625 
Q 6.59375 50.34375 6.546875 51.359375 
Q 6.5 52.390625 6.453125 52.828125 
L 14.9375 52.828125 
Q 14.984375 52.6875 15.0625 51.796875 
Q 15.140625 50.921875 15.203125 49.671875 
Q 15.28125 48.4375 15.359375 47.015625 
Q 15.4375 45.609375 15.4375 44.34375 
L 15.625 44.34375 
Q 16.84375 46.875 18.40625 48.65625 
Q 19.96875 50.4375 21.96875 51.578125 
Q 23.96875 52.734375 26.4375 53.25 
Q 28.90625 53.765625 31.984375 53.765625 
Q 37.453125 53.765625 41.1875 51.8125 
Q 44.921875 49.859375 47.1875 46.3125 
Q 49.46875 42.78125 50.4375 37.765625 
Q 51.421875 32.765625 51.421875 26.65625 
z
M 42.1875 26.46875 
Q 42.1875 31.34375 41.59375 35.15625 
Q 41.015625 38.96875 39.578125 41.59375 
Q 38.140625 44.234375 35.734375 45.59375 
Q 33.34375 46.96875 29.734375 46.96875 
Q 26.8125 46.96875 24.21875 46.140625 
Q 21.625 45.3125 19.703125 42.96875 
Q 17.78125 40.625 16.65625 36.5 
Q 15.53125 32.375 15.53125 25.78125 
Q 15.53125 20.171875 16.453125 16.28125 
Q 17.390625 12.40625 19.171875 10.015625 
Q 20.953125 7.625 23.578125 6.5625 
Q 26.21875 5.515625 29.640625 5.515625 
Q 33.296875 5.515625 35.71875 6.921875 
Q 38.140625 8.34375 39.578125 11.03125 
Q 41.015625 13.71875 41.59375 17.59375 
Q 42.1875 21.484375 42.1875 26.46875 
z
" id="LiberationSans-112"/>
      <path d="M 6.734375 0 
L 6.734375 72.46875 
L 15.53125 72.46875 
L 15.53125 0 
z
" id="LiberationSans-108"/>
      <path d="M 13.484375 24.5625 
Q 13.484375 20.40625 14.328125 16.90625 
Q 15.1875 13.421875 16.96875 10.90625 
Q 18.75 8.40625 21.53125 7 
Q 24.3125 5.609375 28.21875 5.609375 
Q 33.9375 5.609375 37.375 7.90625 
Q 40.828125 10.203125 42.046875 13.71875 
L 49.75 11.53125 
Q 48.921875 9.328125 47.4375 7.109375 
Q 45.953125 4.890625 43.453125 3.09375 
Q 40.96875 1.3125 37.234375 0.15625 
Q 33.5 -0.984375 28.21875 -0.984375 
Q 16.5 -0.984375 10.375 6 
Q 4.25 12.984375 4.25 26.765625 
Q 4.25 34.1875 6.09375 39.328125 
Q 7.953125 44.484375 11.171875 47.703125 
Q 14.40625 50.921875 18.703125 52.359375 
Q 23 53.8125 27.875 53.8125 
Q 34.515625 53.8125 38.984375 51.65625 
Q 43.453125 49.515625 46.15625 45.71875 
Q 48.875 41.9375 50.015625 36.8125 
Q 51.171875 31.6875 51.171875 25.734375 
L 51.171875 24.5625 
z
M 42.09375 31.296875 
Q 41.359375 39.65625 37.84375 43.484375 
Q 34.328125 47.3125 27.734375 47.3125 
Q 25.53125 47.3125 23.109375 46.609375 
Q 20.703125 45.90625 18.65625 44.09375 
Q 16.609375 42.28125 15.1875 39.171875 
Q 13.765625 36.078125 13.578125 31.296875 
z
" id="LiberationSans-101"/>
      <path d="M 46.390625 14.59375 
Q 46.390625 10.890625 44.9375 7.984375 
Q 43.5 5.078125 40.765625 3.09375 
Q 38.03125 1.125 34.046875 0.0625 
Q 30.078125 -0.984375 24.953125 -0.984375 
Q 20.359375 -0.984375 16.671875 -0.265625 
Q 12.984375 0.4375 10.203125 2 
Q 7.421875 3.5625 5.53125 6.125 
Q 3.65625 8.6875 2.78125 12.40625 
L 10.546875 13.921875 
Q 11.671875 9.671875 15.1875 7.6875 
Q 18.703125 5.71875 24.953125 5.71875 
Q 27.78125 5.71875 30.140625 6.109375 
Q 32.515625 6.5 34.21875 7.453125 
Q 35.9375 8.40625 36.890625 9.984375 
Q 37.84375 11.578125 37.84375 13.921875 
Q 37.84375 16.3125 36.71875 17.84375 
Q 35.59375 19.390625 33.59375 20.40625 
Q 31.59375 21.4375 28.734375 22.1875 
Q 25.875 22.953125 22.46875 23.875 
Q 19.28125 24.703125 16.15625 25.734375 
Q 13.03125 26.765625 10.515625 28.4375 
Q 8.015625 30.125 6.453125 32.609375 
Q 4.890625 35.109375 4.890625 38.875 
Q 4.890625 46.09375 10.03125 49.875 
Q 15.1875 53.65625 25.046875 53.65625 
Q 33.796875 53.65625 38.9375 50.578125 
Q 44.09375 47.515625 45.453125 40.71875 
L 37.546875 39.75 
Q 37.109375 41.796875 35.9375 43.1875 
Q 34.765625 44.578125 33.109375 45.4375 
Q 31.453125 46.296875 29.375 46.65625 
Q 27.296875 47.015625 25.046875 47.015625 
Q 19.09375 47.015625 16.25 45.203125 
Q 13.421875 43.40625 13.421875 39.75 
Q 13.421875 37.59375 14.46875 36.203125 
Q 15.53125 34.8125 17.40625 33.859375 
Q 19.28125 32.90625 21.921875 32.203125 
Q 24.5625 31.5 27.734375 30.71875 
Q 29.828125 30.171875 32.03125 29.5625 
Q 34.234375 28.953125 36.296875 28.09375 
Q 38.375 27.25 40.203125 26.09375 
Q 42.046875 24.953125 43.40625 23.34375 
Q 44.78125 21.734375 45.578125 19.578125 
Q 46.390625 17.4375 46.390625 14.59375 
z
" id="LiberationSans-115"/>
      <path id="LiberationSans-32"/>
      <path d="M 51.421875 26.46875 
Q 51.421875 12.59375 45.3125 5.796875 
Q 39.203125 -0.984375 27.59375 -0.984375 
Q 22.078125 -0.984375 17.71875 0.671875 
Q 13.375 2.34375 10.375 5.765625 
Q 7.375 9.1875 5.78125 14.328125 
Q 4.203125 19.484375 4.203125 26.46875 
Q 4.203125 53.8125 27.875 53.8125 
Q 34.03125 53.8125 38.5 52.09375 
Q 42.96875 50.390625 45.828125 46.96875 
Q 48.6875 43.5625 50.046875 38.421875 
Q 51.421875 33.296875 51.421875 26.46875 
z
M 42.1875 26.46875 
Q 42.1875 32.625 41.234375 36.625 
Q 40.28125 40.625 38.453125 43.015625 
Q 36.625 45.40625 33.984375 46.359375 
Q 31.34375 47.3125 28.03125 47.3125 
Q 24.65625 47.3125 21.9375 46.3125 
Q 19.234375 45.3125 17.328125 42.890625 
Q 15.4375 40.484375 14.421875 36.46875 
Q 13.421875 32.46875 13.421875 26.46875 
Q 13.421875 20.3125 14.5 16.28125 
Q 15.578125 12.25 17.453125 9.859375 
Q 19.34375 7.46875 21.90625 6.484375 
Q 24.46875 5.515625 27.484375 5.515625 
Q 30.859375 5.515625 33.59375 6.46875 
Q 36.328125 7.421875 38.234375 9.8125 
Q 40.140625 12.203125 41.15625 16.25 
Q 42.1875 20.3125 42.1875 26.46875 
z
" id="LiberationSans-111"/>
      <path d="M 17.625 46.4375 
L 17.625 0 
L 8.84375 0 
L 8.84375 46.4375 
L 1.421875 46.4375 
L 1.421875 52.828125 
L 8.84375 52.828125 
L 8.84375 58.796875 
Q 8.84375 61.671875 9.375 64.140625 
Q 9.90625 66.609375 11.34375 68.4375 
Q 12.796875 70.265625 15.28125 71.3125 
Q 17.78125 72.359375 21.734375 72.359375 
Q 23.296875 72.359375 24.96875 72.21875 
Q 26.65625 72.078125 27.9375 71.78125 
L 27.9375 65.09375 
Q 27.09375 65.234375 26 65.359375 
Q 24.90625 65.484375 24.03125 65.484375 
Q 22.078125 65.484375 20.828125 64.9375 
Q 19.578125 64.40625 18.875 63.40625 
Q 18.171875 62.40625 17.890625 60.9375 
Q 17.625 59.46875 17.625 57.5625 
L 17.625 52.828125 
L 27.9375 52.828125 
L 27.9375 46.4375 
z
" id="LiberationSans-102"/>
      <path d="M 40.09375 8.5 
Q 37.640625 3.421875 33.609375 1.21875 
Q 29.59375 -0.984375 23.640625 -0.984375 
Q 13.625 -0.984375 8.90625 5.75 
Q 4.203125 12.5 4.203125 26.171875 
Q 4.203125 53.8125 23.640625 53.8125 
Q 29.640625 53.8125 33.640625 51.609375 
Q 37.640625 49.421875 40.09375 44.625 
L 40.1875 44.625 
Q 40.1875 45.125 40.15625 46.171875 
Q 40.140625 47.21875 40.109375 48.359375 
Q 40.09375 49.515625 40.09375 50.53125 
Q 40.09375 51.5625 40.09375 52 
L 40.09375 72.46875 
L 48.875 72.46875 
L 48.875 10.890625 
Q 48.875 8.984375 48.890625 7.21875 
Q 48.921875 5.46875 48.96875 4 
Q 49.03125 2.546875 49.078125 1.484375 
Q 49.125 0.4375 49.171875 0 
L 40.765625 0 
Q 40.671875 0.484375 40.59375 1.390625 
Q 40.53125 2.296875 40.453125 3.46875 
Q 40.375 4.640625 40.328125 5.9375 
Q 40.28125 7.234375 40.28125 8.5 
z
M 13.421875 26.46875 
Q 13.421875 21 14.109375 17.09375 
Q 14.796875 13.1875 16.3125 10.671875 
Q 17.828125 8.15625 20.171875 6.984375 
Q 22.515625 5.8125 25.875 5.8125 
Q 29.34375 5.8125 32 6.9375 
Q 34.671875 8.0625 36.453125 10.578125 
Q 38.234375 13.09375 39.15625 17.140625 
Q 40.09375 21.1875 40.09375 27.046875 
Q 40.09375 32.671875 39.15625 36.546875 
Q 38.234375 40.4375 36.421875 42.828125 
Q 34.625 45.21875 32 46.265625 
Q 29.390625 47.3125 25.984375 47.3125 
Q 22.75 47.3125 20.40625 46.1875 
Q 18.0625 45.0625 16.5 42.578125 
Q 14.9375 40.09375 14.171875 36.109375 
Q 13.421875 32.125 13.421875 26.46875 
z
" id="LiberationSans-100"/>
      <path d="M 6.9375 0 
L 6.9375 40.53125 
Q 6.9375 42.1875 6.90625 43.921875 
Q 6.890625 45.65625 6.828125 47.265625 
Q 6.78125 48.875 6.734375 50.28125 
Q 6.6875 51.703125 6.640625 52.828125 
L 14.9375 52.828125 
Q 14.984375 51.703125 15.0625 50.265625 
Q 15.140625 48.828125 15.203125 47.3125 
Q 15.28125 45.796875 15.296875 44.40625 
Q 15.328125 43.015625 15.328125 42.046875 
L 15.53125 42.046875 
Q 16.453125 45.0625 17.5 47.28125 
Q 18.5625 49.515625 19.96875 50.953125 
Q 21.390625 52.390625 23.34375 53.09375 
Q 25.296875 53.8125 28.078125 53.8125 
Q 29.15625 53.8125 30.125 53.640625 
Q 31.109375 53.46875 31.640625 53.328125 
L 31.640625 45.265625 
Q 30.765625 45.515625 29.59375 45.625 
Q 28.421875 45.75 26.953125 45.75 
Q 23.921875 45.75 21.796875 44.375 
Q 19.671875 43.015625 18.328125 40.59375 
Q 17 38.1875 16.359375 34.84375 
Q 15.71875 31.5 15.71875 27.546875 
L 15.71875 0 
z
" id="LiberationSans-114"/>
      <path d="M 13.421875 26.65625 
Q 13.421875 22.125 14.078125 18.3125 
Q 14.75 14.5 16.3125 11.734375 
Q 17.875 8.984375 20.4375 7.46875 
Q 23 5.953125 26.765625 5.953125 
Q 31.453125 5.953125 34.59375 8.484375 
Q 37.75 11.03125 38.484375 16.3125 
L 47.359375 15.71875 
Q 46.921875 12.453125 45.453125 9.421875 
Q 44 6.390625 41.484375 4.09375 
Q 38.96875 1.8125 35.34375 0.40625 
Q 31.734375 -0.984375 27 -0.984375 
Q 20.796875 -0.984375 16.453125 1.109375 
Q 12.109375 3.21875 9.390625 6.90625 
Q 6.6875 10.59375 5.46875 15.59375 
Q 4.25 20.609375 4.25 26.46875 
Q 4.25 31.78125 5.125 35.859375 
Q 6 39.9375 7.59375 42.984375 
Q 9.1875 46.046875 11.328125 48.125 
Q 13.484375 50.203125 15.984375 51.4375 
Q 18.5 52.6875 21.28125 53.25 
Q 24.078125 53.8125 26.90625 53.8125 
Q 31.34375 53.8125 34.8125 52.59375 
Q 38.28125 51.375 40.796875 49.25 
Q 43.3125 47.125 44.875 44.234375 
Q 46.4375 41.359375 47.078125 38.03125 
L 38.03125 37.359375 
Q 37.359375 41.75 34.5625 44.328125 
Q 31.78125 46.921875 26.65625 46.921875 
Q 22.90625 46.921875 20.390625 45.671875 
Q 17.875 44.4375 16.3125 41.921875 
Q 14.75 39.40625 14.078125 35.59375 
Q 13.421875 31.78125 13.421875 26.65625 
z
" id="LiberationSans-99"/>
     </defs>
     <g transform="translate(220.50125 95.331875)scale(0.14 -0.14)">
      <use xlink:href="#LiberationSans-83"/>
      <use x="66.699219" xlink:href="#LiberationSans-97"/>
      <use x="122.314453" xlink:href="#LiberationSans-109"/>
      <use x="205.615234" xlink:href="#LiberationSans-112"/>
      <use x="261.230469" xlink:href="#LiberationSans-108"/>
      <use x="283.447266" xlink:href="#LiberationSans-101"/>
      <use x="339.0625" xlink:href="#LiberationSans-115"/>
      <use x="389.0625" xlink:href="#LiberationSans-32"/>
      <use x="416.845703" xlink:href="#LiberationSans-111"/>
      <use x="472.460938" xlink:href="#LiberationSans-102"/>
      <use x="500.244141" xlink:href="#LiberationSans-32"/>
      <use x="528.027344" xlink:href="#LiberationSans-111"/>
      <use x="583.642578" xlink:href="#LiberationSans-100"/>
      <use x="639.257812" xlink:href="#LiberationSans-111"/>
      <use x="694.873047" xlink:href="#LiberationSans-114"/>
      <use x="728.173828" xlink:href="#LiberationSans-32"/>
      <use x="755.957031" xlink:href="#LiberationSans-99"/>
      <use x="805.957031" xlink:href="#LiberationSans-108"/>
      <use x="828.173828" xlink:href="#LiberationSans-97"/>
      <use x="883.789062" xlink:href="#LiberationSans-115"/>
      <use x="933.789062" xlink:href="#LiberationSans-115"/>
      <use x="983.789062" xlink:href="#LiberationSans-32"/>
      <use x="1011.572266" xlink:href="#LiberationSans-49"/>
     </g>
    </g>
   </g>
   <g id="matplotlib.axis_2">
    <g id="ytick_1">
     <g id="line2d_7">
      <defs>
       <path d="M 0 0 
L -3.5 0 
" id="mb9d50f741e" style="stroke:#000000;stroke-width:0.8;"/>
      </defs>
      <g>
       <use style="stroke:#000000;stroke-width:0.8;" x="72" xlink:href="#mb9d50f741e" y="49.128012"/>
      </g>
     </g>
     <g id="text_8">
      <!-- 0 -->
      <g transform="translate(58.326875 53.476137)scale(0.12 -0.12)">
       <use xlink:href="#LiberationSans-48"/>
      </g>
     </g>
    </g>
    <g id="ytick_2">
     <g id="line2d_8">
      <g>
       <use style="stroke:#000000;stroke-width:0.8;" x="72" xlink:href="#mb9d50f741e" y="19.777278"/>
      </g>
     </g>
     <g id="text_9">
      <!-- 2 -->
      <g transform="translate(58.326875 24.125403)scale(0.12 -0.12)">
       <use xlink:href="#LiberationSans-50"/>
      </g>
     </g>
    </g>
    <g id="text_10">
     <!-- Feature 1 z-score -->
     <defs>
      <path d="M 17.53125 61.1875 
L 17.53125 35.59375 
L 55.90625 35.59375 
L 55.90625 27.875 
L 17.53125 27.875 
L 17.53125 0 
L 8.203125 0 
L 8.203125 68.796875 
L 57.078125 68.796875 
L 57.078125 61.1875 
z
" id="LiberationSans-70"/>
      <path d="M 27.046875 0.390625 
Q 25.046875 -0.140625 22.96875 -0.453125 
Q 20.90625 -0.78125 18.171875 -0.78125 
Q 7.625 -0.78125 7.625 11.1875 
L 7.625 46.4375 
L 1.515625 46.4375 
L 1.515625 52.828125 
L 7.953125 52.828125 
L 10.546875 64.65625 
L 16.40625 64.65625 
L 16.40625 52.828125 
L 26.171875 52.828125 
L 26.171875 46.4375 
L 16.40625 46.4375 
L 16.40625 13.09375 
Q 16.40625 9.28125 17.640625 7.734375 
Q 18.890625 6.203125 21.96875 6.203125 
Q 23.25 6.203125 24.4375 6.390625 
Q 25.640625 6.59375 27.046875 6.890625 
z
" id="LiberationSans-116"/>
      <path d="M 15.328125 52.828125 
L 15.328125 19.34375 
Q 15.328125 15.484375 15.890625 12.890625 
Q 16.453125 10.296875 17.71875 8.703125 
Q 19 7.125 21.0625 6.46875 
Q 23.140625 5.8125 26.21875 5.8125 
Q 29.34375 5.8125 31.859375 6.90625 
Q 34.375 8.015625 36.15625 10.078125 
Q 37.9375 12.15625 38.90625 15.203125 
Q 39.890625 18.265625 39.890625 22.21875 
L 39.890625 52.828125 
L 48.6875 52.828125 
L 48.6875 11.28125 
Q 48.6875 9.625 48.703125 7.78125 
Q 48.734375 5.953125 48.78125 4.3125 
Q 48.828125 2.6875 48.875 1.515625 
Q 48.921875 0.34375 48.96875 0 
L 40.671875 0 
Q 40.625 0.25 40.578125 1.3125 
Q 40.53125 2.390625 40.453125 3.78125 
Q 40.375 5.171875 40.328125 6.609375 
Q 40.28125 8.0625 40.28125 9.03125 
L 40.140625 9.03125 
Q 38.875 6.734375 37.359375 4.875 
Q 35.84375 3.03125 33.84375 1.734375 
Q 31.84375 0.4375 29.25 -0.265625 
Q 26.65625 -0.984375 23.25 -0.984375 
Q 18.84375 -0.984375 15.671875 0.09375 
Q 12.5 1.171875 10.453125 3.421875 
Q 8.40625 5.671875 7.453125 9.1875 
Q 6.5 12.703125 6.5 17.625 
L 6.5 52.828125 
z
" id="LiberationSans-117"/>
      <path d="M 2.390625 0 
L 2.390625 6.6875 
L 34.671875 46.046875 
L 4.34375 46.046875 
L 4.34375 52.828125 
L 44.578125 52.828125 
L 44.578125 46.140625 
L 12.25 6.78125 
L 46.390625 6.78125 
L 46.390625 0 
z
" id="LiberationSans-122"/>
      <path d="M 4.4375 22.65625 
L 4.4375 30.46875 
L 28.859375 30.46875 
L 28.859375 22.65625 
z
" id="LiberationSans-45"/>
     </defs>
     <g transform="translate(51.421875 90.670469)rotate(-90)scale(0.14 -0.14)">
      <use xlink:href="#LiberationSans-70"/>
      <use x="61.083984" xlink:href="#LiberationSans-101"/>
      <use x="116.699219" xlink:href="#LiberationSans-97"/>
      <use x="172.314453" xlink:href="#LiberationSans-116"/>
      <use x="200.097656" xlink:href="#LiberationSans-117"/>
      <use x="255.712891" xlink:href="#LiberationSans-114"/>
      <use x="289.013672" xlink:href="#LiberationSans-101"/>
      <use x="344.628906" xlink:href="#LiberationSans-32"/>
      <use x="372.412109" xlink:href="#LiberationSans-49"/>
      <use x="428.027344" xlink:href="#LiberationSans-32"/>
      <use x="455.810547" xlink:href="#LiberationSans-122"/>
      <use x="505.810547" xlink:href="#LiberationSans-45"/>
      <use x="539.111328" xlink:href="#LiberationSans-115"/>
      <use x="589.111328" xlink:href="#LiberationSans-99"/>
      <use x="639.111328" xlink:href="#LiberationSans-111"/>
      <use x="694.726562" xlink:href="#LiberationSans-114"/>
      <use x="728.027344" xlink:href="#LiberationSans-101"/>
     </g>
    </g>
   </g>
   <g id="line2d_9">
    <path clip-path="url(#p5babffc84d)" d="M 92.290909 56.448416 
L 92.924011 47.506691 
L 93.398837 37.016488 
L 94.031939 27.53075 
L 94.34849 23.789637 
L 94.506765 55.839885 
L 94.981591 48.572083 
L 95.139867 46.793856 
L 95.614693 36.798455 
L 96.40607 25.840976 
L 96.564345 23.823064 
L 96.722621 56.047631 
L 97.197447 48.699967 
L 97.355723 46.888339 
L 97.830549 36.77932 
L 98.621926 25.413912 
L 98.780201 23.422659 
L 98.938477 55.933903 
L 99.255028 50.459338 
L 99.413303 49.896937 
L 100.362956 31.817225 
L 100.996057 24.358905 
L 101.154333 55.429923 
L 101.629159 48.035959 
L 101.787434 46.450294 
L 102.262261 36.385126 
L 103.053638 25.488264 
L 103.211913 23.72263 
L 103.370189 55.687824 
L 103.845015 48.29179 
L 104.00329 46.517133 
L 104.478117 36.965786 
L 105.269494 26.359232 
L 105.427769 24.577582 
L 105.586045 37.368695 
L 105.74432 26.325635 
L 105.902595 44.444065 
L 106.060871 19.78912 
L 106.219146 18.989865 
L 106.377422 58.769299 
L 106.693972 50.429623 
L 106.852248 45.274918 
L 107.010523 45.304269 
L 107.168799 43.666132 
L 107.48535 35.530084 
L 108.118451 23.916874 
L 108.593278 17.203885 
L 108.751553 54.948625 
L 109.226379 45.070672 
L 109.384655 43.249094 
L 109.859481 31.819886 
L 110.492583 20.75378 
L 110.809133 16.478931 
L 110.967409 54.881125 
L 111.442235 44.745824 
L 111.600511 43.204377 
L 111.917061 34.907081 
L 112.550163 23.093268 
L 113.024989 16.381361 
L 113.183265 54.545417 
L 113.658091 44.88465 
L 113.816366 43.099216 
L 114.291193 31.360982 
L 114.924294 20.654756 
L 115.240845 16.376478 
L 115.399121 54.661232 
L 115.873947 45.050086 
L 116.032222 43.146114 
L 116.507049 31.275973 
L 117.298426 18.612176 
L 117.456701 16.216485 
L 117.614977 58.684478 
L 117.773252 59.78009 
L 117.931527 56.944662 
L 118.089803 56.793026 
L 118.248078 54.541824 
L 118.564629 60.529091 
L 118.722905 59.521464 
L 118.88118 59.786171 
L 119.039455 59.834268 
L 119.197731 59.686403 
L 119.672557 59.807712 
L 119.830833 59.708457 
L 119.989108 59.740618 
L 120.147383 53.242477 
L 120.305659 53.123849 
L 120.780485 43.283637 
L 120.93876 40.690746 
L 121.571862 23.155773 
L 122.204964 11.110909 
L 122.363239 53.289316 
L 122.838066 43.055781 
L 122.996341 40.478837 
L 123.471167 26.730132 
L 124.262544 11.161995 
L 124.42082 53.227057 
L 124.895646 43.081361 
L 125.053921 40.607084 
L 125.528748 27.115686 
L 126.161849 14.604497 
L 126.320125 11.893048 
L 126.4784 53.260478 
L 126.953226 43.412114 
L 127.111502 40.914861 
L 127.744604 23.852021 
L 128.377705 12.248058 
L 128.535981 53.341926 
L 129.010807 43.235601 
L 129.169082 40.688846 
L 129.802184 23.534365 
L 130.435286 11.716613 
L 130.593561 24.038198 
L 130.751837 22.766999 
L 130.910112 36.912989 
L 131.068387 32.880809 
L 131.226663 33.391172 
L 131.384938 34.574183 
L 131.543214 39.854139 
L 131.701489 39.125807 
L 131.859765 45.471118 
L 132.01804 45.336021 
L 132.176315 25.257962 
L 132.334591 29.79903 
L 132.492866 29.819474 
L 132.651142 29.500895 
L 132.967693 32.196351 
L 133.125968 31.94196 
L 133.284243 31.84517 
L 133.442519 31.971892 
L 133.600794 31.85934 
L 133.75907 31.891624 
L 133.917345 32.051311 
L 134.233896 31.823894 
L 134.392171 32.160703 
L 134.708722 31.855146 
L 134.866998 32.026211 
L 135.183548 31.821624 
L 135.341824 32.079203 
L 135.658375 31.811482 
L 135.81665 32.107112 
L 135.974926 31.862273 
L 136.133201 31.855177 
L 136.291476 35.174877 
L 136.449752 34.883636 
L 136.608027 34.354664 
L 136.766303 35.767634 
L 137.241129 35.528152 
L 137.715955 35.518667 
L 137.874231 35.553311 
L 138.032506 35.427215 
L 138.190781 35.595934 
L 138.349057 35.445923 
L 138.507332 35.576317 
L 138.665608 35.484342 
L 139.140434 35.548985 
L 139.931811 35.660279 
L 140.090087 39.245738 
L 140.406637 38.049235 
L 140.564913 39.232077 
L 140.881464 38.93692 
L 141.039739 39.039605 
L 141.35629 39.018457 
L 141.514565 39.095866 
L 141.831116 39.015899 
L 141.989392 39.113507 
L 142.780769 39.0295 
L 143.572146 39.005994 
L 143.730421 39.062065 
L 143.888697 43.312278 
L 144.205247 42.546445 
L 144.363523 43.390779 
L 145.471451 43.26749 
L 145.946277 43.298551 
L 146.104553 43.234582 
L 146.579379 43.321761 
L 147.529031 43.304715 
L 147.687307 48.42202 
L 147.845582 48.449855 
L 148.003858 48.054476 
L 148.162133 48.659882 
L 148.795235 48.607548 
L 151.327641 48.592405 
L 151.485917 44.384447 
L 151.644192 45.013333 
L 151.802468 44.511381 
L 151.960743 45.207612 
L 152.277294 45.169607 
L 152.75212 45.057451 
L 153.226947 45.137366 
L 153.860048 45.125452 
L 154.176599 45.163659 
L 154.967976 45.108625 
L 155.126252 45.156297 
L 155.284527 40.793267 
L 155.442802 39.568202 
L 155.601078 39.349598 
L 155.759353 40.38414 
L 156.075904 40.298713 
L 156.23418 40.137344 
L 156.392455 40.287935 
L 156.867281 40.190168 
L 157.183832 40.227175 
L 157.816934 40.264511 
L 158.450035 40.270937 
L 158.924862 40.267201 
L 159.083137 35.897797 
L 159.399688 35.349692 
L 159.557963 36.645099 
L 160.03279 36.397108 
L 161.615544 36.708651 
L 161.932095 36.661571 
L 162.723472 36.709046 
L 162.881747 33.212008 
L 163.040023 33.113944 
L 163.198298 32.793622 
L 163.356574 34.228625 
L 163.673124 34.046112 
L 163.989675 33.85691 
L 164.939328 33.928045 
L 165.255879 33.840566 
L 165.730705 33.865928 
L 165.88898 33.79983 
L 166.205531 33.823594 
L 166.522082 33.846414 
L 166.680357 52.805286 
L 166.838633 52.472978 
L 166.996908 51.771841 
L 167.155184 52.173779 
L 167.471735 52.270817 
L 168.421387 52.255981 
L 168.896213 52.282659 
L 169.37104 52.230383 
L 170.162417 52.252097 
L 170.320692 52.247476 
L 170.478968 52.783038 
L 170.795518 51.082755 
L 171.112069 51.601249 
L 174.119302 51.553493 
L 174.277578 31.008794 
L 174.594128 30.530045 
L 174.752404 31.97269 
L 175.385506 31.625085 
L 175.702056 31.734837 
L 175.860332 31.561435 
L 176.335158 31.536521 
L 177.917912 31.567234 
L 178.076188 34.101512 
L 178.392739 33.650699 
L 178.551014 34.928993 
L 178.867565 34.868317 
L 179.184116 34.660473 
L 179.500667 34.489038 
L 179.817217 34.631002 
L 180.76687 34.641124 
L 181.083421 34.701868 
L 181.241696 34.620203 
L 181.399972 34.696035 
L 181.716522 34.699868 
L 181.874798 37.792056 
L 182.033073 37.184395 
L 182.191349 37.143327 
L 182.349624 38.265933 
L 182.5079 38.233114 
L 182.82445 38.046464 
L 184.090654 37.990594 
L 184.56548 37.998678 
L 185.040306 37.927935 
L 185.356857 38.054373 
L 185.515133 37.96643 
L 185.673408 42.065063 
L 185.989959 41.866111 
L 186.148234 42.698933 
L 186.30651 42.737666 
L 186.464785 42.583128 
L 186.623061 42.666572 
L 187.256162 42.548331 
L 187.730989 42.61203 
L 188.205815 42.566668 
L 189.313743 42.566416 
L 189.472018 59.726179 
L 190.10512 59.724733 
L 190.263395 42.985202 
L 190.421671 43.300661 
L 190.579946 43.18767 
L 190.738222 43.289032 
L 191.054772 43.327961 
L 191.371323 43.379679 
L 191.529599 59.17727 
L 191.687874 58.82158 
L 192.1627 58.7377 
L 192.320976 59.145326 
L 192.479251 58.789842 
L 192.954077 58.767093 
L 193.112353 59.373109 
L 193.270628 59.092172 
L 193.90373 59.005476 
L 194.220281 58.447727 
L 194.695107 58.837459 
L 194.853382 58.451257 
L 195.328209 58.416209 
L 195.486484 58.588108 
L 195.64476 58.165993 
L 196.119586 58.213393 
L 196.277861 32.568852 
L 196.594412 32.935617 
L 196.752688 33.694822 
L 196.910963 33.264279 
L 197.227514 33.602126 
L 197.544065 33.77553 
L 197.70234 35.888072 
L 197.860616 33.251727 
L 198.177166 34.637412 
L 198.335442 34.961878 
L 198.493717 33.988385 
L 198.810268 35.66204 
L 198.968543 36.147131 
L 199.126819 36.152541 
L 199.285094 36.316665 
L 199.44337 34.185412 
L 199.759921 35.959235 
L 200.076471 36.221094 
L 200.234747 36.474955 
L 200.393022 43.304669 
L 200.709573 43.572097 
L 201.184399 44.105144 
L 201.342675 43.311552 
L 201.50095 43.326642 
L 202.134052 44.114771 
L 202.292327 34.011519 
L 202.608878 35.933561 
L 203.083704 36.657829 
L 203.24198 34.000531 
L 203.400255 34.349507 
L 203.558531 33.936102 
L 203.875082 34.299569 
L 204.033357 34.042005 
L 204.349908 34.43359 
L 204.508183 34.261255 
L 204.666459 34.354241 
L 204.824734 43.087327 
L 205.141285 43.941266 
L 205.457836 43.77567 
L 205.932662 43.589908 
L 206.090937 43.5504 
L 206.249213 43.909045 
L 206.724039 43.393252 
L 207.04059 43.373729 
L 207.673692 43.38176 
L 208.465069 43.298355 
L 209.256446 43.541639 
L 209.414721 43.135942 
L 209.572997 43.057081 
L 209.889548 43.131014 
L 210.047823 43.092737 
L 210.364374 43.151599 
L 210.8392 43.373719 
L 210.997476 44.151754 
L 211.155751 43.237743 
L 211.314026 43.2053 
L 211.788853 43.349364 
L 211.947128 43.248764 
L 212.105403 43.329525 
L 212.421954 43.337381 
L 212.58023 43.401299 
L 212.738505 43.118994 
L 212.896781 48.408094 
L 213.213331 49.857674 
L 213.371607 50.279732 
L 213.846433 50.294316 
L 214.162984 50.2057 
L 214.321259 50.283331 
L 214.954361 50.161811 
L 215.270912 50.289895 
L 215.429187 50.233804 
L 215.745738 50.398713 
L 216.220564 50.338007 
L 217.961594 50.520131 
L 218.278145 50.46855 
L 218.43642 50.571164 
L 218.752971 50.558401 
L 219.227797 50.56642 
L 219.544348 50.606939 
L 219.702624 50.504631 
L 220.019175 50.602427 
L 220.335725 50.577135 
L 220.968827 50.646993 
L 221.285378 50.600084 
L 221.760204 50.678411 
L 222.23503 50.653079 
L 223.342958 50.82705 
L 223.817785 50.348567 
L 224.134336 50.292302 
L 224.292611 50.323683 
L 224.609162 50.234174 
L 225.083988 50.288991 
L 225.71709 50.276418 
L 226.033641 50.079581 
L 226.983293 50.138469 
L 227.299844 50.104549 
L 227.616395 50.207019 
L 228.407772 50.060605 
L 228.724323 50.104545 
L 228.882598 50.041449 
L 229.040874 49.583247 
L 229.199149 50.085696 
L 229.5157 50.115047 
L 230.781903 50.058231 
L 232.206382 50.09354 
L 232.364657 50.200431 
L 232.681208 50.076085 
L 233.156035 50.089192 
L 233.789136 50.108628 
L 233.947412 50.256929 
L 234.263963 50.089819 
L 234.580513 50.078376 
L 234.897064 50.097227 
L 236.004992 50.115852 
L 236.638094 50.067355 
L 239.961878 50.072016 
L 240.278429 50.034124 
L 241.069806 50.066026 
L 241.228081 50.273277 
L 241.544632 50.102571 
L 241.861183 50.076457 
L 242.019458 50.051981 
L 242.177734 50.201147 
L 242.65256 50.241291 
L 242.969111 50.218751 
L 243.285662 50.106109 
L 244.39359 50.079857 
L 244.551865 50.111481 
L 244.71014 50.011059 
L 245.184967 50.11248 
L 245.501518 45.41418 
L 245.976344 40.770629 
L 246.45117 37.237463 
L 246.609445 50.670231 
L 246.767721 35.214091 
L 246.925996 42.908934 
L 247.242547 37.631625 
L 247.400823 48.645824 
L 247.559098 46.105295 
L 247.717373 37.44 
L 247.875649 41.243178 
L 248.033924 48.529486 
L 248.1922 46.271946 
L 248.350475 37.586213 
L 248.508751 41.614464 
L 248.667026 51.752054 
L 248.825301 37.06024 
L 248.983577 44.293965 
L 249.300128 38.249444 
L 249.458403 49.128586 
L 249.616678 46.729016 
L 249.774954 38.536033 
L 249.933229 41.900069 
L 250.091505 52.042872 
L 250.24978 38.180303 
L 250.408056 45.031312 
L 250.724606 38.580814 
L 250.882882 50.701199 
L 251.357708 43.282747 
L 251.832534 39.119651 
L 252.149085 37.366677 
L 252.307361 40.846638 
L 252.782187 36.470045 
L 252.940462 50.70686 
L 253.415289 43.392883 
L 253.573564 41.591651 
L 253.731839 48.577572 
L 253.890115 48.410554 
L 254.04839 48.914865 
L 254.206666 48.880531 
L 254.364941 49.419187 
L 254.523217 49.528975 
L 254.839767 49.417185 
L 255.78942 49.435031 
L 256.105971 49.425742 
L 256.422522 49.482487 
L 260.221132 49.244408 
L 260.537683 49.301979 
L 261.170784 49.262854 
L 261.487335 49.2621 
L 261.645611 49.900807 
L 261.803886 49.225334 
L 262.278712 49.31791 
L 262.436988 49.449993 
L 262.595263 49.261733 
L 262.753539 49.319967 
L 263.070089 49.258508 
L 264.494568 49.204032 
L 264.652844 49.025147 
L 264.811119 49.196296 
L 264.969394 49.177406 
L 265.12767 49.270704 
L 265.760772 49.151964 
L 266.235598 49.162129 
L 267.818352 49.085233 
L 267.976627 49.420097 
L 268.293178 49.05303 
L 268.92628 49.123496 
L 269.559382 49.121638 
L 269.875932 49.323918 
L 270.034208 49.111395 
L 270.192483 53.361825 
L 270.350759 44.614797 
L 270.509034 56.300927 
L 270.66731 44.606924 
L 270.825585 56.506711 
L 270.98386 44.440913 
L 271.142136 56.464806 
L 271.300411 44.154245 
L 271.458687 56.366533 
L 271.616962 44.080816 
L 271.775238 56.348301 
L 271.933513 44.039833 
L 272.091788 56.330521 
L 272.250064 44.059304 
L 272.408339 56.322865 
L 272.566615 44.055124 
L 272.72489 56.317452 
L 272.883166 43.926793 
L 273.041441 56.314094 
L 273.199716 43.959849 
L 273.357992 56.299902 
L 273.516267 43.836964 
L 273.674543 56.278176 
L 273.832818 43.883774 
L 273.991093 56.189919 
L 274.149369 43.867795 
L 274.307644 56.251018 
L 274.46592 43.954905 
L 274.624195 56.281926 
L 274.782471 44.091326 
L 274.940746 56.27374 
L 275.099021 44.039622 
L 275.257297 56.271741 
L 275.415572 44.051073 
L 275.573848 56.266229 
L 275.732123 44.100739 
L 275.890399 56.292726 
L 276.048674 47.281831 
L 276.206949 56.294225 
L 276.365225 44.039861 
L 276.5235 56.241336 
L 276.681776 43.983545 
L 276.840051 56.206677 
L 276.998326 43.932706 
L 277.156602 56.255828 
L 277.314877 43.977641 
L 277.473153 56.234769 
L 277.631428 43.933649 
L 277.789704 56.543234 
L 277.947979 43.969321 
L 278.106254 56.243744 
L 278.26453 43.880092 
L 278.422805 56.267143 
L 278.581081 43.87245 
L 278.739356 56.21978 
L 278.897632 43.992373 
L 279.055907 56.233044 
L 279.214182 43.810597 
L 279.372458 56.214973 
L 279.530733 43.814441 
L 279.689009 56.665647 
L 279.847284 49.375271 
L 280.005559 57.439922 
L 280.163835 52.801591 
L 280.32211 57.637076 
L 280.480386 53.181211 
L 280.638661 57.748325 
L 280.796937 53.453916 
L 280.955212 57.822014 
L 281.113487 53.653592 
L 281.271763 57.946349 
L 281.430038 54.459179 
L 281.588314 58.479819 
L 281.746589 44.104223 
L 281.904865 56.245825 
L 282.06314 43.852457 
L 282.221415 56.244604 
L 282.379691 44.02539 
L 282.537966 56.262567 
L 282.696242 44.210051 
L 282.854517 56.302635 
L 283.012793 43.800546 
L 283.171068 55.829058 
L 283.329343 46.820611 
L 283.487619 56.463586 
L 283.645894 43.913799 
L 283.80417 56.218965 
L 283.962445 43.84557 
L 284.12072 56.216862 
L 284.278996 43.790782 
L 284.437271 56.208917 
L 284.595547 43.900913 
L 284.753822 56.434287 
L 284.912098 43.871203 
L 285.070373 56.207865 
L 285.228648 43.88495 
L 285.386924 56.289151 
L 285.545199 43.95143 
L 285.703475 56.189525 
L 285.86175 43.837752 
L 286.020026 56.210452 
L 286.178301 44.35311 
L 286.336576 56.108388 
L 286.494852 36.594123 
L 286.653127 53.12461 
L 286.811403 39.215842 
L 286.969678 49.31077 
L 287.127953 42.673098 
L 287.286229 47.338818 
L 287.444504 35.014779 
L 287.60278 37.250159 
L 287.919331 52.12119 
L 288.077606 54.232813 
L 288.235881 54.349916 
L 288.394157 52.211779 
L 288.552432 56.553419 
L 288.710708 49.745213 
L 288.868983 56.023088 
L 289.027259 50.632032 
L 289.185534 54.248633 
L 289.343809 55.001577 
L 289.502085 55.143369 
L 289.66036 54.715699 
L 289.818636 52.872743 
L 289.976911 52.977918 
L 290.135186 54.598804 
L 290.293462 58.277397 
L 290.451737 53.560577 
L 290.610013 57.743875 
L 290.768288 54.791263 
L 290.926564 56.938636 
L 291.084839 52.896134 
L 291.243114 54.751536 
L 291.40139 51.989321 
L 291.559665 52.772027 
L 291.717941 52.528927 
L 291.876216 54.568127 
L 292.034492 55.095061 
L 292.351042 52.980404 
L 292.509318 56.382212 
L 292.667593 53.791831 
L 292.825869 57.355912 
L 292.984144 53.468044 
L 293.14242 55.401042 
L 293.300695 55.008743 
L 293.45897 57.204123 
L 293.933797 55.370215 
L 294.092072 56.178652 
L 294.250347 58.72304 
L 294.408623 55.278093 
L 294.566898 58.433422 
L 294.725174 56.521708 
L 294.883449 58.011882 
L 295.041725 57.121682 
L 295.358275 35.131581 
L 295.516551 37.594697 
L 295.674826 36.227256 
L 295.833102 50.78342 
L 295.991377 52.81184 
L 296.307928 49.28312 
L 296.466203 54.446972 
L 296.624479 50.659507 
L 296.782754 56.1946 
L 296.94103 50.64874 
L 297.099305 53.288815 
L 297.25758 52.357148 
L 297.415856 55.741448 
L 297.732407 53.386795 
L 297.890682 53.42926 
L 298.048958 55.22133 
L 298.207233 58.510698 
L 298.365508 37.983443 
L 298.523784 54.413622 
L 298.682059 40.372364 
L 298.840335 49.560082 
L 298.99861 38.461131 
L 299.156886 46.483742 
L 299.315161 35.044168 
L 299.473436 37.492313 
L 299.631712 36.096265 
L 299.789987 43.100562 
L 299.948263 45.174266 
L 300.106538 39.409523 
L 300.423089 54.788837 
L 300.581364 51.590728 
L 300.73964 57.291005 
L 300.897915 53.615132 
L 301.056191 55.535322 
L 301.214466 55.102863 
L 301.372741 57.625436 
L 301.531017 56.096709 
L 301.689292 52.899395 
L 301.847568 55.275185 
L 302.005843 52.404462 
L 302.164119 58.873443 
L 302.322394 37.798364 
L 302.480669 54.485264 
L 302.638945 44.137988 
L 302.79722 49.823736 
L 302.955496 38.611721 
L 303.113771 46.677945 
L 303.272047 35.138317 
L 303.430322 37.95334 
L 303.588597 37.211923 
L 303.905148 45.138206 
L 304.221699 35.646187 
L 304.379974 48.839407 
L 304.53825 38.341096 
L 304.696525 52.563932 
L 304.854801 36.743036 
L 305.013076 43.912509 
L 305.171352 41.940254 
L 305.329627 50.926681 
L 305.804453 40.213504 
L 305.962729 44.384845 
L 306.121004 56.386069 
L 306.27928 37.454839 
L 306.437555 53.709175 
L 306.59583 40.303125 
L 306.754106 49.582671 
L 306.912381 38.478939 
L 307.070657 46.452473 
L 307.228932 35.13514 
L 307.387207 37.504434 
L 307.545483 36.800213 
L 307.862034 48.945725 
L 308.020309 44.713781 
L 308.178585 43.515806 
L 308.33686 50.736229 
L 308.495135 44.902551 
L 308.653411 54.300613 
L 308.811686 44.391009 
L 308.969962 49.268075 
L 309.128237 47.842827 
L 309.286513 53.432443 
L 309.761339 48.000988 
L 310.07789 57.454294 
L 310.236165 48.026745 
L 310.394441 56.171517 
L 310.552716 49.781424 
L 310.710991 54.110164 
L 310.869267 49.099863 
L 311.027542 52.694423 
L 311.185818 47.689933 
L 311.344093 48.962892 
L 311.502368 48.329143 
L 311.660644 51.465516 
L 311.818919 52.379289 
L 312.13547 48.432424 
L 312.293746 54.059862 
L 312.452021 49.583609 
L 312.610296 55.732895 
L 312.768572 49.013067 
L 312.926847 52.132022 
L 313.085123 51.269328 
L 313.243398 55.107343 
L 313.718224 50.737537 
L 313.8765 52.21232 
L 314.034775 57.602873 
L 314.193051 49.458907 
L 314.351326 56.59341 
L 314.509601 50.720562 
L 314.667877 54.58947 
L 314.826152 49.989483 
L 314.984428 53.333843 
L 315.142703 48.910914 
L 315.300979 49.994381 
L 315.459254 49.29661 
L 315.617529 52.21802 
L 315.775805 52.953798 
L 316.092356 49.891033 
L 316.250631 54.846954 
L 316.408907 51.215831 
L 316.567182 56.407856 
L 316.883733 47.157772 
L 317.042008 46.970654 
L 317.200284 52.053322 
L 317.67511 41.990485 
L 317.833385 45.392496 
L 317.991661 56.483689 
L 318.149936 39.605079 
L 318.308212 54.46824 
L 318.466487 41.976933 
L 318.624762 52.068147 
L 318.783038 52.446228 
L 318.941313 55.588666 
L 319.099589 45.352925 
L 319.257864 48.654105 
L 319.41614 43.862599 
L 319.574415 48.418837 
L 319.73269 49.239715 
L 319.890966 46.363158 
L 320.049241 57.905921 
L 320.207517 59.197684 
L 320.524068 48.908655 
L 320.682343 52.60191 
L 320.840618 52.790136 
L 320.998894 56.391931 
L 321.315445 41.564249 
L 321.47372 40.261925 
L 321.631995 44.278201 
L 321.790271 56.382726 
L 321.948546 37.506621 
L 322.106822 54.670924 
L 322.265097 40.229609 
L 322.423373 49.655924 
L 322.581648 38.50211 
L 322.739923 46.501344 
L 322.898199 35.166486 
L 323.056474 37.71548 
L 323.21475 36.18865 
L 323.373025 43.134256 
L 323.531301 45.183262 
L 323.847851 35.561016 
L 324.006127 48.733015 
L 324.164402 38.305483 
L 324.322678 52.462134 
L 324.480953 36.588882 
L 324.639228 43.911188 
L 324.797504 41.960882 
L 324.955779 50.931811 
L 325.430606 40.161436 
L 325.588881 44.320402 
L 325.747156 56.320485 
L 325.905432 37.582855 
L 326.063707 54.280128 
L 326.221983 40.451586 
L 326.380258 49.612549 
L 326.538534 38.52493 
L 326.696809 46.517853 
L 326.855084 35.286521 
L 327.01336 37.686902 
L 327.171635 46.865295 
L 327.329911 43.360563 
L 327.488186 45.409481 
L 327.804737 36.126133 
L 327.963012 49.436012 
L 328.121288 39.233212 
L 328.279563 52.787701 
L 328.437839 36.888017 
L 328.596114 44.115778 
L 328.754389 42.148534 
L 328.912665 51.075586 
L 329.387491 40.361963 
L 329.545767 44.464994 
L 329.704042 57.001136 
L 329.862317 37.471803 
L 330.020593 54.260278 
L 330.178868 40.350291 
L 330.337144 49.581804 
L 330.495419 38.506024 
L 330.653695 46.451803 
L 330.81197 35.19166 
L 330.970245 37.613431 
L 331.128521 36.116932 
L 331.445072 45.177608 
L 331.761622 37.305643 
L 331.919898 50.271196 
L 332.078173 38.635312 
L 332.236449 52.608267 
L 332.394724 38.042596 
L 332.553 43.923657 
L 332.711275 42.180153 
L 332.86955 50.916882 
L 333.344377 39.642044 
L 333.502652 55.17355 
L 333.660928 58.42183 
L 333.819203 52.347278 
L 333.977478 57.503681 
L 334.135754 53.491439 
L 334.294029 55.932264 
L 334.452305 52.688745 
L 334.61058 54.699046 
L 334.768855 51.343754 
L 334.927131 51.653717 
L 335.085406 51.633379 
L 335.401957 54.727994 
L 335.718508 51.358756 
L 335.876783 55.332038 
L 336.035059 52.277518 
L 336.193334 56.756315 
L 336.35161 51.685918 
L 336.509885 53.636882 
L 336.668161 53.60012 
L 336.826436 56.187034 
L 336.984711 55.343648 
L 337.301262 52.331713 
L 337.459538 54.327011 
L 337.617813 58.150362 
L 337.776088 51.885165 
L 337.934364 57.334363 
L 338.092639 53.055982 
L 338.250915 55.705667 
L 338.40919 52.369865 
L 338.567466 54.495625 
L 338.725741 51.059188 
L 338.884016 51.418194 
L 339.042292 51.426492 
L 339.358843 54.600085 
L 339.675394 51.219264 
L 339.833669 55.299431 
L 339.991944 52.163819 
L 340.15022 56.715041 
L 340.308495 51.60476 
L 340.466771 53.570128 
L 340.625046 53.564516 
L 340.783322 56.158657 
L 340.941597 55.334089 
L 341.258148 52.314762 
L 341.416423 54.309375 
L 341.574699 58.143516 
L 341.732974 51.826233 
L 341.891249 57.323998 
L 342.049525 53.024872 
L 342.2078 55.694349 
L 342.366076 52.358082 
L 342.524351 54.507648 
L 342.682627 51.006414 
L 342.840902 51.382165 
L 342.999177 51.406613 
L 343.315728 54.654275 
L 343.632279 51.193637 
L 343.790555 55.275189 
L 343.94883 52.189232 
L 344.107105 56.734186 
L 344.265381 51.662886 
L 344.423656 53.614645 
L 344.581932 53.671761 
L 344.740207 56.211447 
L 344.898482 55.433866 
L 345.215033 52.423975 
L 345.373309 54.527954 
L 345.531584 58.201458 
L 345.68986 52.543195 
L 345.848135 57.689714 
L 346.00641 54.608924 
L 346.164686 56.575225 
L 346.322961 54.157125 
L 346.481237 55.649842 
L 346.639512 53.127734 
L 346.956063 53.416707 
L 347.272614 56.067509 
L 347.430889 53.765457 
L 347.589165 53.434438 
L 347.74744 56.383845 
L 347.905716 54.101711 
L 348.063991 57.475679 
L 348.222266 53.685764 
L 348.380542 54.97944 
L 348.538817 55.215041 
L 348.697093 57.08297 
L 348.855368 56.751411 
L 349.171919 54.372554 
L 349.48847 58.643605 
L 349.646745 54.346511 
L 349.805021 58.158897 
L 349.963296 55.074131 
L 350.121571 56.920477 
L 350.279847 54.645796 
L 350.438122 56.098096 
L 350.596398 53.759078 
L 350.754673 53.805814 
L 350.912949 54.216494 
L 351.229499 56.408544 
L 351.387775 54.328084 
L 351.54605 54.02886 
L 351.704326 56.829872 
L 351.862601 54.921201 
L 352.020876 57.796104 
L 352.179152 54.528145 
L 352.653978 57.535657 
L 352.812254 57.041765 
L 353.128804 54.840052 
L 353.445355 58.78149 
L 353.603631 54.928055 
L 353.761906 58.245123 
L 353.920182 55.681666 
L 354.078457 57.344287 
L 354.236732 55.191165 
L 354.395008 56.433494 
L 354.553283 54.550911 
L 354.869834 54.690333 
L 355.186385 56.348395 
L 355.502936 53.684558 
L 355.661211 57.052299 
L 355.819487 54.597574 
L 355.977762 57.717824 
L 356.136037 54.595571 
L 356.610864 57.484784 
L 356.769139 57.106565 
L 357.08569 54.803152 
L 357.243965 56.068145 
L 357.402241 58.675136 
L 357.560516 54.324987 
L 357.718792 58.109396 
L 357.877067 55.270088 
L 358.035343 56.982391 
L 358.193618 54.556547 
L 358.351893 55.991424 
L 358.510169 54.087259 
L 358.668444 53.92735 
L 359.14327 56.899785 
L 359.301546 55.092205 
L 359.459821 54.847451 
L 359.618097 57.17214 
L 359.776372 55.418773 
L 359.934648 57.945758 
L 360.092923 54.993445 
L 360.251198 55.864029 
L 360.409474 56.109744 
L 360.567749 57.620657 
L 360.726025 57.425529 
L 361.042576 55.50824 
L 361.359126 58.849007 
L 361.517402 55.148955 
L 361.675677 58.439191 
L 361.833953 55.912335 
L 361.992228 57.532342 
L 362.150503 54.888979 
L 362.308779 56.204028 
L 362.467054 53.859386 
L 362.62533 53.69705 
L 362.783605 53.731003 
L 363.100156 56.157491 
L 363.258431 54.4748 
L 363.416707 54.642813 
L 363.574982 57.100863 
L 363.733258 55.572157 
L 363.891533 58.00598 
L 364.049809 54.764174 
L 364.524635 57.789799 
L 364.68291 57.487748 
L 364.999461 55.26539 
L 365.316012 58.87933 
L 365.474287 55.49873 
L 365.632563 58.426505 
L 365.790838 56.031214 
L 365.949114 57.366736 
L 366.107389 55.126576 
L 366.265664 56.37448 
L 366.42394 54.845283 
L 366.582215 54.800031 
L 367.057042 57.384557 
L 367.373592 54.767129 
L 367.531868 56.968454 
L 367.690143 55.618047 
L 367.848419 57.978699 
L 368.006694 54.702509 
L 368.48152 57.683952 
L 368.639796 57.709415 
L 368.956347 55.736133 
L 369.272897 58.99665 
L 369.431173 55.411038 
L 369.589448 58.568651 
L 369.747724 56.580199 
L 369.905999 58.057143 
L 370.064275 55.930396 
L 370.22255 57.111568 
L 370.380825 55.885183 
L 370.539101 55.587478 
L 370.697376 55.686762 
L 371.013927 57.550641 
L 371.172203 55.744458 
L 371.330478 56.08696 
L 371.488753 57.420367 
L 371.647029 55.699953 
L 371.805304 58.158155 
L 371.96358 56.331847 
L 372.28013 57.100636 
L 372.438406 58.001356 
L 372.596681 57.973116 
L 372.913232 55.985173 
L 373.229783 59.033563 
L 373.388058 55.454475 
L 373.546334 58.500703 
L 373.704609 56.485549 
L 373.862885 58.118337 
L 374.02116 56.243316 
L 374.179436 56.986037 
L 374.337711 55.777019 
L 374.654262 55.557204 
L 374.970813 57.551619 
L 375.129088 56.053496 
L 375.287363 56.217019 
L 375.445639 57.891506 
L 375.603914 57.150977 
L 375.76219 58.624485 
L 375.920465 57.145552 
L 376.237016 58.04285 
L 376.395291 58.736608 
L 376.553567 58.791608 
L 376.870118 57.322608 
L 377.186669 59.300961 
L 377.344944 57.322003 
L 377.503219 58.948614 
L 377.661495 57.840025 
L 377.81977 58.377622 
L 377.978046 57.656048 
L 378.136321 57.870516 
L 378.294597 56.180531 
L 378.452872 55.777938 
L 378.927698 58.042825 
L 379.085974 56.627236 
L 379.244249 56.588155 
L 379.402524 58.055649 
L 379.5608 57.431804 
L 379.719075 58.76924 
L 379.877351 56.973019 
L 380.352177 58.606023 
L 380.510452 58.573169 
L 380.827003 56.878615 
L 380.985279 59.249818 
L 382.409757 59.074198 
L 382.726308 59.121878 
L 383.35941 59.12013 
L 384.150787 59.148189 
L 385.10044 59.104432 
L 385.575266 59.07601 
L 386.050092 59.223999 
L 386.208368 59.155661 
L 386.524918 59.269464 
L 387.15802 59.235983 
L 388.424224 59.354313 
L 388.740774 59.396738 
L 388.89905 58.633906 
L 389.057325 58.88555 
L 389.532151 58.615447 
L 389.690427 59.00319 
L 389.848702 58.733496 
L 390.165253 58.757133 
L 390.323529 58.477356 
L 390.481804 58.799798 
L 390.640079 58.661176 
L 390.798355 58.887132 
L 390.95663 58.914194 
L 391.114906 58.435498 
L 391.273181 58.667657 
L 391.431457 59.121187 
L 391.589732 59.047656 
L 391.906283 58.016579 
L 392.064558 58.114663 
L 392.222834 57.998532 
L 392.381109 58.173193 
L 392.539384 59.024278 
L 392.69766 58.86237 
L 392.855935 59.192825 
L 393.330762 58.957561 
L 393.489037 59.077647 
L 393.647312 56.213291 
L 393.805588 55.808165 
L 393.963863 55.796943 
L 394.122139 55.927197 
L 394.280414 55.567238 
L 394.43869 55.808609 
L 394.596965 55.793763 
L 394.75524 55.928616 
L 394.913516 55.726854 
L 395.071791 55.99478 
L 395.230067 55.659069 
L 395.388342 55.962114 
L 395.704893 55.65338 
L 396.021444 55.640106 
L 397.762473 55.713621 
L 398.870401 55.733133 
L 400.769706 55.655794 
L 403.143838 55.658101 
L 403.302113 58.783005 
L 403.460389 41.722757 
L 403.776939 52.966027 
L 404.09349 43.741396 
L 404.251766 46.158679 
L 404.410041 52.974337 
L 404.726592 44.144562 
L 404.884867 58.894928 
L 405.043143 41.52205 
L 405.201418 53.083512 
L 405.517969 43.584083 
L 405.676245 58.82364 
L 405.83452 41.632961 
L 405.992795 46.110964 
L 406.151071 58.836834 
L 406.625897 43.824279 
L 406.784172 42.005148 
L 406.942448 46.292992 
L 407.100723 44.004146 
L 407.258999 58.836307 
L 407.417274 42.196278 
L 407.733825 53.060365 
L 407.8921 49.12713 
L 408.050376 52.908347 
L 408.366927 44.206241 
L 408.525202 58.812778 
L 408.683478 41.851883 
L 408.841753 46.513015 
L 409.000028 46.29988 
L 409.158304 53.002788 
L 409.474855 44.003049 
L 409.63313 58.802499 
L 409.791405 42.230755 
L 409.949681 42.412674 
L 410.107956 46.669244 
L 410.266232 58.879599 
L 410.741058 44.300308 
L 410.899333 58.831854 
L 411.057609 42.735645 
L 411.37416 52.855706 
L 411.690711 43.468224 
L 411.848986 52.715129 
L 412.165537 42.92813 
L 412.323812 58.837424 
L 412.482088 41.13618 
L 412.640363 45.9006 
L 412.798638 58.886697 
L 412.956914 41.4369 
L 413.273465 52.814868 
L 413.590016 43.59902 
L 413.748291 46.100271 
L 413.906566 52.821942 
L 414.223117 43.81741 
L 414.381393 58.863273 
L 414.539668 40.585975 
L 414.697944 52.835963 
L 415.014494 42.761658 
L 415.17277 58.82019 
L 415.331045 41.095635 
L 415.489321 45.788615 
L 415.647596 58.842482 
L 416.122422 43.007586 
L 416.280698 41.035162 
L 416.438973 45.777982 
L 416.597249 43.180668 
L 416.755524 58.839168 
L 416.913799 41.447443 
L 417.23035 52.793758 
L 417.388626 48.878666 
L 417.546901 52.837216 
L 417.863452 44.134055 
L 418.021727 58.84108 
L 418.180003 42.321042 
L 418.338278 46.455406 
L 418.496554 46.465295 
L 418.654829 53.058807 
L 418.97138 44.350523 
L 419.129655 58.871252 
L 419.287931 42.980752 
L 419.446206 42.60537 
L 419.604482 46.922426 
L 419.762757 58.929513 
L 420.237583 45.508657 
L 420.395859 58.892533 
L 420.554134 44.565042 
L 420.870685 53.874638 
L 421.187236 47.563431 
L 421.345511 54.352972 
L 421.662062 48.775906 
L 421.820338 58.852943 
L 421.978613 41.160744 
L 422.136888 45.665893 
L 422.295164 59.281241 
L 422.453439 42.275716 
L 422.76999 53.025377 
L 423.086541 43.45536 
L 423.244816 46.35399 
L 423.403092 53.239964 
L 423.719643 43.897378 
L 423.877918 59.282033 
L 424.036193 42.737802 
L 424.194469 53.750983 
L 424.51102 44.313707 
L 424.669295 59.145277 
L 424.827571 42.590598 
L 424.985846 46.941221 
L 425.144121 59.100395 
L 425.618948 44.697533 
L 425.777223 41.70246 
L 425.935499 46.330245 
L 426.093774 44.489155 
L 426.252049 59.008395 
L 426.410325 43.36133 
L 426.5686 46.532331 
L 426.726876 53.192406 
L 426.885151 49.181396 
L 427.043426 53.111996 
L 427.359977 43.751935 
L 427.518253 58.945959 
L 427.676528 42.086142 
L 427.834804 46.471771 
L 427.993079 46.360557 
L 428.151354 53.186166 
L 428.467905 44.09215 
L 428.626181 58.943379 
L 428.784456 41.98732 
L 428.942732 42.140428 
L 429.101007 46.742729 
L 429.259282 58.987515 
L 429.734109 44.057183 
L 429.892384 58.918345 
L 430.050659 42.22441 
L 430.36721 53.212412 
L 430.683761 44.839673 
L 430.842037 53.17652 
L 431.158587 43.88713 
L 431.316863 58.954267 
L 431.475138 42.115128 
L 431.633414 46.594008 
L 431.791689 58.981755 
L 431.949965 42.095025 
L 432.266515 53.091936 
L 432.583066 43.380786 
L 432.741342 45.914044 
L 432.899617 52.857271 
L 433.216168 43.496591 
L 433.374443 58.896729 
L 433.532719 41.934864 
L 433.690994 53.107266 
L 434.007545 45.078591 
L 434.16582 58.990077 
L 434.324096 41.178839 
L 434.482371 45.807596 
L 434.640647 58.920019 
L 435.115473 43.128403 
L 435.273748 41.345756 
L 435.432024 45.899613 
L 435.590299 43.346426 
L 435.748575 58.89844 
L 435.90685 41.63576 
L 436.223401 53.017996 
L 436.381676 49.128443 
L 436.539952 52.817849 
L 436.856503 43.245481 
L 437.014778 58.89245 
L 437.173053 41.358957 
L 437.331329 46.005831 
L 437.489604 45.678932 
L 437.64788 52.803056 
L 437.964431 42.795043 
L 438.122706 58.890048 
L 438.280981 40.95655 
L 438.439257 41.049313 
L 438.597532 45.852241 
L 438.755808 58.939646 
L 439.230634 43.083011 
L 439.388909 58.869707 
L 439.547185 41.113353 
L 439.863736 52.717408 
L 440.180286 42.964241 
L 440.338562 52.789358 
L 440.655113 43.208977 
L 440.813388 58.877174 
L 440.971664 41.305389 
L 441.129939 46.203877 
L 441.288214 57.961741 
L 441.44649 41.394986 
L 441.604765 45.602478 
L 441.763041 53.421227 
L 442.079592 41.883314 
L 442.237867 44.751245 
L 442.396142 52.85125 
L 442.712693 41.405466 
L 442.870969 58.094457 
L 443.029244 39.226392 
L 443.18752 53.084183 
L 443.50407 41.674608 
L 443.662346 58.13003 
L 443.820621 38.847582 
L 443.978897 44.856598 
L 444.137172 58.207355 
L 444.770274 38.194445 
L 444.928549 44.670789 
L 445.086825 41.332765 
L 445.2451 58.246694 
L 445.403375 38.828595 
L 445.719926 52.899411 
L 445.878202 48.197973 
L 446.036477 52.763776 
L 446.353028 41.288435 
L 446.511303 58.181247 
L 446.669579 38.935857 
L 446.827854 44.390135 
L 446.98613 44.597329 
L 447.144405 52.945402 
L 447.460956 41.141511 
L 447.619231 58.227219 
L 447.777507 38.847944 
L 447.935782 38.56182 
L 448.094058 44.540843 
L 448.252333 58.293729 
L 448.727159 40.90795 
L 448.885435 58.221116 
L 449.04371 38.659842 
L 449.360261 52.930633 
L 449.676812 40.964515 
L 449.835087 52.7551 
L 450.151638 41.065468 
L 450.309913 58.25369 
L 450.468189 39.251121 
L 450.626464 44.742395 
L 450.78474 58.02913 
L 450.943015 40.184992 
L 451.259566 53.721117 
L 451.576117 42.93337 
L 451.734392 45.532302 
L 451.892668 53.700819 
L 452.209219 42.502601 
L 452.367494 58.372017 
L 452.525769 40.019314 
L 452.684045 53.307523 
L 453.000596 42.337253 
L 453.158871 58.363186 
L 453.317147 39.786152 
L 453.475422 45.118734 
L 453.633697 58.498243 
L 454.266799 39.090406 
L 454.425074 44.864872 
L 454.58335 42.056855 
L 454.741625 58.424993 
L 454.899901 39.93447 
L 455.216452 53.353609 
L 455.374727 48.6723 
L 455.533002 53.296086 
L 455.849553 41.814849 
L 456.007829 58.398577 
L 456.166104 39.867535 
L 456.32438 44.990755 
L 456.482655 45.179644 
L 456.64093 53.349333 
L 456.957481 42.088672 
L 457.115757 58.474718 
L 457.274032 39.791612 
L 457.432307 39.066254 
L 457.590583 44.932915 
L 457.748858 58.578411 
L 458.223685 41.605284 
L 458.38196 58.423969 
L 458.540235 39.379985 
L 458.856786 53.216088 
L 459.173337 41.943548 
L 459.331613 53.065124 
L 459.648163 41.990249 
L 459.806439 58.467991 
L 459.964714 40.093548 
L 460.12299 44.779732 
L 460.281265 58.591741 
L 460.43954 39.808303 
L 460.756091 53.277458 
L 461.072642 41.642347 
L 461.230918 44.729617 
L 461.389193 53.278406 
L 461.705744 41.898051 
L 461.864019 58.494162 
L 462.022295 39.77422 
L 462.18057 53.223639 
L 462.497121 41.700259 
L 462.655396 58.483854 
L 462.813672 39.611656 
L 462.971947 44.847885 
L 463.130223 58.625237 
L 463.763324 39.495694 
L 463.9216 45.082377 
L 464.079875 42.465646 
L 464.238151 58.503402 
L 464.396426 40.939329 
L 464.554701 45.255794 
L 464.712977 53.375546 
L 464.871252 48.871687 
L 465.029528 53.260417 
L 465.346079 42.336637 
L 465.504354 58.486094 
L 465.662629 41.062675 
L 465.820905 45.466251 
L 465.97918 45.662206 
L 466.137456 53.474161 
L 466.454007 42.913664 
L 466.612282 58.541526 
L 466.770557 41.338803 
L 466.928833 40.944397 
L 467.087108 45.959643 
L 467.245384 58.645394 
L 467.72021 43.644112 
L 467.878485 58.517866 
L 468.036761 42.014236 
L 468.353312 53.786493 
L 468.669862 44.011777 
L 468.828138 53.595924 
L 469.144689 44.041686 
L 469.302964 58.511466 
L 469.46124 42.387355 
L 469.619515 46.697761 
L 469.77779 58.468887 
L 469.936066 43.655684 
L 470.252617 54.45935 
L 470.569167 45.598947 
L 470.727443 47.713242 
L 470.885718 54.374285 
L 471.202269 45.644792 
L 471.360545 58.605838 
L 471.51882 43.9984 
L 471.677095 54.130426 
L 471.993646 45.631096 
L 472.151922 58.569278 
L 472.310197 44.195801 
L 472.468473 47.956716 
L 472.626748 58.704464 
L 473.101574 46.055765 
L 473.25985 44.285413 
L 473.418125 48.229233 
L 473.576401 46.260148 
L 473.734676 58.619142 
L 473.892951 44.824965 
L 474.209502 54.341163 
L 474.367778 49.898662 
L 474.526053 54.132634 
L 474.842604 43.911178 
L 475.000879 58.629345 
L 475.159155 41.851135 
L 475.31743 46.503626 
L 475.475706 46.66806 
L 475.633981 54.124728 
L 475.950532 43.595751 
L 476.108807 58.651037 
L 476.267083 41.443045 
L 476.425358 41.30202 
L 476.583634 46.22344 
L 476.741909 58.799273 
L 477.216735 43.457738 
L 477.375011 58.636171 
L 477.533286 41.328487 
L 477.849837 54.076217 
L 478.166388 43.473069 
L 478.324663 53.752257 
L 478.641214 43.54314 
L 478.799489 58.674414 
L 478.957765 41.449066 
L 479.11604 46.266129 
L 479.274316 58.79891 
L 479.432591 41.697094 
L 479.749142 54.085571 
L 480.065693 43.731151 
L 480.223968 46.27161 
L 480.382244 54.052929 
L 480.698794 43.658549 
L 480.85707 58.674004 
L 481.015345 41.621389 
L 481.173621 53.892334 
L 481.490172 43.802742 
L 481.648447 58.708343 
L 481.806722 41.863617 
L 481.964998 46.476042 
L 482.123273 58.804912 
L 482.756375 41.941485 
L 482.91465 46.760098 
L 483.072926 44.400331 
L 483.231201 58.698324 
L 483.389477 42.673145 
L 483.706028 54.265826 
L 483.864303 50.054031 
L 484.022578 54.190532 
L 484.339129 44.902137 
L 484.497405 58.706818 
L 484.65568 43.58278 
L 484.813955 47.718781 
L 484.972231 48.019326 
L 485.130506 54.52394 
L 485.447057 46.256823 
L 485.605333 58.692763 
L 485.763608 44.947329 
L 485.921883 44.929931 
L 486.080159 49.076788 
L 486.238434 58.782406 
L 486.713261 43.971632 
L 486.871536 58.987179 
L 487.029811 42.410594 
L 487.188087 46.79283 
L 487.346362 54.327503 
L 487.662913 43.459387 
L 487.821188 53.886666 
L 488.137739 43.453454 
L 488.296015 58.721913 
L 488.45429 41.463863 
L 488.612566 46.38161 
L 488.770841 58.046684 
L 488.929116 38.558637 
L 489.245667 52.944913 
L 489.562218 41.58226 
L 489.720494 44.68607 
L 489.878769 53.219055 
L 490.19532 41.920264 
L 490.353595 58.278947 
L 490.511871 39.90197 
L 490.670146 53.233372 
L 490.986697 41.908004 
L 491.144972 58.273557 
L 491.303248 39.627001 
L 491.461523 45.376553 
L 491.619799 58.38005 
L 492.2529 39.267857 
L 492.411176 45.426486 
L 492.569451 42.409656 
L 492.727727 58.33012 
L 492.886002 40.149687 
L 493.202553 53.364429 
L 493.360828 48.899662 
L 493.519104 53.320194 
L 493.835655 42.563613 
L 493.99393 58.321988 
L 494.152205 39.907827 
L 494.310481 45.439153 
L 494.468756 45.390416 
L 494.627032 53.409684 
L 494.943582 42.371294 
L 495.101858 58.353497 
L 495.260133 40.052326 
L 495.418409 39.847216 
L 495.576684 45.526244 
L 495.73496 58.458699 
L 496.209786 42.492077 
L 496.368061 58.369686 
L 496.526337 40.132363 
L 496.842888 53.474091 
L 497.159438 42.702829 
L 497.317714 53.439865 
L 497.634265 42.439084 
L 497.79254 58.398977 
L 497.950815 40.38555 
L 498.109091 45.451471 
L 498.109091 45.451471 
" style="fill:none;stroke:#000000;stroke-linecap:square;stroke-width:1.5;"/>
   </g>
   <g id="line2d_10">
    <path clip-path="url(#p5babffc84d)" d="M 106.535697 63 
L 106.535697 8.64 
" style="fill:none;stroke:#1f77b4;stroke-linecap:square;stroke-width:1.5;"/>
   </g>
   <g id="line2d_11">
    <path clip-path="url(#p5babffc84d)" d="M 132.492866 63 
L 132.492866 8.64 
" style="fill:none;stroke:#1f77b4;stroke-linecap:square;stroke-width:1.5;"/>
   </g>
   <g id="line2d_12">
    <path clip-path="url(#p5babffc84d)" d="M 190.263395 63 
L 190.263395 8.64 
" style="fill:none;stroke:#1f77b4;stroke-linecap:square;stroke-width:1.5;"/>
   </g>
   <g id="line2d_13">
    <path clip-path="url(#p5babffc84d)" d="M 200.393022 63 
L 200.393022 8.64 
" style="fill:none;stroke:#1f77b4;stroke-linecap:square;stroke-width:1.5;"/>
   </g>
   <g id="line2d_14">
    <path clip-path="url(#p5babffc84d)" d="M 204.824734 63 
L 204.824734 8.64 
" style="fill:none;stroke:#1f77b4;stroke-linecap:square;stroke-width:1.5;"/>
   </g>
   <g id="line2d_15">
    <path clip-path="url(#p5babffc84d)" d="M 286.178301 63 
L 286.178301 8.64 
" style="fill:none;stroke:#1f77b4;stroke-linecap:square;stroke-width:1.5;"/>
   </g>
   <g id="line2d_16">
    <path clip-path="url(#p5babffc84d)" d="M 388.89905 63 
L 388.89905 8.64 
" style="fill:none;stroke:#1f77b4;stroke-linecap:square;stroke-width:1.5;"/>
   </g>
   <g id="line2d_17">
    <path clip-path="url(#p5babffc84d)" d="M 393.647312 63 
L 393.647312 8.64 
" style="fill:none;stroke:#1f77b4;stroke-linecap:square;stroke-width:1.5;"/>
   </g>
   <g id="line2d_18">
    <path clip-path="url(#p5babffc84d)" d="M 403.302113 63 
L 403.302113 8.64 
" style="fill:none;stroke:#1f77b4;stroke-linecap:square;stroke-width:1.5;"/>
   </g>
   <g id="patch_3">
    <path d="M 72 63 
L 72 8.64 
" style="fill:none;stroke:#000000;stroke-linecap:square;stroke-linejoin:miter;stroke-width:0.8;"/>
   </g>
   <g id="patch_4">
    <path d="M 518.4 63 
L 518.4 8.64 
" style="fill:none;stroke:#000000;stroke-linecap:square;stroke-linejoin:miter;stroke-width:0.8;"/>
   </g>
   <g id="patch_5">
    <path d="M 72 63 
L 518.4 63 
" style="fill:none;stroke:#000000;stroke-linecap:square;stroke-linejoin:miter;stroke-width:0.8;"/>
   </g>
   <g id="patch_6">
    <path d="M 72 8.64 
L 518.4 8.64 
" style="fill:none;stroke:#000000;stroke-linecap:square;stroke-linejoin:miter;stroke-width:0.8;"/>
   </g>
  </g>
 </g>
 <defs>
  <clipPath id="p5babffc84d">
   <rect height="54.36" width="446.4" x="72" y="8.64"/>
  </clipPath>
 </defs>
</svg>
